<svg width="71" height="40" viewBox="0 0 71 40" fill="none" xmlns="http://www.w3.org/2000/svg">
<path fill-rule="evenodd" clip-rule="evenodd" d="M26.9537 2.61568C26.4732 2.71028 25.5105 3.14588 24.8144 3.58348L23.5487 4.37928L15.217 4.43948C7.6963 4.49388 6.80797 4.53468 6.08777 4.86028C5.07877 5.31628 4.276 6.07748 3.72592 7.09968C3.3023 7.88728 3.29652 8.02608 3.35376 15.9997C3.38587 20.4547 3.49736 24.4219 3.60167 24.8157C3.85875 25.7867 4.72475 26.8735 5.68887 27.4351C6.48307 27.8977 6.52316 27.8999 14.5904 27.9581L22.6941 28.0165L23.5539 28.8365C24.0266 29.2875 24.9965 29.9301 25.7089 30.2645C26.9814 30.8615 27.0753 30.8743 31.006 30.9861C34.9313 31.0975 35.0254 31.1103 35.9545 31.6579C36.6775 32.0841 37.2742 32.7465 38.4777 34.4591C39.3447 35.6927 40.22 36.8503 40.4229 37.0315C41.2328 37.7555 42.5922 38.2875 43.835 38.3669C44.9351 38.4371 45.2551 38.3681 46.363 37.8211C47.5375 37.2411 47.7729 37.0031 49.5412 34.6041C52.1407 31.0777 51.9951 31.1465 57.179 30.9915L61.201 30.8713L62.564 30.1999C64.1384 29.4245 65.2719 28.3379 66.1211 26.7901L66.7195 25.6997V16.6997V7.69968L66.1505 6.67028C65.8375 6.10408 65.3295 5.33448 65.0218 4.95988C64.2336 4.00108 62.2547 2.83148 61.0245 2.59768C59.7347 2.35228 28.2058 2.36888 26.9537 2.61568ZM15.2623 9.48848C14.3564 9.82028 13.4767 10.7619 13.1524 11.7475C12.7854 12.8625 12.9585 12.9997 14.7332 12.9997C16.1317 12.9997 16.3433 12.9503 16.5986 12.5647C16.9464 12.0395 17.5559 12.1883 17.5559 12.7983C17.5559 13.3307 16.8463 13.5997 15.441 13.5997H14.3492L14.4069 15.3497L14.4645 17.0997L15.9837 17.1577L17.5029 17.2155L17.6188 16.6347C17.7097 16.1787 17.8713 16.0265 18.3703 15.9263C19.2803 15.7439 20.3284 15.0417 20.7668 14.3207C21.6572 12.8565 20.9463 10.4323 19.4076 9.68528C18.4231 9.20748 16.3048 9.10688 15.2623 9.48848ZM31.7166 16.9997V21.3997H33.013H34.3094V19.6997V17.9997H35.6058H36.9022V16.9997V15.9997H35.6058H34.3094V15.4075V14.8153L36.0546 14.7575L37.7997 14.6997L37.86 13.6497L37.9204 12.5997H34.8184H31.7166V16.9997ZM40.3535 13.8497C40.1225 14.5373 39.6027 15.9997 39.1981 17.0997C38.7936 18.1997 38.3442 19.4597 38.1998 19.8997C38.0554 20.3397 37.8741 20.8571 37.7974 21.0497C37.6719 21.3631 37.8035 21.3997 39.0553 21.3997C40.4292 21.3997 40.4568 21.3895 40.6618 20.7997C40.87 20.2007 40.873 20.1997 42.4606 20.1997H44.0506L44.182 20.7997L44.3135 21.3997H45.7906H47.2677L46.854 20.3497C46.6264 19.7721 45.8997 17.7923 45.2389 15.9497L44.0376 12.5997H42.4054H40.7731L40.3535 13.8497ZM50.3567 13.0731C48.4953 13.9423 47.7557 15.3233 47.9199 17.6237C47.9972 18.7099 48.1287 19.1375 48.5591 19.7033C49.4181 20.8327 50.4664 21.4197 51.8484 21.5453C52.9575 21.6461 53.0941 21.7119 53.4734 22.3275C53.8875 22.9993 53.8889 22.9997 55.4735 22.9997H57.0593L56.2174 21.8817C55.5198 20.9551 55.416 20.7069 55.6109 20.4317C57.0573 18.3899 57.249 16.5533 56.1987 14.7995C54.9769 12.7591 52.5592 12.0447 50.3567 13.0731ZM51.2712 15.5335C50.7245 16.0233 50.6307 16.2431 50.6307 17.0355C50.6307 18.2337 50.902 18.7153 51.7307 18.9897C53.0307 19.4199 54.0546 18.5725 54.0546 17.0663C54.0546 16.0449 53.4507 15.2557 52.5343 15.0795C52.0322 14.9831 51.7873 15.0711 51.2712 15.5335ZM42.0069 16.5353C41.5436 17.8989 41.5757 17.9997 42.4736 17.9997H43.2584L42.8543 16.7997C42.6319 16.1397 42.4219 15.5997 42.3874 15.5997C42.3529 15.5997 42.1818 16.0207 42.0069 16.5353ZM15.0288 18.4913C13.8299 19.0141 13.6083 20.2719 14.5489 21.2151C15.0262 21.6937 15.3002 21.7997 16.0601 21.7997C16.82 21.7997 17.094 21.6937 17.5713 21.2151C17.892 20.8935 18.1543 20.4391 18.1543 20.2051C18.1543 19.4695 17.5954 18.6527 16.9339 18.4213C16.1263 18.1391 15.8094 18.1507 15.0288 18.4913Z" fill="#F5852C"/>
<path fill-rule="evenodd" clip-rule="evenodd" d="M26.4997 2.87614C25.5081 3.23374 24.4835 3.85134 24.3836 4.15174C24.3268 4.32254 24.5575 4.39994 25.1236 4.39994C26.8288 4.39994 28.3315 5.66054 28.7044 7.40394C28.8398 8.03774 28.9216 11.3395 28.9216 16.1853C28.9216 24.6279 28.9071 24.7535 27.7898 25.8871C26.5133 27.1821 26.6294 27.1693 15.8545 27.2187C8.58108 27.2523 5.96394 27.2025 5.63286 27.0247C5.38794 26.8933 5.1875 26.8321 5.1875 26.8887C5.1875 26.9455 5.54291 27.1735 5.97731 27.3959C6.73082 27.7813 7.1339 27.7999 14.7535 27.7999H22.7398L23.4588 28.5979C23.8543 29.0369 24.7719 29.6893 25.4981 30.0479L26.8185 30.6999L30.812 30.8103C36.0546 30.9551 36.2359 31.0481 39.0758 35.0503C39.7589 36.0131 40.6339 37.0425 41.0202 37.3381C41.9197 38.0259 43.6892 38.4021 45.0283 38.1897C46.5531 37.9481 47.4987 37.1873 49.2771 34.7715C51.0983 32.2979 51.4497 31.9299 52.556 31.3387C53.2698 30.9571 53.774 30.9011 57.3427 30.8061C61.2499 30.7021 61.3562 30.6879 62.5283 30.1129C64.1135 29.3353 65.6543 27.7401 66.2502 26.2593C66.7135 25.1079 66.7167 25.0423 66.7167 16.6999C66.7167 8.35754 66.7135 8.29194 66.2502 7.14054C65.6457 5.63874 64.0358 3.97034 62.4902 3.24434L61.3317 2.69994L44.279 2.65694C30.6381 2.62274 27.0809 2.66654 26.4997 2.87614ZM58.6904 7.83974C58.459 8.12134 58.0043 13.8717 58.1776 14.3245C58.327 14.7153 59.3169 14.6661 59.6824 14.2499C59.9772 13.9143 60.1593 12.2657 60.2734 8.89994L60.3141 7.69994L59.6092 7.63974C59.2048 7.60534 58.8131 7.69074 58.6904 7.83974ZM40.7474 12.6423C40.6363 12.7839 39.8908 14.7449 39.091 16.9999C38.291 19.2549 37.5943 21.2163 37.5425 21.3587C37.4695 21.5597 37.7988 21.6045 39.012 21.5587L40.5755 21.4999L40.7608 20.8499L40.946 20.1999H42.4074H43.8687L44.0361 20.8499L44.2034 21.4999L45.7371 21.5583C46.6588 21.5935 47.2707 21.5375 47.2707 21.4181C47.2707 21.3087 46.7615 19.7975 46.139 18.0597C45.5168 16.3217 44.8173 14.3599 44.5851 13.6999L44.1627 12.4999L42.5562 12.4423C41.4253 12.4017 40.89 12.4609 40.7474 12.6423ZM51.0029 12.6767C48.3136 13.4233 46.9155 16.4285 48.0455 19.0333C48.7167 20.5801 50.5069 21.7837 52.1571 21.7979C52.8458 21.8039 53.0165 21.9003 53.4055 22.5023C53.8413 23.1769 53.8971 23.1999 55.1008 23.1971C55.7855 23.1957 56.5418 23.1417 56.7815 23.0771C57.1983 22.9651 57.1792 22.9109 56.3451 21.8453L55.4727 20.7307L56.0505 19.9153C57.7614 17.5009 57.098 14.3025 54.6289 13.0611C53.4838 12.4853 52.1872 12.3479 51.0029 12.6767ZM31.5605 17.0499L31.6141 21.4999H33.0103H34.4064L34.4642 19.8499L34.5223 18.1999H35.7108H36.8995V17.0999V15.9999H35.7028H34.5061V15.3999V14.7999H36.2014H37.8967V13.6999V12.5999H34.7018H31.5068L31.5605 17.0499ZM51.4016 15.6023C50.7662 16.1035 50.5592 16.9837 50.8609 17.9007C51.1198 18.6873 51.5626 19.0029 52.3933 18.9935C53.3303 18.9829 53.7086 18.5351 53.8093 17.3181C53.8893 16.3511 53.8419 16.1711 53.3863 15.7143C52.77 15.0963 52.0917 15.0579 51.4016 15.6023ZM42.1036 16.7499C41.9696 17.1625 41.8132 17.6125 41.7564 17.7499C41.6848 17.9229 41.8745 17.9999 42.3715 17.9999C43.0544 17.9999 43.0833 17.9727 42.9573 17.4499C42.7839 16.7321 42.5131 15.9999 42.4208 15.9999C42.3805 15.9999 42.2379 16.3375 42.1036 16.7499Z" fill="#12355A"/>
</svg>
