<svg width="80" height="80" viewBox="0 0 80 80" fill="none" xmlns="http://www.w3.org/2000/svg">
<path fill-rule="evenodd" clip-rule="evenodd" d="M40.0168 55.2146C43.6139 58.529 48.4445 60.5394 53.6988 60.5394C64.9831 60.5394 74.1163 51.3357 74.1163 40.0157C74.1163 28.6612 64.9831 19.457 53.6988 19.457C48.4445 19.457 43.6139 21.467 40.0168 24.7819C35.891 28.555 33.2812 33.9857 33.2812 40.0157C33.2817 46.0457 35.891 51.4768 40.0168 55.2146Z" fill="#E9B040"/>
<path fill-rule="evenodd" clip-rule="evenodd" d="M71.4062 51.4393C71.4062 51.0865 71.6885 50.8047 72.0408 50.8047C72.4285 50.8047 72.7103 51.0869 72.7103 51.4393C72.7103 51.8277 72.4281 52.1096 72.0408 52.1096C71.6885 52.1096 71.4062 51.8277 71.4062 51.4393ZM72.0408 51.9689C72.3231 51.9689 72.5692 51.7215 72.5692 51.4397C72.5692 51.1579 72.3226 50.9462 72.0408 50.9462C71.7935 50.9462 71.5474 51.1579 71.5474 51.4397C71.5474 51.7215 71.7939 51.9689 72.0408 51.9689ZM71.9703 51.7572H71.8292V51.1575H72.0757C72.1114 51.1575 72.1819 51.1575 72.2168 51.1932C72.2874 51.228 72.2874 51.2637 72.2874 51.3343C72.2874 51.4048 72.2525 51.4754 72.1819 51.4754L72.3231 51.7576H72.1463L72.0757 51.5102H71.9703V51.7572V51.4044H72.1114C72.1463 51.4044 72.1463 51.3687 72.1463 51.3339C72.1463 51.2982 72.1463 51.2982 72.1114 51.2633H71.9703V51.7572Z" fill="#E9B040"/>
<path fill-rule="evenodd" clip-rule="evenodd" d="M46.612 37.8297C46.5415 37.0893 46.4004 36.3841 46.2593 35.6433H33.7759C33.917 34.9029 34.1287 34.1977 34.3399 33.4922H45.6599C45.4142 32.7498 45.1318 32.0201 44.8137 31.3058H35.2219C35.5747 30.5588 35.963 29.8292 36.3856 29.1194H43.6151C43.1499 28.3663 42.6315 27.6474 42.0637 26.9683H37.9374C38.5757 26.1888 39.2711 25.458 40.018 24.7819C36.386 21.5023 31.5899 19.457 26.3003 19.457C15.0513 19.457 5.88281 28.6612 5.88281 40.0157C5.88281 51.3357 15.0513 60.5394 26.3003 60.5394C31.5899 60.5394 36.3856 58.529 40.018 55.2146C40.7534 54.5503 41.4373 53.831 42.0637 53.063H37.9374C37.373 52.3579 36.8795 51.6528 36.3856 50.8766H43.6151C44.0697 50.1793 44.4705 49.4484 44.8141 48.6903H35.2219C34.9044 47.9851 34.5873 47.28 34.3399 46.5387H45.6599C45.9065 45.8336 46.0833 45.0936 46.2588 44.3523C46.3999 43.6472 46.5411 42.9072 46.6116 42.1659C46.6831 41.451 46.7186 40.7329 46.7179 40.0144C46.7179 39.2752 46.6826 38.5348 46.612 37.8297Z" fill="#CC2131"/>
<path fill-rule="evenodd" clip-rule="evenodd" d="M71.4062 44.7749C71.4062 44.3873 71.6885 44.1055 72.0408 44.1055C72.4285 44.1055 72.7103 44.3877 72.7103 44.7749C72.7103 45.1277 72.4281 45.4452 72.0408 45.4452C71.6885 45.4452 71.4062 45.1273 71.4062 44.7749ZM72.0408 45.2684C72.3231 45.2684 72.5692 45.0567 72.5692 44.7749C72.5692 44.4931 72.3226 44.2814 72.0408 44.2814C71.7935 44.2814 71.5474 44.4931 71.5474 44.7749C71.5474 45.0567 71.7939 45.2684 72.0408 45.2684ZM71.9703 45.0567H71.8292V44.4927H72.2168C72.2874 44.5284 72.2874 44.5989 72.2874 44.6695C72.2874 44.7044 72.2525 44.7749 72.1819 44.8106L72.3231 45.0571H72.1463L72.0757 44.8455H71.9703V45.0567V44.7396H72.0408C72.0757 44.7396 72.1114 44.7396 72.1114 44.7039C72.1463 44.7039 72.1463 44.6691 72.1463 44.6334C72.1463 44.6334 72.1463 44.5985 72.1114 44.5985C72.1114 44.5628 72.0757 44.5985 72.0408 44.5985H71.9703V45.0567Z" fill="white"/>
<path fill-rule="evenodd" clip-rule="evenodd" d="M33.071 45.9388C32.4011 46.1148 31.9072 46.2211 31.4138 46.2211C30.3559 46.2211 29.7209 45.5508 29.7209 44.3518C29.7209 44.1052 29.7561 43.8583 29.7914 43.5761L29.9325 42.7655L30.0384 42.0952L30.9904 36.3122H33.1063L32.8593 37.5818H34.1995L33.882 39.6976H32.5418L31.9778 43.1531C31.9425 43.33 31.9425 43.4354 31.9425 43.5059C31.9425 43.9645 32.1542 44.1405 32.6829 44.1405C32.9299 44.1405 33.1411 44.1056 33.3528 44.07L33.071 45.9388ZM39.9124 45.8683C39.1367 46.08 38.4316 46.1854 37.6554 46.1854C35.2574 46.1854 33.882 44.9158 33.882 42.4127C33.882 39.4855 35.5043 37.3697 37.7609 37.3697C39.5592 37.3697 40.723 38.5687 40.723 40.4372C40.723 41.0726 40.6524 41.6719 40.4764 42.5181H36.0684C36.0331 42.6593 36.0331 42.7298 36.0331 42.8004C36.0331 43.7877 36.7029 44.2812 37.9725 44.2812C38.7835 44.2812 39.4886 44.1052 40.2648 43.7529L39.9124 45.8683ZM38.6075 40.8256V40.4023C38.6075 39.6972 38.2195 39.3091 37.5496 39.3091C36.8441 39.3091 36.3506 39.8379 36.1389 40.8252L38.6075 40.8256ZM16.1443 46.0443H13.9579L15.2275 38.0399L12.3713 46.0443H10.8551L10.6788 38.0752L9.33861 46.0443H7.1875L8.91528 35.6419H12.1243L12.1949 42.0604L14.346 35.6419H17.8725L16.1443 46.0443ZM21.4696 42.2716C21.2579 42.2359 21.1874 42.2359 21.0463 42.2359C19.7767 42.2359 19.1421 42.7294 19.1421 43.5055C19.1421 44.0347 19.4596 44.3875 19.9531 44.3875C21.011 44.3875 21.4339 43.5055 21.4696 42.2716ZM23.2327 46.0443H21.3285L21.3638 45.1631C20.8699 45.8326 20.2 46.1854 19.0363 46.1854C17.9783 46.1854 17.0615 45.2337 17.0615 43.8583C17.0615 43.4706 17.1321 43.1183 17.2379 42.7655C17.5903 41.4602 18.8952 40.6497 20.9052 40.614C21.1521 40.614 21.5397 40.614 21.8925 40.6497C21.9627 40.3674 21.9627 40.2612 21.9627 40.0852C21.9627 39.5208 21.5045 39.3444 20.4818 39.3444C19.8472 39.3444 19.1417 39.4502 18.6482 39.6266L18.3307 39.6972L18.1896 39.732L18.5071 37.8279C19.5297 37.5104 20.2702 37.3697 21.0815 37.3697C22.9857 37.3697 24.0084 38.2512 24.0084 39.8731C24.0084 40.2965 24.0436 40.614 23.9025 41.5308L23.409 44.5634L23.3385 45.0926L23.3032 45.5159L23.2679 45.7982L23.2327 46.0443ZM50.5621 37.6519C51.1967 37.6519 51.7612 37.8283 52.5368 38.2159L52.9245 35.959C52.7128 35.8531 52.6423 35.8531 52.3605 35.7473L51.4793 35.5004C51.1971 35.4298 50.8448 35.3945 50.4563 35.3945C49.3627 35.3945 48.7281 35.4298 48.0587 35.8179C47.7059 36.0648 47.2473 36.3823 46.7534 36.9463L46.4711 36.8758L44.2142 38.4625L44.3205 37.5809H41.9925L40.6179 46.0438H42.84L43.6506 41.4955C43.6506 41.4955 43.9685 40.8601 44.1092 40.6493C44.5325 40.1201 44.8849 40.1201 45.3431 40.1201H45.5199C45.4459 40.6575 45.4104 41.1995 45.4136 41.742C45.4136 44.4925 46.965 46.2207 49.3631 46.2207C49.9628 46.2207 50.4924 46.1501 51.303 45.9384L51.6914 43.5408C50.9863 43.9284 50.3513 44.1048 49.8221 44.1048C48.5177 44.1048 47.7411 43.1175 47.7411 41.5661C47.7403 39.2738 48.9045 37.6519 50.5621 37.6519ZM69.2863 35.6419L68.7933 38.604C68.2641 37.793 67.6291 37.4049 66.7828 37.4049C65.6187 37.4049 64.5259 38.0748 63.8556 39.3444V39.3095L62.4453 38.4629L62.5864 37.5813H60.2237L58.8835 46.0443H61.0699L61.8107 41.4959C61.8107 41.4959 62.3748 40.8605 62.5159 40.6497C62.8687 40.2263 63.221 40.1554 63.5033 40.1205C63.2567 40.8256 63.1156 41.6719 63.1156 42.6244C63.1156 44.7402 64.2084 46.1505 65.8303 46.1505C66.6417 46.1505 67.2763 45.8683 67.8756 45.198L67.7702 46.0443H69.8512L71.5437 35.6419H69.2863ZM66.5716 44.0347C65.8308 44.0347 65.4431 43.4706 65.4431 42.377C65.4431 40.7194 66.1483 39.5208 67.1705 39.5208C67.9462 39.5208 68.3346 40.1205 68.3346 41.1784C68.3346 42.8709 67.6295 44.0347 66.5716 44.0347ZM56.3809 42.2716C56.1692 42.2359 56.0987 42.2359 55.9576 42.2359C54.6871 42.2359 54.0525 42.7294 54.0525 43.5055C54.0525 44.0347 54.3705 44.3875 54.8639 44.3875C55.9219 44.3875 56.3452 43.5055 56.3809 42.2716ZM58.1439 46.0443H56.2041L56.2746 45.1631C55.7812 45.8326 55.1105 46.1854 53.9475 46.1854C52.8539 46.1854 51.9023 45.2686 51.9023 43.8583C51.9023 41.8487 53.418 40.6144 55.816 40.6144C56.0634 40.6144 56.4506 40.6144 56.7685 40.6501C56.8391 40.3679 56.8748 40.2616 56.8748 40.0856C56.8748 39.5212 56.4162 39.3448 55.3582 39.3448C54.7585 39.3448 54.0181 39.4506 53.5246 39.627L53.2424 39.6976L53.1013 39.7324L53.4184 37.8283C54.4414 37.5108 55.1823 37.3701 55.9928 37.3701C57.897 37.3701 58.8844 38.2516 58.8844 39.8736C58.8844 40.2969 58.9549 40.6144 58.7789 41.5312L58.3203 44.5638L58.2498 45.093L58.1792 45.5163L58.1444 45.7986V46.0443H58.1439ZM27.852 39.3797C28.2753 39.3797 28.8746 39.415 29.5096 39.5208L29.8271 37.5461C29.1921 37.4755 28.3459 37.3697 27.852 37.3697C25.3838 37.3697 24.5728 38.7098 24.5728 40.2612C24.5728 41.2843 25.031 42.0243 26.23 42.5883C27.1115 43.0116 27.2527 43.0818 27.2527 43.4702C27.2527 43.9986 26.7945 44.3165 25.9478 44.3165C25.2779 44.3165 24.6429 44.2102 23.9378 43.9637L23.6908 45.9027L23.7257 45.9384L24.149 46.009C24.2902 46.0438 24.4665 46.0795 24.7135 46.1144C25.2422 46.1501 25.7009 46.185 25.9831 46.185C28.4517 46.185 29.4743 45.2333 29.4743 43.364C29.4743 42.2006 28.9099 41.4955 27.8167 41.002C26.8646 40.5783 26.7588 40.5086 26.7588 40.1201C26.7588 39.7325 27.1821 39.3797 27.852 39.3797Z" fill="#1B3771"/>
<path fill-rule="evenodd" clip-rule="evenodd" d="M53.5258 35.2905L53.1373 37.5474C52.3616 37.1594 51.7972 36.9834 51.1626 36.9834C49.505 36.9834 48.3416 38.6053 48.3416 40.8976C48.3416 42.4846 49.1173 43.4363 50.4226 43.4363C50.951 43.4363 51.5859 43.2603 52.2911 42.908L51.9035 45.2699C51.0921 45.4816 50.5633 45.5878 49.9636 45.5878C47.5659 45.5878 46.0847 43.8596 46.0847 41.0744C46.0847 37.3714 48.13 34.7617 51.0568 34.7617C51.4444 34.7617 51.7968 34.797 52.079 34.8676L52.9609 35.0792C53.2436 35.1851 53.3141 35.2203 53.5258 35.2905ZM46.4022 36.8423H46.1905C45.4505 36.8423 45.0272 37.1951 44.3569 38.2173L44.5686 36.9124H42.5582L41.1836 45.3758H43.4057C44.2162 40.192 44.4279 39.3105 45.4858 39.3105H45.6269C45.8386 38.2878 46.1204 37.547 46.4732 36.8771L46.4022 36.8423ZM33.637 45.2699C33.0377 45.4816 32.5438 45.5521 32.0504 45.5521C30.9219 45.5521 30.2869 44.9176 30.2869 43.6837C30.2869 43.472 30.3222 43.1902 30.3575 42.9428L30.4986 42.0966L30.6044 41.4271L31.5565 35.6432H33.7429L33.4959 36.9128H34.6244L34.3422 38.9934H33.2137L32.6144 42.5199C32.5791 42.661 32.5791 42.7673 32.5791 42.8727C32.5791 43.296 32.7908 43.4724 33.3195 43.4724C33.5665 43.4724 33.7777 43.4724 33.9188 43.4019L33.637 45.2699ZM25.1384 39.5927C25.1384 40.651 25.6319 41.391 26.7956 41.9555C27.7125 42.3788 27.8536 42.5195 27.8536 42.8723C27.8536 43.4015 27.4655 43.648 26.584 43.648C25.9141 43.648 25.3144 43.5426 24.6093 43.3309L24.2918 45.2699L24.3976 45.3056L24.7856 45.3762C24.9263 45.411 25.1031 45.4467 25.385 45.4467C25.8784 45.5173 26.3018 45.5173 26.584 45.5173C28.9111 45.5173 30.0047 44.6353 30.0047 42.6963C30.0047 41.5321 29.5465 40.8619 28.4533 40.3335C27.5012 39.9102 27.3954 39.8048 27.3954 39.4167C27.3954 38.9585 27.7834 38.7469 28.4886 38.7469C28.9119 38.7469 29.5112 38.7821 30.0756 38.8527L30.3927 36.9132C29.8287 36.8074 28.9472 36.7369 28.4533 36.7369C25.9847 36.7364 25.1031 38.0413 25.1384 39.5927ZM70.4172 45.3762H68.3362L68.4425 44.5648C67.8428 45.1994 67.2078 45.4816 66.3964 45.4816C64.7744 45.4816 63.7165 44.107 63.7165 41.9912C63.7165 39.1698 65.3742 36.7717 67.3132 36.7717C68.1951 36.7717 68.8297 37.1598 69.4299 37.9355L69.9233 34.9734H72.1097L70.4172 45.3762ZM67.1725 43.4015C68.1955 43.4015 68.9007 42.2024 68.9007 40.5448C68.9007 39.4516 68.5122 38.8871 67.7365 38.8871C66.7492 38.8871 66.0092 40.0509 66.0092 41.7085C66.0092 42.8374 66.3968 43.4015 67.1725 43.4015ZM40.4075 45.1994C39.6314 45.4467 38.9262 45.5521 38.1152 45.5521C35.6466 45.5521 34.377 44.2477 34.377 41.7438C34.377 38.8523 35.9994 36.7012 38.2211 36.7012C40.0547 36.7012 41.218 37.9002 41.218 39.7691C41.218 40.4041 41.1475 41.0038 40.9358 41.8849H36.5639C36.5286 41.9912 36.5286 42.0617 36.5286 42.1323C36.5286 43.1196 37.1988 43.6131 38.468 43.6131C39.279 43.6131 39.9841 43.472 40.7602 43.084L40.4075 45.1994ZM39.1732 40.1567V39.7338C39.1732 39.0287 38.7851 38.6406 38.1152 38.6406C37.4101 38.6406 36.9162 39.1698 36.7045 40.1567H39.1732ZM16.7104 45.3762H14.524L15.7936 37.371L12.9373 45.3762H11.4208L11.2444 37.4416L9.90466 45.3762H7.85938L9.58716 34.9734H12.7609L12.8667 41.4267L14.9822 34.9734H18.4381L16.7104 45.3762ZM22.1763 41.6027C21.9647 41.6027 21.8588 41.5678 21.6824 41.5678C20.4481 41.5678 19.8136 42.026 19.8136 42.8723C19.8136 43.4015 20.0958 43.7185 20.5893 43.7185C21.5061 43.7185 22.1411 42.8723 22.1763 41.6027ZM23.7983 45.3762H21.9643L21.9995 44.4942C21.4351 45.1994 20.6947 45.5173 19.672 45.5173C18.473 45.5173 17.662 44.6005 17.662 43.2251C17.662 41.1449 19.0723 39.9459 21.5409 39.9459C21.7879 39.9459 22.1054 39.9812 22.4577 40.016C22.5283 39.7342 22.5283 39.6284 22.5283 39.4873C22.5283 38.9233 22.1402 38.7116 21.1176 38.7116C20.483 38.7116 19.7774 38.7821 19.284 38.9232L18.9665 39.0291L18.7548 39.0644L19.0723 37.1602C20.1655 36.8427 20.9059 36.7369 21.7173 36.7369C23.6215 36.7369 24.6441 37.5831 24.6441 39.2051C24.6441 39.6284 24.6088 39.9459 24.4677 40.898L23.9738 43.8958L23.9033 44.4241L23.868 44.8474L23.8327 45.1653L23.7983 45.3762ZM57.0876 41.6027C56.8403 41.6027 56.7348 41.5678 56.5941 41.5678C55.3246 41.5678 54.6891 42.026 54.6891 42.8723C54.6891 43.4015 55.0071 43.7185 55.5005 43.7185C56.3825 43.7185 57.0519 42.8723 57.0876 41.6027ZM58.7096 45.3762H56.876L56.9108 44.4942C56.3468 45.1994 55.6064 45.5173 54.5837 45.5173C53.3847 45.5173 52.5733 44.6005 52.5733 43.2251C52.5733 41.1449 53.9836 39.9459 56.4522 39.9459C56.6996 39.9459 57.0171 39.9812 57.3342 40.016C57.4047 39.7342 57.4404 39.6284 57.4404 39.4873C57.4404 38.9233 57.0519 38.7116 56.0301 38.7116C55.3947 38.7116 54.6547 38.7821 54.1608 38.9232L53.8786 39.0291L53.6669 39.0644L53.984 37.1602C55.0776 36.8427 55.8176 36.7369 56.629 36.7369C58.5332 36.7369 59.5205 37.5831 59.5205 39.2051C59.5205 39.6284 59.5205 39.9459 59.3446 40.898L58.886 43.8958L58.8154 44.4241L58.7448 44.8474L58.71 45.1653L58.7096 45.3762ZM64.6337 36.8423H64.4221C63.6821 36.8423 63.2587 37.1951 62.5885 38.2173L62.8001 36.9124H60.7897L59.4496 45.3758H61.636C62.4473 40.192 62.659 39.3105 63.7169 39.3105H63.858C64.0697 38.2878 64.3515 37.547 64.7043 36.8771L64.6337 36.8423Z" fill="white"/>
</svg>
