<svg width="156" height="138" viewBox="0 0 156 138" fill="none" xmlns="http://www.w3.org/2000/svg">
<g opacity="0.16" filter="url(#filter0_d_6434_26182)">
<rect x="9" y="9" width="138" height="120" rx="8" fill="url(#paint0_linear_6434_26182)"/>
</g>
<path fill-rule="evenodd" clip-rule="evenodd" d="M78.0168 84.2146C81.6139 87.529 86.4445 89.5394 91.6988 89.5394C102.983 89.5394 112.116 80.3357 112.116 69.0157C112.116 57.6612 102.983 48.457 91.6988 48.457C86.4445 48.457 81.6139 50.467 78.0168 53.7819C73.891 57.555 71.2812 62.9857 71.2812 69.0157C71.2817 75.0457 73.891 80.4768 78.0168 84.2146Z" fill="#E9B040"/>
<path fill-rule="evenodd" clip-rule="evenodd" d="M109.406 80.4393C109.406 80.0865 109.688 79.8047 110.041 79.8047C110.428 79.8047 110.71 80.0869 110.71 80.4393C110.71 80.8277 110.428 81.1096 110.041 81.1096C109.688 81.1096 109.406 80.8277 109.406 80.4393ZM110.041 80.9689C110.323 80.9689 110.569 80.7215 110.569 80.4397C110.569 80.1579 110.323 79.9462 110.041 79.9462C109.793 79.9462 109.547 80.1579 109.547 80.4397C109.547 80.7215 109.794 80.9689 110.041 80.9689ZM109.97 80.7572H109.829V80.1575H110.076C110.111 80.1575 110.182 80.1575 110.217 80.1932C110.287 80.228 110.287 80.2637 110.287 80.3343C110.287 80.4048 110.253 80.4754 110.182 80.4754L110.323 80.7576H110.146L110.076 80.5102H109.97V80.7572V80.4044H110.111C110.146 80.4044 110.146 80.3687 110.146 80.3339C110.146 80.2982 110.146 80.2982 110.111 80.2633H109.97V80.7572Z" fill="#E9B040"/>
<path fill-rule="evenodd" clip-rule="evenodd" d="M84.612 66.8297C84.5415 66.0893 84.4004 65.3841 84.2593 64.6433H71.7759C71.917 63.9029 72.1287 63.1977 72.3399 62.4922H83.6599C83.4142 61.7498 83.1318 61.0201 82.8137 60.3058H73.2219C73.5747 59.5588 73.963 58.8292 74.3856 58.1194H81.6151C81.1499 57.3663 80.6315 56.6474 80.0637 55.9683H75.9374C76.5757 55.1888 77.2711 54.458 78.018 53.7819C74.386 50.5023 69.5899 48.457 64.3003 48.457C53.0513 48.457 43.8828 57.6612 43.8828 69.0157C43.8828 80.3357 53.0513 89.5394 64.3003 89.5394C69.5899 89.5394 74.3856 87.529 78.018 84.2146C78.7534 83.5503 79.4373 82.831 80.0637 82.063H75.9374C75.373 81.3579 74.8795 80.6528 74.3856 79.8766H81.6151C82.0697 79.1793 82.4705 78.4484 82.8141 77.6903H73.2219C72.9044 76.9851 72.5873 76.28 72.3399 75.5387H83.6599C83.9065 74.8336 84.0833 74.0936 84.2588 73.3523C84.3999 72.6472 84.5411 71.9072 84.6116 71.1659C84.6831 70.451 84.7186 69.7329 84.7179 69.0144C84.7179 68.2752 84.6826 67.5348 84.612 66.8297Z" fill="#CC2131"/>
<path fill-rule="evenodd" clip-rule="evenodd" d="M109.406 73.7749C109.406 73.3873 109.688 73.1055 110.041 73.1055C110.428 73.1055 110.71 73.3877 110.71 73.7749C110.71 74.1277 110.428 74.4452 110.041 74.4452C109.688 74.4452 109.406 74.1273 109.406 73.7749ZM110.041 74.2684C110.323 74.2684 110.569 74.0567 110.569 73.7749C110.569 73.4931 110.323 73.2814 110.041 73.2814C109.793 73.2814 109.547 73.4931 109.547 73.7749C109.547 74.0567 109.794 74.2684 110.041 74.2684ZM109.97 74.0567H109.829V73.4927H110.217C110.287 73.5284 110.287 73.5989 110.287 73.6695C110.287 73.7044 110.253 73.7749 110.182 73.8106L110.323 74.0571H110.146L110.076 73.8455H109.97V74.0567V73.7396H110.041C110.076 73.7396 110.111 73.7396 110.111 73.7039C110.146 73.7039 110.146 73.6691 110.146 73.6334C110.146 73.6334 110.146 73.5985 110.111 73.5985C110.111 73.5628 110.076 73.5985 110.041 73.5985H109.97V74.0567Z" fill="white"/>
<path fill-rule="evenodd" clip-rule="evenodd" d="M71.071 74.9388C70.4011 75.1148 69.9072 75.2211 69.4138 75.2211C68.3559 75.2211 67.7209 74.5508 67.7209 73.3518C67.7209 73.1052 67.7561 72.8583 67.7914 72.5761L67.9325 71.7655L68.0384 71.0952L68.9904 65.3122H71.1063L70.8593 66.5818H72.1995L71.882 68.6976H70.5418L69.9778 72.1531C69.9425 72.33 69.9425 72.4354 69.9425 72.5059C69.9425 72.9645 70.1542 73.1405 70.6829 73.1405C70.9299 73.1405 71.1411 73.1056 71.3528 73.07L71.071 74.9388ZM77.9124 74.8683C77.1367 75.08 76.4316 75.1854 75.6554 75.1854C73.2574 75.1854 71.882 73.9158 71.882 71.4127C71.882 68.4855 73.5043 66.3697 75.7609 66.3697C77.5592 66.3697 78.723 67.5687 78.723 69.4372C78.723 70.0726 78.6524 70.6719 78.4764 71.5181H74.0684C74.0331 71.6593 74.0331 71.7298 74.0331 71.8004C74.0331 72.7877 74.7029 73.2812 75.9725 73.2812C76.7835 73.2812 77.4886 73.1052 78.2648 72.7529L77.9124 74.8683ZM76.6075 69.8256V69.4023C76.6075 68.6972 76.2195 68.3091 75.5496 68.3091C74.8441 68.3091 74.3506 68.8379 74.1389 69.8252L76.6075 69.8256ZM54.1443 75.0443H51.9579L53.2275 67.0399L50.3713 75.0443H48.8551L48.6788 67.0752L47.3386 75.0443H45.1875L46.9153 64.6419H50.1243L50.1949 71.0604L52.346 64.6419H55.8725L54.1443 75.0443ZM59.4696 71.2716C59.2579 71.2359 59.1874 71.2359 59.0463 71.2359C57.7767 71.2359 57.1421 71.7294 57.1421 72.5055C57.1421 73.0347 57.4596 73.3875 57.9531 73.3875C59.011 73.3875 59.4339 72.5055 59.4696 71.2716ZM61.2327 75.0443H59.3285L59.3638 74.1631C58.8699 74.8326 58.2 75.1854 57.0363 75.1854C55.9783 75.1854 55.0615 74.2337 55.0615 72.8583C55.0615 72.4706 55.1321 72.1183 55.2379 71.7655C55.5903 70.4602 56.8952 69.6497 58.9052 69.614C59.1521 69.614 59.5397 69.614 59.8925 69.6497C59.9627 69.3674 59.9627 69.2612 59.9627 69.0852C59.9627 68.5208 59.5045 68.3444 58.4818 68.3444C57.8472 68.3444 57.1417 68.4502 56.6482 68.6266L56.3307 68.6972L56.1896 68.732L56.5071 66.8279C57.5297 66.5104 58.2702 66.3697 59.0815 66.3697C60.9857 66.3697 62.0084 67.2512 62.0084 68.8731C62.0084 69.2965 62.0436 69.614 61.9025 70.5308L61.409 73.5634L61.3385 74.0926L61.3032 74.5159L61.2679 74.7982L61.2327 75.0443ZM88.5621 66.6519C89.1967 66.6519 89.7612 66.8283 90.5368 67.2159L90.9245 64.959C90.7128 64.8531 90.6423 64.8531 90.3605 64.7473L89.4793 64.5004C89.1971 64.4298 88.8448 64.3945 88.4563 64.3945C87.3627 64.3945 86.7281 64.4298 86.0587 64.8179C85.7059 65.0648 85.2473 65.3823 84.7534 65.9463L84.4711 65.8758L82.2142 67.4625L82.3205 66.5809H79.9925L78.6179 75.0438H80.84L81.6506 70.4955C81.6506 70.4955 81.9685 69.8601 82.1092 69.6493C82.5325 69.1201 82.8849 69.1201 83.3431 69.1201H83.5199C83.4459 69.6575 83.4104 70.1995 83.4136 70.742C83.4136 73.4925 84.965 75.2207 87.3631 75.2207C87.9628 75.2207 88.4924 75.1501 89.303 74.9384L89.6914 72.5408C88.9863 72.9284 88.3513 73.1048 87.8221 73.1048C86.5177 73.1048 85.7411 72.1175 85.7411 70.5661C85.7403 68.2738 86.9045 66.6519 88.5621 66.6519ZM107.286 64.6419L106.793 67.604C106.264 66.793 105.629 66.4049 104.783 66.4049C103.619 66.4049 102.526 67.0748 101.856 68.3444V68.3095L100.445 67.4629L100.586 66.5813H98.2237L96.8835 75.0443H99.0699L99.8107 70.4959C99.8107 70.4959 100.375 69.8605 100.516 69.6497C100.869 69.2263 101.221 69.1554 101.503 69.1205C101.257 69.8256 101.116 70.6719 101.116 71.6244C101.116 73.7402 102.208 75.1505 103.83 75.1505C104.642 75.1505 105.276 74.8683 105.876 74.198L105.77 75.0443H107.851L109.544 64.6419H107.286ZM104.572 73.0347C103.831 73.0347 103.443 72.4706 103.443 71.377C103.443 69.7194 104.148 68.5208 105.17 68.5208C105.946 68.5208 106.335 69.1205 106.335 70.1784C106.335 71.8709 105.63 73.0347 104.572 73.0347ZM94.3809 71.2716C94.1692 71.2359 94.0987 71.2359 93.9576 71.2359C92.6871 71.2359 92.0525 71.7294 92.0525 72.5055C92.0525 73.0347 92.3705 73.3875 92.8639 73.3875C93.9219 73.3875 94.3452 72.5055 94.3809 71.2716ZM96.1439 75.0443H94.2041L94.2746 74.1631C93.7812 74.8326 93.1105 75.1854 91.9475 75.1854C90.8539 75.1854 89.9023 74.2686 89.9023 72.8583C89.9023 70.8487 91.418 69.6144 93.816 69.6144C94.0634 69.6144 94.4506 69.6144 94.7685 69.6501C94.8391 69.3679 94.8748 69.2616 94.8748 69.0856C94.8748 68.5212 94.4162 68.3448 93.3582 68.3448C92.7585 68.3448 92.0181 68.4506 91.5246 68.627L91.2424 68.6976L91.1013 68.7324L91.4184 66.8283C92.4414 66.5108 93.1823 66.3701 93.9928 66.3701C95.897 66.3701 96.8844 67.2516 96.8844 68.8736C96.8844 69.2969 96.9549 69.6144 96.7789 70.5312L96.3203 73.5638L96.2498 74.093L96.1792 74.5163L96.1444 74.7986V75.0443H96.1439ZM65.852 68.3797C66.2753 68.3797 66.8746 68.415 67.5096 68.5208L67.8271 66.5461C67.1921 66.4755 66.3459 66.3697 65.852 66.3697C63.3838 66.3697 62.5728 67.7098 62.5728 69.2612C62.5728 70.2843 63.031 71.0243 64.23 71.5883C65.1115 72.0116 65.2527 72.0818 65.2527 72.4702C65.2527 72.9986 64.7945 73.3165 63.9478 73.3165C63.2779 73.3165 62.6429 73.2102 61.9378 72.9637L61.6908 74.9027L61.7257 74.9384L62.149 75.009C62.2902 75.0438 62.4665 75.0795 62.7135 75.1144C63.2422 75.1501 63.7009 75.185 63.9831 75.185C66.4517 75.185 67.4743 74.2333 67.4743 72.364C67.4743 71.2006 66.9099 70.4955 65.8167 70.002C64.8646 69.5783 64.7588 69.5086 64.7588 69.1201C64.7588 68.7325 65.1821 68.3797 65.852 68.3797Z" fill="#1B3771"/>
<path fill-rule="evenodd" clip-rule="evenodd" d="M91.5258 64.2905L91.1373 66.5474C90.3616 66.1594 89.7972 65.9834 89.1626 65.9834C87.505 65.9834 86.3416 67.6053 86.3416 69.8976C86.3416 71.4846 87.1173 72.4363 88.4226 72.4363C88.951 72.4363 89.5859 72.2603 90.2911 71.908L89.9035 74.2699C89.0921 74.4816 88.5633 74.5878 87.9636 74.5878C85.5659 74.5878 84.0847 72.8596 84.0847 70.0744C84.0847 66.3714 86.13 63.7617 89.0568 63.7617C89.4444 63.7617 89.7968 63.797 90.079 63.8676L90.9609 64.0792C91.2436 64.1851 91.3141 64.2203 91.5258 64.2905ZM84.4022 65.8423H84.1905C83.4505 65.8423 83.0272 66.1951 82.3569 67.2173L82.5686 65.9124H80.5582L79.1836 74.3758H81.4057C82.2162 69.192 82.4279 68.3105 83.4858 68.3105H83.6269C83.8386 67.2878 84.1204 66.547 84.4732 65.8771L84.4022 65.8423ZM71.637 74.2699C71.0377 74.4816 70.5438 74.5521 70.0504 74.5521C68.9219 74.5521 68.2869 73.9176 68.2869 72.6837C68.2869 72.472 68.3222 72.1902 68.3575 71.9428L68.4986 71.0966L68.6044 70.4271L69.5565 64.6432H71.7429L71.4959 65.9128H72.6244L72.3422 67.9934H71.2137L70.6144 71.5199C70.5791 71.661 70.5791 71.7673 70.5791 71.8727C70.5791 72.296 70.7908 72.4724 71.3195 72.4724C71.5665 72.4724 71.7777 72.4724 71.9188 72.4019L71.637 74.2699ZM63.1384 68.5927C63.1384 69.651 63.6319 70.391 64.7956 70.9555C65.7125 71.3788 65.8536 71.5195 65.8536 71.8723C65.8536 72.4015 65.4655 72.648 64.584 72.648C63.9141 72.648 63.3144 72.5426 62.6093 72.3309L62.2918 74.2699L62.3976 74.3056L62.7856 74.3762C62.9263 74.411 63.1031 74.4467 63.385 74.4467C63.8784 74.5173 64.3018 74.5173 64.584 74.5173C66.9111 74.5173 68.0047 73.6353 68.0047 71.6963C68.0047 70.5321 67.5465 69.8619 66.4533 69.3335C65.5012 68.9102 65.3954 68.8048 65.3954 68.4167C65.3954 67.9585 65.7834 67.7469 66.4886 67.7469C66.9119 67.7469 67.5112 67.7821 68.0756 67.8527L68.3927 65.9132C67.8287 65.8074 66.9472 65.7369 66.4533 65.7369C63.9847 65.7364 63.1031 67.0413 63.1384 68.5927ZM108.417 74.3762H106.336L106.442 73.5648C105.843 74.1994 105.208 74.4816 104.396 74.4816C102.774 74.4816 101.717 73.107 101.717 70.9912C101.717 68.1698 103.374 65.7717 105.313 65.7717C106.195 65.7717 106.83 66.1598 107.43 66.9355L107.923 63.9734H110.11L108.417 74.3762ZM105.172 72.4015C106.196 72.4015 106.901 71.2024 106.901 69.5448C106.901 68.4516 106.512 67.8871 105.737 67.8871C104.749 67.8871 104.009 69.0509 104.009 70.7085C104.009 71.8374 104.397 72.4015 105.172 72.4015ZM78.4075 74.1994C77.6314 74.4467 76.9262 74.5521 76.1152 74.5521C73.6466 74.5521 72.377 73.2477 72.377 70.7438C72.377 67.8523 73.9994 65.7012 76.2211 65.7012C78.0547 65.7012 79.218 66.9002 79.218 68.7691C79.218 69.4041 79.1475 70.0038 78.9358 70.8849H74.5639C74.5286 70.9912 74.5286 71.0617 74.5286 71.1323C74.5286 72.1196 75.1988 72.6131 76.468 72.6131C77.279 72.6131 77.9841 72.472 78.7602 72.084L78.4075 74.1994ZM77.1732 69.1567V68.7338C77.1732 68.0287 76.7851 67.6406 76.1152 67.6406C75.4101 67.6406 74.9162 68.1698 74.7045 69.1567H77.1732ZM54.7104 74.3762H52.524L53.7936 66.371L50.9373 74.3762H49.4208L49.2444 66.4416L47.9047 74.3762H45.8594L47.5872 63.9734H50.7609L50.8667 70.4267L52.9822 63.9734H56.4381L54.7104 74.3762ZM60.1763 70.6027C59.9647 70.6027 59.8588 70.5678 59.6824 70.5678C58.4481 70.5678 57.8136 71.026 57.8136 71.8723C57.8136 72.4015 58.0958 72.7185 58.5893 72.7185C59.5061 72.7185 60.1411 71.8723 60.1763 70.6027ZM61.7983 74.3762H59.9643L59.9995 73.4942C59.4351 74.1994 58.6947 74.5173 57.672 74.5173C56.473 74.5173 55.662 73.6005 55.662 72.2251C55.662 70.1449 57.0723 68.9459 59.5409 68.9459C59.7879 68.9459 60.1054 68.9812 60.4577 69.016C60.5283 68.7342 60.5283 68.6284 60.5283 68.4873C60.5283 67.9233 60.1402 67.7116 59.1176 67.7116C58.483 67.7116 57.7774 67.7821 57.284 67.9232L56.9665 68.0291L56.7548 68.0644L57.0723 66.1602C58.1655 65.8427 58.9059 65.7369 59.7173 65.7369C61.6215 65.7369 62.6441 66.5831 62.6441 68.2051C62.6441 68.6284 62.6088 68.9459 62.4677 69.898L61.9738 72.8958L61.9033 73.4241L61.868 73.8474L61.8327 74.1653L61.7983 74.3762ZM95.0876 70.6027C94.8403 70.6027 94.7348 70.5678 94.5941 70.5678C93.3246 70.5678 92.6891 71.026 92.6891 71.8723C92.6891 72.4015 93.0071 72.7185 93.5005 72.7185C94.3825 72.7185 95.0519 71.8723 95.0876 70.6027ZM96.7096 74.3762H94.876L94.9108 73.4942C94.3468 74.1994 93.6064 74.5173 92.5837 74.5173C91.3847 74.5173 90.5733 73.6005 90.5733 72.2251C90.5733 70.1449 91.9836 68.9459 94.4522 68.9459C94.6996 68.9459 95.0171 68.9812 95.3342 69.016C95.4047 68.7342 95.4404 68.6284 95.4404 68.4873C95.4404 67.9233 95.0519 67.7116 94.0301 67.7116C93.3947 67.7116 92.6547 67.7821 92.1608 67.9232L91.8786 68.0291L91.6669 68.0644L91.984 66.1602C93.0776 65.8427 93.8176 65.7369 94.629 65.7369C96.5332 65.7369 97.5205 66.5831 97.5205 68.2051C97.5205 68.6284 97.5205 68.9459 97.3446 69.898L96.886 72.8958L96.8154 73.4241L96.7448 73.8474L96.71 74.1653L96.7096 74.3762ZM102.634 65.8423H102.422C101.682 65.8423 101.259 66.1951 100.588 67.2173L100.8 65.9124H98.7897L97.4496 74.3758H99.636C100.447 69.192 100.659 68.3105 101.717 68.3105H101.858C102.07 67.2878 102.352 66.547 102.704 65.8771L102.634 65.8423Z" fill="white"/>
<defs>
<filter id="filter0_d_6434_26182" x="0" y="0" width="156" height="138" filterUnits="userSpaceOnUse" color-interpolation-filters="sRGB">
<feFlood flood-opacity="0" result="BackgroundImageFix"/>
<feColorMatrix in="SourceAlpha" type="matrix" values="0 0 0 0 0 0 0 0 0 0 0 0 0 0 0 0 0 0 127 0" result="hardAlpha"/>
<feMorphology radius="1" operator="dilate" in="SourceAlpha" result="effect1_dropShadow_6434_26182"/>
<feOffset/>
<feGaussianBlur stdDeviation="4"/>
<feComposite in2="hardAlpha" operator="out"/>
<feColorMatrix type="matrix" values="0 0 0 0 0.0705882 0 0 0 0 0.207843 0 0 0 0 0.352941 0 0 0 0.04 0"/>
<feBlend mode="normal" in2="BackgroundImageFix" result="effect1_dropShadow_6434_26182"/>
<feBlend mode="normal" in="SourceGraphic" in2="effect1_dropShadow_6434_26182" result="shape"/>
</filter>
<linearGradient id="paint0_linear_6434_26182" x1="78" y1="9" x2="78" y2="129" gradientUnits="userSpaceOnUse">
<stop stop-color="#CC2131"/>
<stop offset="1" stop-color="#E9B040"/>
</linearGradient>
</defs>
</svg>
