<svg width="156" height="138" viewBox="0 0 156 138" fill="none" xmlns="http://www.w3.org/2000/svg">
<g opacity="0.16" filter="url(#filter0_d_6434_26181)">
<rect x="9" y="9" width="138" height="120" rx="8" fill="#12355A"/>
</g>
<path d="M68.8006 82.5774H73.328L74.1149 85.1021H76.8984L72.5747 72.8353H69.6198L65.2501 85.1037H67.9478L68.8006 82.5774ZM71.0559 75.605H71.0911L72.6099 80.4554H69.4835L71.0559 75.605ZM64.506 81.4689C64.506 80.2548 64.1141 79.0591 62.6106 78.4972C63.1219 78.2415 64.1141 77.7469 64.1141 75.9847C64.1141 74.72 63.3455 72.8384 60.3369 72.8384H54.375V85.1083H59.5699C62.0823 85.1083 62.7484 84.6811 63.4481 83.9937C64.0957 83.3644 64.506 82.4381 64.506 81.4689ZM56.8369 74.9604H59.7766C60.9371 74.9604 61.6552 75.2666 61.6552 76.2741C61.6552 77.2509 60.8544 77.6428 59.8424 77.6428H56.8369V74.9604ZM59.9787 82.9878H56.8369V79.7067H60.0996C61.0244 79.7067 61.9446 80.1216 61.9446 81.1933C61.943 82.4381 61.225 82.9878 59.9787 82.9878ZM96.6246 77.8618L101.92 85.1021H98.6226L94.8302 79.7205L93.6344 80.9514V85.1021H91.0714V72.8353H93.6344V77.8235L98.3179 72.8353H101.631L96.6246 77.8618ZM65.2516 91.9154C65.2516 90.7426 64.9699 90.5496 64.454 90.3231C65.0756 90.1133 65.4262 89.5208 65.4262 88.8241C65.4262 88.2822 65.1215 87.0496 63.4496 87.0496H60.2711V93.3331H61.5603V90.8758H62.9152C63.8875 90.8758 63.9411 91.2095 63.9411 92.0639C63.9411 92.71 63.9916 93.0376 64.0788 93.3316H65.5318V93.1678C65.2516 93.0621 65.2516 92.8325 65.2516 91.9154ZM63.0944 89.8193H61.5587V88.1352H63.1939C63.9625 88.1352 64.1125 88.622 64.1125 88.9573C64.111 89.5759 63.7803 89.8193 63.0944 89.8193ZM67.3538 62.098C67.3446 61.8163 67.3354 61.4764 67.3232 61.0844C67.2987 60.6863 67.4012 60.2546 67.4426 59.7662C67.4931 59.2762 67.5589 58.745 67.7442 58.203C67.9004 57.6564 68.0366 57.0562 68.3367 56.4974C68.4684 56.2095 68.6031 55.914 68.744 55.617C68.891 55.3246 69.0946 55.0597 69.2707 54.7734C69.6182 54.1855 70.0683 53.668 70.5292 53.1505C70.9747 52.61 71.5244 52.1982 72.025 51.722C72.5747 51.3331 73.0983 50.883 73.6602 50.5661C74.2129 50.217 74.758 49.9046 75.2954 49.6474C75.8251 49.3611 76.3503 49.1682 76.8295 48.9538C77.5705 48.666 78.2289 48.4425 78.7709 48.2832C78.5443 47.7259 78.3498 47.1457 78.2059 46.5271C78.0544 45.8902 77.9257 45.2395 77.9135 44.5C78.6254 44.699 79.221 44.9884 79.8013 45.2916C80.3785 45.5978 80.9052 45.9392 81.3982 46.3097C82.3934 47.0431 83.24 47.8898 84.0086 48.7977C84.592 49.4851 84.6425 50.4451 84.2092 51.1785L84.1189 51.3285C83.4131 52.509 82.5725 53.6067 81.5559 54.5897C81.0537 55.0827 80.4979 55.5435 79.8809 55.9676C79.5701 56.1759 79.244 56.378 78.9117 56.5724C78.5673 56.7607 78.2044 56.9337 77.8048 57.0868C77.7772 56.6612 77.7834 56.257 77.814 55.8666C77.8523 55.4823 77.9012 55.1056 77.961 54.7336C78.0926 54.0002 78.2809 53.3036 78.5229 52.6406C78.5474 52.5687 78.5764 52.5013 78.604 52.4309C78.3682 52.46 78.1232 52.4921 77.8568 52.5304C77.4419 52.6192 76.9658 52.6804 76.4927 52.8182C76.0058 52.9285 75.5082 53.0831 75.003 53.2668C74.4732 53.423 73.9986 53.6925 73.4596 53.9084C72.9865 54.2008 72.44 54.4412 71.9914 54.7979C71.5213 55.1378 71.0467 55.4808 70.6578 55.9049C70.4603 56.11 70.2306 56.2983 70.0515 56.5173C69.8816 56.7423 69.7101 56.9689 69.5432 57.1879C69.1727 57.615 68.9446 58.1096 68.6935 58.5674C68.4179 59.0175 68.251 59.486 68.1071 59.9254C67.9723 60.3648 67.7779 60.7629 67.7212 61.138C67.6493 61.5147 67.5865 61.8408 67.536 62.1118C67.4349 62.6584 67.3752 62.9722 67.3752 62.9722C67.3752 62.9722 67.3706 62.6538 67.3538 62.098ZM54.3765 87.0496H59.4872V88.1658H57.5841V93.3362H56.275V88.1658H54.3765V87.0496ZM68.1683 87.0496L65.9284 93.3331H67.3124L67.7488 92.0363H70.0668L70.471 93.3331H71.898L69.6856 87.0496H68.1683ZM68.1009 90.9523L68.9078 88.4689H68.9201L69.704 90.9523H68.1009ZM79.7048 65.8475C79.1827 66.1492 78.6637 66.3605 78.1921 66.587C77.4588 66.8963 76.8111 67.1382 76.2722 67.3143C76.5172 67.864 76.7269 68.4396 76.8907 69.0536C77.0546 69.6859 77.2046 70.332 77.2429 71.0685C76.5218 70.8924 75.9185 70.6199 75.3321 70.3351C74.7427 70.0472 74.2053 69.7227 73.7031 69.3659C72.6895 68.6632 71.8168 67.841 71.0207 66.9576C70.4159 66.287 70.3363 65.3301 70.7481 64.5829L70.8354 64.4329C71.506 63.231 72.3129 62.1087 73.2989 61.0967C73.7858 60.5868 74.3278 60.1107 74.9279 59.6682C75.2357 59.4508 75.5495 59.2395 75.8787 59.0359C76.2171 58.8368 76.5753 58.6516 76.9704 58.4893C77.0086 58.9119 77.0148 59.3176 76.9949 59.708C76.9673 60.0938 76.9321 60.472 76.8846 60.8456C76.7744 61.582 76.606 62.2832 76.3855 62.9554C76.361 63.0273 76.3319 63.0947 76.3105 63.1667C76.5432 63.1315 76.7897 63.0916 77.0546 63.0442C77.468 62.9447 77.9395 62.8696 78.4065 62.7165C78.8903 62.5925 79.3848 62.4241 79.8824 62.2235C80.4076 62.0536 80.8746 61.7688 81.4043 61.5376C81.8697 61.2299 82.4117 60.9757 82.845 60.6052C83.3059 60.2531 83.7698 59.8933 84.1434 59.46C84.3409 59.2487 84.5613 59.0527 84.7374 58.8307C84.8997 58.598 85.0635 58.3683 85.2228 58.1433C85.581 57.7038 85.7939 57.2047 86.0296 56.7393C86.293 56.28 86.4445 55.8084 86.5716 55.3644C86.6941 54.9204 86.8763 54.5177 86.9222 54.1411C86.982 53.7629 87.0325 53.4337 87.0769 53.1627C87.1703 52.6131 87.2147 52.2992 87.2147 52.2992C87.2147 52.2992 87.2392 52.6146 87.2683 53.1689C87.2836 53.4506 87.3019 53.792 87.328 54.1824C87.3617 54.579 87.2774 55.0153 87.2453 55.5037C87.2116 55.9937 87.1565 56.528 86.9911 57.0731C86.8503 57.6227 86.7309 58.2275 86.4491 58.794C86.3267 59.0864 86.1981 59.385 86.0694 59.6866C85.9286 59.9836 85.7372 60.2546 85.5688 60.547C85.2381 61.1457 84.8063 61.6739 84.3608 62.2052C83.9306 62.7563 83.3932 63.1881 82.9078 63.6765C82.3673 64.0822 81.856 64.5477 81.3048 64.8815C80.7704 65.2474 80.2315 65.5766 79.7048 65.8475ZM84.915 87.0496H89.3857V88.1658H86.2287V89.5835H88.9938V90.6951H86.2287V93.3377H84.915V87.0496ZM76.5799 87.0496H77.8063V93.3331H76.4911L73.9281 88.8517H73.9082V93.3331H72.6849V87.0496H74.0659L76.5631 91.4239H76.5784L76.5799 87.0496ZM101.089 91.9154C101.089 90.7426 100.804 90.5496 100.291 90.3231C100.91 90.1133 101.267 89.5208 101.267 88.8241C101.267 88.2822 100.959 87.0496 99.2871 87.0496H96.1117V93.3331H97.4008V90.8758H98.7558C99.725 90.8758 99.7816 91.2095 99.7816 92.0639C99.7816 92.71 99.8321 93.0376 99.9209 93.3316H101.369V93.1678C101.089 93.0621 101.089 92.8325 101.089 91.9154ZM98.9365 89.8193H97.3993V88.1352H99.0314C99.803 88.1352 99.9531 88.622 99.9531 88.9573C99.9531 89.5759 99.6208 89.8193 98.9365 89.8193ZM83.9122 91.4438C83.9122 93.3285 81.9846 93.5 81.4365 93.5C79.1429 93.5 78.7525 92.1818 78.7525 91.3994H80.008C80.0172 91.75 80.1932 92.4145 81.3415 92.4145C81.9585 92.4145 82.6521 92.2614 82.6521 91.6045C82.6521 91.1115 82.1775 90.9829 81.5145 90.8222L80.8424 90.6629C79.8258 90.4302 78.8474 90.199 78.8474 88.815C78.8474 88.1153 79.2225 86.8828 81.2619 86.8828C83.188 86.8828 83.7024 88.1413 83.7116 88.9114H82.4561C82.4209 88.6312 82.3153 87.9683 81.167 87.9683C80.6709 87.9683 80.0723 88.1505 80.0723 88.7185C80.0723 89.2084 80.4765 89.3141 80.7398 89.3769L82.2678 89.7535C83.1237 89.9617 83.9122 90.3154 83.9122 91.4438ZM91.5537 92.2216H95.0369V93.3362H90.2676V87.0527H94.8899V88.1673H91.5537V89.4871H94.6158V90.5986H91.5537V92.2216ZM80.8148 85.1083H78.4233V72.8399H81.1226L85.9944 81.3817H86.0266V72.8399H88.4181V85.1098H85.8582L80.8501 76.3629H80.8179L80.8148 85.1083Z" fill="#12355A"/>
<defs>
<filter id="filter0_d_6434_26181" x="0" y="0" width="156" height="138" filterUnits="userSpaceOnUse" color-interpolation-filters="sRGB">
<feFlood flood-opacity="0" result="BackgroundImageFix"/>
<feColorMatrix in="SourceAlpha" type="matrix" values="0 0 0 0 0 0 0 0 0 0 0 0 0 0 0 0 0 0 127 0" result="hardAlpha"/>
<feMorphology radius="1" operator="dilate" in="SourceAlpha" result="effect1_dropShadow_6434_26181"/>
<feOffset/>
<feGaussianBlur stdDeviation="4"/>
<feComposite in2="hardAlpha" operator="out"/>
<feColorMatrix type="matrix" values="0 0 0 0 0.0705882 0 0 0 0 0.207843 0 0 0 0 0.352941 0 0 0 0.04 0"/>
<feBlend mode="normal" in2="BackgroundImageFix" result="effect1_dropShadow_6434_26181"/>
<feBlend mode="normal" in="SourceGraphic" in2="effect1_dropShadow_6434_26181" result="shape"/>
</filter>
</defs>
</svg>
