<svg width="56" height="56" viewBox="0 0 56 56" fill="none" xmlns="http://www.w3.org/2000/svg">
<path d="M18.8006 41.5774H23.328L24.1149 44.1021H26.8984L22.5747 31.8353H19.6198L15.2501 44.1037H17.9478L18.8006 41.5774ZM21.0559 34.605H21.0911L22.6099 39.4554H19.4835L21.0559 34.605ZM14.506 40.4689C14.506 39.2548 14.1141 38.0591 12.6106 37.4972C13.1219 37.2415 14.1141 36.7469 14.1141 34.9847C14.1141 33.72 13.3455 31.8384 10.3369 31.8384H4.375V44.1083H9.56988C12.0823 44.1083 12.7484 43.6811 13.4481 42.9937C14.0957 42.3644 14.506 41.4381 14.506 40.4689ZM6.83694 33.9604H9.77657C10.9371 33.9604 11.6552 34.2666 11.6552 35.2741C11.6552 36.2509 10.8544 36.6428 9.84241 36.6428H6.83694V33.9604ZM9.97867 41.9878H6.83694V38.7067H10.0996C11.0244 38.7067 11.9446 39.1216 11.9446 40.1933C11.943 41.4381 11.225 41.9878 9.97867 41.9878ZM46.6246 36.8618L51.9205 44.1021H48.6226L44.8302 38.7205L43.6344 39.9514V44.1021H41.0714V31.8353H43.6344V36.8235L48.3179 31.8353H51.6311L46.6246 36.8618ZM15.2516 50.9154C15.2516 49.7426 14.9699 49.5496 14.454 49.3231C15.0756 49.1133 15.4262 48.5208 15.4262 47.8241C15.4262 47.2822 15.1215 46.0496 13.4496 46.0496H10.2711V52.3331H11.5603V49.8758H12.9152C13.8875 49.8758 13.9411 50.2095 13.9411 51.0639C13.9411 51.71 13.9916 52.0376 14.0788 52.3316H15.5318V52.1678C15.2516 52.0621 15.2516 51.8325 15.2516 50.9154ZM13.0944 48.8193H11.5587V47.1352H13.1939C13.9625 47.1352 14.1125 47.622 14.1125 47.9573C14.111 48.5759 13.7803 48.8193 13.0944 48.8193ZM17.3538 21.098C17.3446 20.8163 17.3354 20.4764 17.3232 20.0844C17.2987 19.6863 17.4012 19.2546 17.4426 18.7662C17.4931 18.2762 17.5589 17.745 17.7442 17.203C17.9004 16.6564 18.0366 16.0562 18.3367 15.4974C18.4684 15.2095 18.6031 14.914 18.744 14.617C18.891 14.3246 19.0946 14.0597 19.2707 13.7734C19.6182 13.1855 20.0683 12.668 20.5292 12.1505C20.9747 11.61 21.5244 11.1982 22.025 10.722C22.5747 10.3331 23.0983 9.88298 23.6602 9.56605C24.2129 9.21697 24.758 8.90464 25.2954 8.64742C25.8251 8.36111 26.3503 8.1682 26.8295 7.95385C27.5705 7.66601 28.2289 7.44248 28.7709 7.28325C28.5443 6.72594 28.3498 6.14567 28.2059 5.52712C28.0544 4.8902 27.9257 4.2395 27.9135 3.5C28.6254 3.69904 29.221 3.98841 29.8013 4.29156C30.3785 4.59777 30.9052 4.9392 31.3982 5.30971C32.3934 6.04309 33.24 6.88976 34.0086 7.79768C34.592 8.48513 34.6425 9.4451 34.2092 10.1785L34.1189 10.3285C33.4131 11.509 32.5725 12.6067 31.5559 13.5897C31.0537 14.0827 30.4979 14.5435 29.8809 14.9676C29.5701 15.1759 29.244 15.378 28.9117 15.5724C28.5673 15.7607 28.2044 15.9337 27.8048 16.0868C27.7772 15.6612 27.7834 15.257 27.814 14.8666C27.8523 14.4823 27.9012 14.1056 27.961 13.7336C28.0926 13.0002 28.2809 12.3036 28.5229 11.6406C28.5473 11.5687 28.5764 11.5013 28.604 11.4309C28.3682 11.46 28.1232 11.4921 27.8568 11.5304C27.4419 11.6192 26.9658 11.6804 26.4927 11.8182C26.0058 11.9285 25.5082 12.0831 25.003 12.2668C24.4732 12.423 23.9986 12.6925 23.4596 12.9084C22.9865 13.2008 22.44 13.4412 21.9914 13.7979C21.5213 14.1378 21.0467 14.4808 20.6578 14.9049C20.4603 15.11 20.2306 15.2983 20.0515 15.5173C19.8816 15.7423 19.7101 15.9689 19.5432 16.1879C19.1727 16.615 18.9446 17.1096 18.6935 17.5674C18.4179 18.0175 18.251 18.486 18.1071 18.9254C17.9723 19.3648 17.7779 19.7629 17.7212 20.138C17.6493 20.5147 17.5865 20.8408 17.536 21.1118C17.4349 21.6584 17.3752 21.9722 17.3752 21.9722C17.3752 21.9722 17.3706 21.6538 17.3538 21.098ZM4.37653 46.0496H9.4872V47.1658H7.5841V52.3362H6.27504V47.1658H4.37653V46.0496ZM18.1683 46.0496L15.9284 52.3331H17.3124L17.7488 51.0363H20.0668L20.471 52.3331H21.898L19.6856 46.0496H18.1683ZM18.1009 49.9523L18.9078 47.4689H18.9201L19.704 49.9523H18.1009ZM29.7048 24.8475C29.1827 25.1492 28.6637 25.3605 28.1921 25.587C27.4588 25.8963 26.8111 26.1382 26.2722 26.3143C26.5172 26.864 26.7269 27.4396 26.8907 28.0536C27.0546 28.6859 27.2046 29.332 27.2429 30.0685C26.5218 29.8924 25.9185 29.6199 25.3321 29.3351C24.7427 29.0472 24.2053 28.7227 23.7031 28.3659C22.6895 27.6632 21.8168 26.841 21.0207 25.9576C20.4159 25.287 20.3363 24.3301 20.7481 23.5829L20.8354 23.4329C21.506 22.231 22.3129 21.1087 23.2989 20.0967C23.7858 19.5868 24.3278 19.1107 24.9279 18.6682C25.2357 18.4508 25.5495 18.2395 25.8787 18.0359C26.2171 17.8368 26.5753 17.6516 26.9704 17.4893C27.0086 17.9119 27.0148 18.3176 26.9949 18.708C26.9673 19.0938 26.9321 19.472 26.8846 19.8456C26.7744 20.582 26.606 21.2832 26.3855 21.9554C26.361 22.0273 26.3319 22.0947 26.3105 22.1667C26.5432 22.1315 26.7897 22.0916 27.0546 22.0442C27.468 21.9447 27.9395 21.8696 28.4065 21.7165C28.8903 21.5925 29.3848 21.4241 29.8824 21.2235C30.4076 21.0536 30.8746 20.7688 31.4043 20.5376C31.8697 20.2299 32.4117 19.9757 32.845 19.6052C33.3059 19.2531 33.7698 18.8933 34.1434 18.46C34.3409 18.2487 34.5613 18.0527 34.7374 17.8307C34.8997 17.598 35.0635 17.3683 35.2228 17.1433C35.581 16.7038 35.7939 16.2047 36.0296 15.7393C36.293 15.28 36.4445 14.8084 36.5716 14.3644C36.6941 13.9204 36.8763 13.5177 36.9222 13.1411C36.982 12.7629 37.0325 12.4337 37.0769 12.1627C37.1703 11.6131 37.2147 11.2992 37.2147 11.2992C37.2147 11.2992 37.2392 11.6146 37.2683 12.1689C37.2836 12.4506 37.3019 12.792 37.328 13.1824C37.3617 13.579 37.2775 14.0153 37.2453 14.5037C37.2116 14.9937 37.1565 15.528 36.9911 16.0731C36.8503 16.6227 36.7309 17.2275 36.4491 17.794C36.3267 18.0864 36.1981 18.385 36.0694 18.6866C35.9286 18.9836 35.7372 19.2546 35.5688 19.547C35.2381 20.1457 34.8063 20.6739 34.3608 21.2052C33.9306 21.7563 33.3932 22.1881 32.9078 22.6765C32.3673 23.0822 31.856 23.5477 31.3048 23.8815C30.7704 24.2474 30.2315 24.5766 29.7048 24.8475ZM34.915 46.0496H39.3857V47.1658H36.2287V48.5835H38.9938V49.6951H36.2287V52.3377H34.915V46.0496ZM26.5799 46.0496H27.8063V52.3331H26.4911L23.9281 47.8517H23.9082V52.3331H22.6849V46.0496H24.0659L26.5631 50.4239H26.5784L26.5799 46.0496ZM51.0891 50.9154C51.0891 49.7426 50.8044 49.5496 50.2914 49.3231C50.91 49.1133 51.2667 48.5208 51.2667 47.8241C51.2667 47.2822 50.959 46.0496 49.2871 46.0496H46.1117V52.3331H47.4008V49.8758H48.7558C49.725 49.8758 49.7816 50.2095 49.7816 51.0639C49.7816 51.71 49.8321 52.0376 49.9209 52.3316H51.3693V52.1678C51.0891 52.0621 51.0891 51.8325 51.0891 50.9154ZM48.9365 48.8193H47.3993V47.1352H49.0314C49.803 47.1352 49.9531 47.622 49.9531 47.9573C49.9531 48.5759 49.6208 48.8193 48.9365 48.8193ZM33.9122 50.4438C33.9122 52.3285 31.9846 52.5 31.4365 52.5C29.1429 52.5 28.7525 51.1818 28.7525 50.3994H30.008C30.0172 50.75 30.1932 51.4145 31.3415 51.4145C31.9585 51.4145 32.6521 51.2614 32.6521 50.6045C32.6521 50.1115 32.1775 49.9829 31.5145 49.8222L30.8424 49.6629C29.8258 49.4302 28.8474 49.199 28.8474 47.815C28.8474 47.1153 29.2225 45.8828 31.2619 45.8828C33.188 45.8828 33.7024 47.1413 33.7116 47.9114H32.4561C32.4209 47.6312 32.3153 46.9683 31.167 46.9683C30.6709 46.9683 30.0723 47.1505 30.0723 47.7185C30.0723 48.2084 30.4765 48.3141 30.7398 48.3769L32.2678 48.7535C33.1237 48.9617 33.9122 49.3154 33.9122 50.4438ZM41.5537 51.2216H45.0369V52.3362H40.2676V46.0527H44.8899V47.1673H41.5537V48.4871H44.6158V49.5986H41.5537V51.2216ZM30.8148 44.1083H28.4233V31.8399H31.1226L35.9944 40.3817H36.0266V31.8399H38.4181V44.1098H35.8582L30.8501 35.3629H30.8179L30.8148 44.1083Z" fill="#12355A"/>
</svg>
