<svg xmlns="http://www.w3.org/2000/svg" width="40" height="40" viewBox="0 0 40 40" fill="none">
<path fill-rule="evenodd" clip-rule="evenodd" d="M19.4093 1.85812C19.3973 1.89415 19.1605 1.92775 18.7964 1.94499C18.4701 1.96044 18.2031 1.99002 18.2031 2.01066C18.2031 2.03134 18.0068 2.06341 17.7668 2.08187C17.5269 2.10039 17.3225 2.13965 17.3127 2.16912C17.3029 2.19854 17.1651 2.22267 17.0066 2.22267C16.7991 2.22267 16.7098 2.24494 16.6879 2.30203C16.666 2.35902 16.5769 2.3814 16.3721 2.3814C16.1537 2.3814 16.0867 2.40002 16.0867 2.46076C16.0867 2.51939 16.0254 2.54013 15.8524 2.54013C15.7147 2.54013 15.5854 2.57282 15.5387 2.61949C15.4951 2.66314 15.3879 2.69886 15.3006 2.69886C15.2133 2.69886 15.1062 2.73457 15.0625 2.77822C15.0189 2.82187 14.8981 2.85759 14.7942 2.85759C14.6615 2.85759 14.6052 2.88124 14.6052 2.93695C14.6052 2.9924 14.5494 3.01632 14.42 3.01632C14.3182 3.01632 14.2349 3.04013 14.2349 3.06923C14.2349 3.09833 14.1746 3.12214 14.1009 3.12214C14.0272 3.12214 13.9533 3.15785 13.9366 3.2015C13.9198 3.24515 13.8508 3.28087 13.7832 3.28087C13.7157 3.28087 13.6287 3.31256 13.59 3.35129C13.5512 3.39007 13.4543 3.43812 13.3745 3.45812C13.2948 3.47817 13.2296 3.5179 13.2296 3.54642C13.2296 3.57499 13.1581 3.59833 13.0708 3.59833C12.969 3.59833 12.9121 3.62526 12.9121 3.67351C12.9121 3.71484 12.8407 3.76436 12.7534 3.78351C12.6661 3.80267 12.5947 3.84029 12.5947 3.86706C12.5947 3.89388 12.5589 3.91579 12.5153 3.91579C12.4716 3.91579 12.4359 3.9515 12.4359 3.99515C12.4359 4.04806 12.383 4.07452 12.2772 4.07452C12.1899 4.07452 12.1185 4.09785 12.1185 4.12642C12.1185 4.15494 12.0589 4.19325 11.9862 4.2115C11.9134 4.22976 11.8539 4.26595 11.8539 4.29187C11.8539 4.31785 11.8182 4.33907 11.7745 4.33907C11.7309 4.33907 11.6952 4.37478 11.6952 4.41843C11.6952 4.47134 11.6423 4.4978 11.5364 4.4978C11.4306 4.4978 11.3777 4.52425 11.3777 4.57716C11.3777 4.62081 11.342 4.65653 11.2984 4.65653C11.2547 4.65653 11.219 4.69224 11.219 4.73589C11.219 4.78526 11.169 4.81526 11.0867 4.81526C11.0044 4.81526 10.9544 4.84526 10.9544 4.89462C10.9544 4.93827 10.9187 4.97399 10.8751 4.97399C10.8314 4.97399 10.7957 5.0097 10.7957 5.05335C10.7957 5.10272 10.7458 5.13272 10.6634 5.13272C10.5907 5.13272 10.5312 5.15727 10.5312 5.18727C10.5312 5.21732 10.4895 5.25722 10.4386 5.27595C10.3877 5.29468 10.2935 5.36536 10.2295 5.43298C10.1654 5.50066 10.088 5.556 10.0575 5.556C10.027 5.556 10.0021 5.58912 10.0021 5.62965C10.0021 5.67013 9.94253 5.71822 9.86978 5.73648C9.79703 5.75473 9.73751 5.79304 9.73751 5.82156C9.73751 5.85013 9.70179 5.87346 9.65814 5.87346C9.61449 5.87346 9.57878 5.90917 9.57878 5.95282C9.57878 5.99648 9.54306 6.03219 9.49941 6.03219C9.45576 6.03219 9.42005 6.0679 9.42005 6.11156C9.42005 6.15521 9.38433 6.19092 9.34068 6.19092C9.29703 6.19092 9.26132 6.22663 9.26132 6.27029C9.26132 6.31394 9.2256 6.34965 9.18195 6.34965C9.1383 6.34965 9.10259 6.38536 9.10259 6.42902C9.10259 6.47267 9.07692 6.50838 9.0456 6.50838C8.97158 6.50838 8.67931 6.80066 8.67931 6.87468C8.67931 6.906 8.64359 6.93166 8.59994 6.93166C8.55629 6.93166 8.52058 6.96737 8.52058 7.01103C8.52058 7.05468 8.48486 7.09039 8.44121 7.09039C8.39756 7.09039 8.36185 7.12611 8.36185 7.16976C8.36185 7.21341 8.32613 7.24912 8.28248 7.24912C8.23883 7.24912 8.20312 7.28484 8.20312 7.32849C8.20312 7.37214 8.1674 7.40785 8.12375 7.40785C8.0801 7.40785 8.04439 7.44357 8.04439 7.48722C8.04439 7.53087 8.02084 7.56658 7.99206 7.56658C7.92216 7.56658 7.72693 7.73632 7.72693 7.79716C7.72693 7.82372 7.67021 7.89806 7.60084 7.9623C7.53148 8.02658 7.45846 8.1305 7.43857 8.19325C7.41862 8.256 7.38015 8.30732 7.35301 8.30732C7.32587 8.30732 7.30365 8.34304 7.30365 8.38669C7.30365 8.43034 7.26793 8.46605 7.22428 8.46605C7.17492 8.46605 7.14492 8.516 7.14492 8.59833C7.14492 8.68066 7.11492 8.7306 7.06555 8.7306C7.0219 8.7306 6.98619 8.76378 6.98619 8.80431C6.98619 8.84484 6.95047 8.89171 6.90682 8.90849C6.86317 8.92521 6.82746 8.97536 6.82746 9.01997C6.82746 9.06452 6.80412 9.10097 6.77555 9.10097C6.74703 9.10097 6.70873 9.1605 6.69047 9.23325C6.67222 9.306 6.63793 9.36552 6.61428 9.36552C6.59063 9.36552 6.5556 9.43695 6.53645 9.52425C6.5173 9.61156 6.47968 9.68298 6.45291 9.68298C6.42608 9.68298 6.40417 9.86156 6.40417 10.0798C6.40417 10.2981 6.42492 10.4766 6.45031 10.4766C6.47571 10.4766 6.51169 10.5719 6.53031 10.6883C6.54893 10.8047 6.58767 10.8999 6.61645 10.8999C6.64518 10.8999 6.66872 10.9356 6.66872 10.9793C6.66872 11.0229 6.70169 11.0586 6.7419 11.0586C6.78216 11.0586 6.82946 11.1122 6.84703 11.1777C6.90544 11.3957 6.88492 11.4819 6.77454 11.4819C6.71576 11.4819 6.66872 11.5172 6.66872 11.5613C6.66872 11.6049 6.64492 11.6407 6.61581 11.6407C6.58671 11.6407 6.5629 11.6764 6.5629 11.72C6.5629 11.7637 6.52719 11.7994 6.48354 11.7994C6.43063 11.7994 6.40417 11.8523 6.40417 11.9581C6.40417 12.0639 6.37772 12.1168 6.32481 12.1168C6.2764 12.1168 6.24544 12.1662 6.24544 12.2435C6.24544 12.3131 6.20973 12.3838 6.16608 12.4005C6.12243 12.4173 6.08671 12.4893 6.08671 12.5605C6.08671 12.6318 6.06232 12.6982 6.03254 12.7081C6.00275 12.718 5.96301 12.821 5.94418 12.9369C5.92539 13.0528 5.8783 13.1793 5.83962 13.2181C5.80089 13.2567 5.76925 13.3344 5.76925 13.3904C5.76925 13.4466 5.74851 13.4925 5.72312 13.4925C5.69772 13.4925 5.66174 13.5877 5.64312 13.7041C5.62449 13.8205 5.58576 13.9158 5.55698 13.9158C5.52825 13.9158 5.5047 13.9855 5.5047 14.0708C5.5047 14.1559 5.47206 14.2583 5.43217 14.2982C5.39052 14.3399 5.34978 14.5259 5.33645 14.7352C5.32269 14.9512 5.28761 15.1081 5.25026 15.1205C5.2156 15.1321 5.18724 15.1972 5.18724 15.2652C5.18724 15.3596 5.14968 15.3971 5.02851 15.4237C4.94121 15.4429 4.86978 15.4805 4.86978 15.5073C4.86978 15.5341 4.73883 15.556 4.57878 15.556C4.35539 15.556 4.28777 15.5744 4.28777 15.6354C4.28777 15.6883 4.23486 15.7147 4.12904 15.7147C4.02322 15.7147 3.97031 15.7412 3.97031 15.7941C3.97031 15.8435 3.92036 15.8735 3.83804 15.8735C3.75571 15.8735 3.70576 15.9035 3.70576 15.9528C3.70576 15.9965 3.66819 16.0322 3.62232 16.0322C3.52835 16.0322 3.22957 16.3109 3.22957 16.3985C3.22957 16.4298 3.19386 16.4555 3.15021 16.4555C3.09735 16.4555 3.07084 16.5083 3.07084 16.6136C3.07084 16.7571 3.05137 16.7748 2.8592 16.8055C2.7428 16.8241 2.64756 16.8601 2.64756 16.8855C2.64756 16.9109 2.54042 16.9317 2.40947 16.9317C2.23312 16.9317 2.17137 16.9522 2.17137 17.011C2.17137 17.0639 2.11846 17.0904 2.01264 17.0904C1.90682 17.0904 1.85391 17.1168 1.85391 17.1698C1.85391 17.2134 1.8182 17.2491 1.77454 17.2491C1.73089 17.2491 1.69518 17.2848 1.69518 17.3285C1.69518 17.3721 1.65946 17.4079 1.61581 17.4079C1.57216 17.4079 1.53645 17.4436 1.53645 17.4872C1.53645 17.5309 1.51423 17.5666 1.48708 17.5666C1.45994 17.5666 1.42105 17.6201 1.40063 17.6856C1.38015 17.7511 1.33692 17.8217 1.30444 17.8424C1.22211 17.895 1.22111 21.364 1.30343 21.4176C1.33534 21.4384 1.37745 21.5209 1.39703 21.601C1.41661 21.681 1.45602 21.7465 1.48454 21.7465C1.51311 21.7465 1.53645 21.7738 1.53645 21.8073C1.53645 21.9041 1.8837 22.2148 2.03417 22.2526C2.10962 22.2716 2.17137 22.3083 2.17137 22.3342C2.17137 22.3602 2.2428 22.3814 2.3301 22.3814C2.43592 22.3814 2.48883 22.4079 2.48883 22.4608C2.48883 22.5217 2.55645 22.5401 2.77984 22.5401C3.00322 22.5401 3.07084 22.5585 3.07084 22.6195C3.07084 22.6631 3.09275 22.6989 3.11957 22.6989C3.14634 22.6989 3.18396 22.7703 3.20312 22.8576C3.22227 22.9449 3.26174 23.0163 3.29074 23.0163C3.31978 23.0163 3.41497 23.0877 3.50227 23.175C3.58957 23.2624 3.69486 23.3338 3.73629 23.3338C3.77772 23.3338 3.81158 23.3576 3.81158 23.3867C3.81158 23.4158 3.8473 23.4396 3.89095 23.4396C3.9346 23.4396 3.97031 23.4753 3.97031 23.519C3.97031 23.5763 4.02909 23.5983 4.18195 23.5983C4.33481 23.5983 4.39359 23.6204 4.39359 23.6777C4.39359 23.7449 4.5229 23.7571 5.24015 23.7571C5.9574 23.7571 6.08671 23.7449 6.08671 23.6777C6.08671 23.6248 6.13962 23.5983 6.24544 23.5983C6.33275 23.5983 6.40417 23.5771 6.40417 23.5511C6.40417 23.5252 6.46846 23.4879 6.54698 23.4681C6.62555 23.4484 6.74349 23.3744 6.80904 23.3037C6.8746 23.2329 6.95317 23.175 6.98365 23.175C7.01418 23.175 7.03909 23.1501 7.03909 23.1196C7.03909 23.0891 7.09862 23.009 7.17137 22.9416C7.24412 22.8741 7.30365 22.792 7.30365 22.7589C7.30365 22.7259 7.33936 22.6989 7.38301 22.6989C7.42666 22.6989 7.46238 22.6734 7.46238 22.6422C7.46238 22.611 7.49809 22.5498 7.54174 22.5061C7.58539 22.4625 7.62111 22.357 7.62111 22.2718C7.62111 22.1693 7.64798 22.1168 7.70047 22.1168C7.76026 22.1168 7.77984 22.0527 7.77984 21.8567C7.77984 21.6956 7.80502 21.5882 7.84597 21.5745C7.89724 21.5574 7.91211 21.121 7.91211 19.6301C7.91211 18.1392 7.89724 17.7028 7.84597 17.6856C7.80661 17.6725 7.77984 17.5706 7.77984 17.4337C7.77984 17.2999 7.74666 17.1706 7.70047 17.1244C7.65682 17.0808 7.62111 16.9838 7.62111 16.909C7.62111 16.8233 7.59169 16.7729 7.54174 16.7729C7.49809 16.7729 7.46238 16.7372 7.46238 16.6936C7.46238 16.6499 7.42666 16.6142 7.38301 16.6142C7.33936 16.6142 7.30365 16.5674 7.30365 16.5101C7.30365 16.3753 6.96052 16.0322 6.82571 16.0322C6.76846 16.0322 6.72163 15.9965 6.72163 15.9528C6.72163 15.9092 6.68592 15.8735 6.64227 15.8735C6.59862 15.8735 6.5629 15.8377 6.5629 15.7941C6.5629 15.7412 6.50999 15.7147 6.40417 15.7147C6.29835 15.7147 6.24544 15.6883 6.24544 15.6354C6.24544 15.5784 6.18735 15.556 6.03999 15.556C5.87158 15.556 5.82878 15.5345 5.80269 15.437C5.78275 15.3623 5.80015 15.296 5.84946 15.2592C5.89264 15.2268 5.92798 15.1488 5.92798 15.0855C5.92798 15.0223 5.9637 14.957 6.00735 14.9402C6.05872 14.9205 6.08671 14.8385 6.08671 14.7075C6.08671 14.5964 6.12243 14.4697 6.16608 14.426C6.21063 14.3814 6.24544 14.2521 6.24544 14.1312C6.24544 13.975 6.26724 13.9158 6.32481 13.9158C6.37476 13.9158 6.40417 13.8654 6.40417 13.7798C6.40417 13.7049 6.43989 13.608 6.48354 13.5643C6.52719 13.5207 6.5629 13.4177 6.5629 13.3357C6.5629 13.2518 6.59767 13.173 6.64227 13.1559C6.68592 13.1392 6.72163 13.0652 6.72163 12.9915C6.72163 12.9179 6.74354 12.8576 6.77037 12.8576C6.79714 12.8576 6.83476 12.7862 6.85391 12.6989C6.87306 12.6116 6.91068 12.5401 6.93745 12.5401C6.96428 12.5401 6.98619 12.4799 6.98619 12.4062C6.98619 12.3325 7.0219 12.2585 7.06555 12.2418C7.12465 12.2191 7.14492 12.1249 7.14492 11.8731V11.5348H7.38301C7.51396 11.5348 7.62111 11.5586 7.62111 11.5877C7.62111 11.6168 7.75206 11.6407 7.91211 11.6407C8.07216 11.6407 8.20312 11.6183 8.20312 11.591C8.20312 11.5637 8.31026 11.5253 8.44121 11.5056C8.57216 11.486 8.67931 11.4488 8.67931 11.423C8.67931 11.3972 8.71317 11.3761 8.7546 11.3761C8.85232 11.3761 9.1555 11.0729 9.1555 10.9752C9.1555 10.9338 9.19121 10.8999 9.23486 10.8999C9.27851 10.8999 9.31423 10.8642 9.31423 10.8205C9.31423 10.7769 9.33804 10.7412 9.36714 10.7412C9.39624 10.7412 9.42005 10.7055 9.42005 10.6618C9.42005 10.6182 9.45576 10.5825 9.49941 10.5825C9.54878 10.5825 9.57878 10.5325 9.57878 10.4502C9.57878 10.3679 9.60878 10.3179 9.65814 10.3179C9.70179 10.3179 9.73751 10.2822 9.73751 10.2385C9.73751 10.1949 9.77322 10.1592 9.81687 10.1592C9.86052 10.1592 9.89624 10.1343 9.89624 10.1037C9.89624 10.0732 9.95576 9.99314 10.0285 9.92574C10.1013 9.85828 10.1608 9.78404 10.1608 9.76071C10.1608 9.73737 10.1963 9.6806 10.2398 9.63452C10.2832 9.58843 10.3904 9.47515 10.4779 9.38282C10.5654 9.2905 10.637 9.18928 10.637 9.15796C10.637 9.12663 10.6727 9.10097 10.7163 9.10097C10.76 9.10097 10.7957 9.06526 10.7957 9.02161C10.7957 8.97796 10.8314 8.94224 10.8751 8.94224C10.9187 8.94224 10.9544 8.90653 10.9544 8.86288C10.9544 8.81923 10.9902 8.78351 11.0338 8.78351C11.0775 8.78351 11.1132 8.7478 11.1132 8.70415C11.1132 8.6605 11.1489 8.62478 11.1925 8.62478C11.2362 8.62478 11.2719 8.58907 11.2719 8.54542C11.2719 8.50177 11.2976 8.46605 11.3289 8.46605C11.4006 8.46605 11.6952 8.17489 11.6952 8.10394C11.6952 8.07494 11.7666 8.03547 11.8539 8.01632C11.9412 7.99716 12.0126 7.95954 12.0126 7.93277C12.0126 7.90595 12.0484 7.88404 12.092 7.88404C12.1357 7.88404 12.1714 7.84833 12.1714 7.80468C12.1714 7.76103 12.2071 7.72531 12.2507 7.72531C12.2944 7.72531 12.3301 7.69219 12.3301 7.65166C12.3301 7.61118 12.3896 7.56309 12.4624 7.54483C12.5351 7.52658 12.5947 7.48827 12.5947 7.45976C12.5947 7.43118 12.6304 7.40785 12.674 7.40785C12.7177 7.40785 12.7534 7.37214 12.7534 7.32849C12.7534 7.28484 12.7891 7.24912 12.8327 7.24912C12.8764 7.24912 12.9121 7.22722 12.9121 7.20039C12.9121 7.17362 12.9835 7.136 13.0708 7.11685C13.1581 7.09769 13.2296 7.06007 13.2296 7.0333C13.2296 7.00647 13.2653 6.98457 13.3089 6.98457C13.3526 6.98457 13.3883 6.94886 13.3883 6.90521C13.3883 6.85584 13.4382 6.82584 13.5206 6.82584C13.6029 6.82584 13.6529 6.79584 13.6529 6.74648C13.6529 6.69357 13.7058 6.66711 13.8116 6.66711C13.9174 6.66711 13.9703 6.64066 13.9703 6.58775C13.9703 6.53812 14.0205 6.50838 14.1042 6.50838C14.1779 6.50838 14.2519 6.47267 14.2686 6.42902C14.2854 6.38536 14.3561 6.34965 14.4257 6.34965C14.503 6.34965 14.5523 6.3187 14.5523 6.27029C14.5523 6.21737 14.6052 6.19092 14.7111 6.19092C14.7984 6.19092 14.8698 6.16902 14.8698 6.14219C14.8698 6.11542 14.9412 6.0778 15.0285 6.05864C15.1158 6.03949 15.1872 6.00489 15.1872 5.98182C15.1872 5.95875 15.2825 5.92468 15.3989 5.90605C15.5153 5.88743 15.6105 5.8487 15.6105 5.81992C15.6105 5.79118 15.6827 5.76764 15.7709 5.76764C15.8647 5.76764 15.944 5.73468 15.9617 5.68827C15.9816 5.63653 16.0639 5.60891 16.1982 5.60891C16.346 5.60891 16.4042 5.58648 16.4042 5.52954C16.4042 5.47076 16.4659 5.45018 16.6423 5.45018C16.8186 5.45018 16.8804 5.4296 16.8804 5.37081C16.8804 5.30986 16.948 5.29145 17.1714 5.29145C17.3948 5.29145 17.4624 5.27304 17.4624 5.21208C17.4624 5.14917 17.5383 5.13272 17.8284 5.13272C18.0495 5.13272 18.2021 5.10949 18.2139 5.07399C18.2259 5.03796 18.4626 5.00436 18.8268 4.98711C19.1531 4.97166 19.42 4.93854 19.42 4.91357C19.42 4.88859 19.932 4.86817 20.5576 4.86817C21.1833 4.86817 21.6952 4.88886 21.6952 4.91415C21.6952 4.93944 21.9499 4.97145 22.2612 4.98531C22.6219 5.00134 22.8347 5.03267 22.8477 5.07161C22.8606 5.1105 23.0107 5.13272 23.2604 5.13272C23.574 5.13272 23.6529 5.14864 23.6529 5.21208C23.6529 5.27304 23.7205 5.29145 23.9439 5.29145C24.1672 5.29145 24.2349 5.30986 24.2349 5.37081C24.2349 5.4296 24.2966 5.45018 24.473 5.45018C24.6493 5.45018 24.7111 5.47076 24.7111 5.52954C24.7111 5.58648 24.7692 5.60891 24.917 5.60891C25.0513 5.60891 25.1336 5.63653 25.1535 5.68827C25.1702 5.73193 25.2442 5.76764 25.3179 5.76764C25.3915 5.76764 25.4518 5.79118 25.4518 5.81992C25.4518 5.8487 25.547 5.88743 25.6634 5.90605C25.7798 5.92468 25.8751 5.96066 25.8751 5.98605C25.8751 6.01145 25.921 6.03219 25.9771 6.03219C26.0332 6.03219 26.1149 6.0679 26.1585 6.11156C26.2022 6.15521 26.2991 6.19092 26.374 6.19092C26.4596 6.19092 26.51 6.22034 26.51 6.27029C26.51 6.32319 26.5629 6.34965 26.6687 6.34965C26.7745 6.34965 26.8275 6.37611 26.8275 6.42902C26.8275 6.47743 26.8768 6.50838 26.9541 6.50838C27.0237 6.50838 27.0944 6.54409 27.1112 6.58775C27.1279 6.6314 27.178 6.66711 27.2226 6.66711C27.2672 6.66711 27.3036 6.69044 27.3036 6.71901C27.3036 6.74753 27.3632 6.78584 27.4359 6.80409C27.5087 6.82235 27.5682 6.85663 27.5682 6.88028C27.5682 6.90394 27.6396 6.93896 27.7269 6.95812C27.8142 6.97727 27.8857 7.0123 27.8857 7.03595C27.8857 7.0596 27.9452 7.09388 28.0179 7.11214C28.0907 7.13039 28.1502 7.1687 28.1502 7.19722C28.1502 7.22579 28.1859 7.24912 28.2296 7.24912C28.2732 7.24912 28.3089 7.28484 28.3089 7.32849C28.3089 7.37256 28.356 7.40785 28.4148 7.40785C28.473 7.40785 28.5206 7.43118 28.5206 7.45976C28.5206 7.48827 28.5801 7.52658 28.6529 7.54483C28.7256 7.56309 28.7851 7.61118 28.7851 7.65166C28.7851 7.69219 28.8208 7.72531 28.8645 7.72531C28.9081 7.72531 28.9439 7.76103 28.9439 7.80468C28.9439 7.84833 28.9796 7.88404 29.0232 7.88404C29.0669 7.88404 29.1026 7.90737 29.1026 7.93595C29.1026 7.96446 29.1621 8.00277 29.2349 8.02103C29.3076 8.03928 29.3671 8.08738 29.3671 8.12785C29.3671 8.16838 29.3921 8.2015 29.4226 8.2015C29.4531 8.2015 29.5332 8.26103 29.6006 8.33378C29.668 8.40653 29.7502 8.46605 29.7833 8.46605C29.8163 8.46605 29.8433 8.50177 29.8433 8.54542C29.8433 8.58907 29.879 8.62478 29.9227 8.62478C29.9663 8.62478 30.0021 8.6605 30.0021 8.70415C30.0021 8.7478 30.0378 8.78351 30.0814 8.78351C30.1251 8.78351 30.1608 8.80923 30.1608 8.84065C30.1608 8.87208 30.2977 9.03801 30.465 9.20944C30.8682 9.6224 30.9015 9.66447 30.9015 9.76013C30.9015 9.80499 30.9372 9.84171 30.9809 9.84171C31.0245 9.84171 31.0603 9.87743 31.0603 9.92108C31.0603 9.96473 31.096 10.0004 31.1396 10.0004C31.1833 10.0004 31.219 10.0261 31.219 10.0574C31.219 10.0888 31.2904 10.1858 31.3777 10.2731C31.465 10.3604 31.5364 10.4657 31.5364 10.5072C31.5364 10.5486 31.5603 10.5825 31.5894 10.5825C31.6185 10.5825 31.6423 10.6182 31.6423 10.6618C31.6423 10.7055 31.6754 10.7412 31.7159 10.7412C31.7564 10.7412 31.8045 10.8007 31.8227 10.8735C31.841 10.9462 31.8793 11.0057 31.9078 11.0057C31.9364 11.0057 31.9597 11.0414 31.9597 11.0851C31.9597 11.1288 31.9954 11.1645 32.0391 11.1645C32.0827 11.1645 32.1185 11.1983 32.1185 11.2396C32.1185 11.281 32.1899 11.3305 32.2772 11.3497C32.3645 11.3688 32.4359 11.4045 32.4359 11.429C32.4359 11.4535 32.5073 11.4892 32.5947 11.5084C32.682 11.5275 32.7534 11.5652 32.7534 11.5919C32.7534 11.6188 32.92 11.6407 33.1238 11.6407C33.3275 11.6407 33.4941 11.6199 33.4941 11.5945C33.4941 11.5691 33.592 11.5327 33.7115 11.5136C33.9638 11.4732 34.352 11.1258 34.412 10.8867C34.4321 10.8067 34.4719 10.7412 34.5004 10.7412C34.529 10.7412 34.5523 10.6698 34.5523 10.5825C34.5523 10.4766 34.5788 10.4237 34.6317 10.4237C34.6933 10.4237 34.7111 10.3536 34.7111 10.11C34.7111 9.90177 34.6844 9.7697 34.6317 9.717C34.588 9.67335 34.5523 9.57642 34.5523 9.50156C34.5523 9.41589 34.5229 9.36552 34.473 9.36552C34.4293 9.36552 34.3936 9.33849 34.3936 9.30547C34.3936 9.2724 34.3369 9.19277 34.2675 9.12854C34.1981 9.06425 34.1251 8.96034 34.1052 8.89759C34.0853 8.83484 34.0468 8.78351 34.0197 8.78351C33.9925 8.78351 33.9703 8.74706 33.9703 8.70251C33.9703 8.6579 33.9368 8.60859 33.8957 8.59282C33.8547 8.57711 33.8066 8.50642 33.7889 8.43579C33.7712 8.3651 33.7333 8.30732 33.7048 8.30732C33.6762 8.30732 33.6529 8.27161 33.6529 8.22796C33.6529 8.18431 33.6171 8.14859 33.5735 8.14859C33.5298 8.14859 33.4941 8.11288 33.4941 8.06923C33.4941 8.02558 33.4584 7.98986 33.4148 7.98986C33.3711 7.98986 33.3354 7.95415 33.3354 7.9105C33.3354 7.86685 33.3132 7.83113 33.286 7.83113C33.2589 7.83113 33.2204 7.77981 33.2005 7.71706C33.1806 7.65431 33.1076 7.55039 33.0382 7.48611C32.9688 7.42187 32.9121 7.34224 32.9121 7.30917C32.9121 7.27616 32.8764 7.24912 32.8327 7.24912C32.7891 7.24912 32.7534 7.21341 32.7534 7.16976C32.7534 7.12611 32.7177 7.09039 32.674 7.09039C32.6304 7.09039 32.5947 7.05468 32.5947 7.01103C32.5947 6.96737 32.5589 6.93166 32.5153 6.93166C32.4716 6.93166 32.4359 6.89595 32.4359 6.8523C32.4359 6.80864 32.4002 6.77293 32.3566 6.77293C32.3129 6.77293 32.2772 6.73722 32.2772 6.69357C32.2772 6.64991 32.2515 6.6142 32.2202 6.6142C32.1462 6.6142 31.8539 6.32193 31.8539 6.2479C31.8539 6.21658 31.8182 6.19092 31.7745 6.19092C31.7309 6.19092 31.6952 6.15521 31.6952 6.11156C31.6952 6.0679 31.662 6.03219 31.6215 6.03219C31.5809 6.03219 31.5341 5.99648 31.5173 5.95282C31.5006 5.90917 31.4266 5.87346 31.3529 5.87346C31.2691 5.87346 31.219 5.84372 31.219 5.79409C31.219 5.75044 31.1833 5.71473 31.1396 5.71473C31.096 5.71473 31.0603 5.68923 31.0603 5.65806C31.0603 5.58404 30.9253 5.45018 30.8507 5.45018C30.8186 5.45018 30.7795 5.41663 30.7638 5.37558C30.748 5.33457 30.6773 5.28648 30.6067 5.26875C30.536 5.25103 30.4782 5.21314 30.4782 5.18462C30.4782 5.15605 30.4425 5.13272 30.3989 5.13272C30.3552 5.13272 30.3195 5.097 30.3195 5.05335C30.3195 5.0097 30.2838 4.97399 30.2402 4.97399C30.1965 4.97399 30.1608 4.93827 30.1608 4.89462C30.1608 4.84621 30.1114 4.81526 30.0342 4.81526C29.9645 4.81526 29.8939 4.77954 29.8771 4.73589C29.8604 4.69224 29.8102 4.65653 29.7656 4.65653C29.7211 4.65653 29.6846 4.62081 29.6846 4.57716C29.6846 4.53245 29.6373 4.4978 29.5762 4.4978C29.5167 4.4978 29.4127 4.43827 29.3453 4.36552C29.2779 4.29277 29.1712 4.23325 29.1081 4.23325C29.045 4.23325 28.9797 4.19753 28.963 4.15388C28.9462 4.11023 28.8755 4.07452 28.8059 4.07452C28.7287 4.07452 28.6793 4.04357 28.6793 3.99515C28.6793 3.95108 28.6323 3.91579 28.5735 3.91579C28.5153 3.91579 28.4677 3.89245 28.4677 3.86388C28.4677 3.83536 28.4081 3.79706 28.3354 3.7788C28.2626 3.76055 28.2031 3.72462 28.2031 3.69902C28.2031 3.67346 28.1094 3.63748 27.9948 3.61917C27.8802 3.60087 27.7738 3.55293 27.7583 3.51272C27.7429 3.47251 27.6725 3.4396 27.6019 3.4396C27.5314 3.4396 27.46 3.40388 27.4432 3.36023C27.4265 3.31658 27.3525 3.28087 27.2788 3.28087C27.2052 3.28087 27.1449 3.25896 27.1449 3.23214C27.1449 3.20536 27.0735 3.16775 26.9862 3.14859C26.8989 3.12944 26.8275 3.09182 26.8275 3.06505C26.8275 3.03822 26.7322 3.01632 26.6158 3.01632C26.463 3.01632 26.4042 2.99425 26.4042 2.93695C26.4042 2.87817 26.3424 2.85759 26.1661 2.85759C25.9897 2.85759 25.928 2.837 25.928 2.77822C25.928 2.72129 25.8698 2.69886 25.722 2.69886C25.5877 2.69886 25.5054 2.67124 25.4856 2.61949C25.4657 2.56759 25.3832 2.54013 25.2475 2.54013C25.1117 2.54013 25.0293 2.51267 25.0094 2.46076C24.988 2.40499 24.901 2.3814 24.7171 2.3814C24.57 2.3814 24.4466 2.35531 24.4354 2.32177C24.4245 2.28896 24.2856 2.24997 24.1268 2.23505C23.968 2.22013 23.8245 2.18706 23.8079 2.1615C23.7913 2.13589 23.583 2.09997 23.3449 2.08161C23.1069 2.06325 22.9121 2.03007 22.9121 2.00785C22.9121 1.98563 22.6462 1.95944 22.3212 1.94954C21.9088 1.93706 21.7237 1.91166 21.7084 1.86552C21.6787 1.77637 19.4389 1.76917 19.4093 1.85812ZM19.4112 8.25367C19.4015 8.2824 19.2004 8.31552 18.9644 8.32727C18.7283 8.33907 18.4858 8.3751 18.4255 8.40737C18.3652 8.43965 18.1834 8.46605 18.0214 8.46605C17.7949 8.46605 17.7269 8.48436 17.7269 8.54542C17.7269 8.60245 17.6686 8.62478 17.5197 8.62478C17.4057 8.62478 17.3043 8.64917 17.2944 8.67896C17.2845 8.70875 17.1815 8.74849 17.0656 8.76732C16.9497 8.78611 16.8232 8.8332 16.7844 8.87187C16.7458 8.9106 16.6469 8.94224 16.5648 8.94224C16.4809 8.94224 16.4022 8.977 16.385 9.02161C16.3683 9.06526 16.2943 9.10097 16.2206 9.10097C16.147 9.10097 16.0867 9.12288 16.0867 9.1497C16.0867 9.17648 16.0153 9.21409 15.928 9.23325C15.8407 9.2524 15.7693 9.29002 15.7693 9.31679C15.7693 9.34362 15.709 9.36552 15.6353 9.36552C15.5616 9.36552 15.4877 9.40124 15.4709 9.44489C15.4542 9.48854 15.3835 9.52425 15.3139 9.52425C15.2366 9.52425 15.1872 9.55521 15.1872 9.60362C15.1872 9.65653 15.1343 9.68298 15.0285 9.68298C14.9412 9.68298 14.8698 9.70632 14.8698 9.73489C14.8698 9.76341 14.812 9.80129 14.7413 9.81902C14.6707 9.83674 14.6 9.88484 14.5843 9.92584C14.5685 9.9669 14.4954 10.0004 14.4217 10.0004C14.3379 10.0004 14.2878 10.0302 14.2878 10.0798C14.2878 10.1235 14.2521 10.1592 14.2084 10.1592C14.1648 10.1592 14.129 10.1804 14.129 10.2064C14.129 10.2323 14.0665 10.2692 13.99 10.2884C13.8419 10.3256 13.547 10.5891 13.547 10.6842C13.547 10.7155 13.4994 10.7412 13.4412 10.7412C13.383 10.7412 13.3354 10.7645 13.3354 10.7931C13.3354 10.8216 13.2759 10.8599 13.2031 10.8782C13.1304 10.8964 13.0708 10.9445 13.0708 10.985C13.0708 11.0255 13.0351 11.0586 12.9915 11.0586C12.9478 11.0586 12.9121 11.0944 12.9121 11.138C12.9121 11.1817 12.8764 11.2174 12.8327 11.2174C12.7891 11.2174 12.7534 11.2531 12.7534 11.2967C12.7534 11.3404 12.7279 11.3761 12.6967 11.3761C12.6234 11.3761 12.4888 11.5107 12.4888 11.584C12.4888 11.6152 12.4557 11.6407 12.4152 11.6407C12.3747 11.6407 12.3266 11.7002 12.3084 11.7729C12.2901 11.8457 12.2518 11.9052 12.2233 11.9052C12.1947 11.9052 12.1714 11.9417 12.1714 11.9862C12.1714 12.0308 12.1357 12.081 12.092 12.0977C12.0484 12.1145 12.0126 12.1613 12.0126 12.2019C12.0126 12.2424 11.9769 12.2756 11.9333 12.2756C11.8896 12.2756 11.8539 12.3113 11.8539 12.3549C11.8539 12.3986 11.8182 12.4343 11.7745 12.4343C11.7309 12.4343 11.6952 12.47 11.6952 12.5137C11.6952 12.5573 11.6718 12.593 11.6433 12.593C11.6148 12.593 11.5765 12.6526 11.5582 12.7253C11.5399 12.7981 11.5038 12.8576 11.4778 12.8576C11.4518 12.8576 11.4306 12.8933 11.4306 12.937C11.4306 12.9806 11.3949 13.0163 11.3513 13.0163C11.3016 13.0163 11.2719 13.0665 11.2719 13.1502C11.2719 13.2239 11.2384 13.2971 11.1973 13.3128C11.1563 13.3285 11.1082 13.3992 11.0905 13.4699C11.0727 13.5405 11.0349 13.5983 11.0063 13.5983C10.9778 13.5983 10.9544 13.634 10.9544 13.6777C10.9544 13.7213 10.9187 13.7571 10.8751 13.7571C10.8222 13.7571 10.7957 13.81 10.7957 13.9158C10.7957 14.0216 10.7693 14.0745 10.7163 14.0745C10.6664 14.0745 10.637 14.1249 10.637 14.2106C10.637 14.2854 10.6013 14.3823 10.5576 14.426C10.514 14.4697 10.4782 14.5751 10.4782 14.6603C10.4782 14.7455 10.4563 14.8153 10.4295 14.8153C10.4027 14.8153 10.3651 14.8867 10.346 14.974C10.3268 15.0613 10.2892 15.1327 10.2624 15.1327C10.2356 15.1327 10.2137 15.1911 10.2137 15.2623C10.2137 15.3337 10.1814 15.411 10.1418 15.4343C10.1023 15.4576 10.057 15.5949 10.0412 15.7394C10.0254 15.884 9.98629 16.011 9.95433 16.0217C9.92238 16.0323 9.89624 16.1088 9.89624 16.1916C9.89624 16.2744 9.86052 16.3778 9.81687 16.4214C9.77232 16.466 9.73751 16.5953 9.73751 16.7163C9.73751 16.8725 9.71571 16.9317 9.65814 16.9317C9.59507 16.9317 9.57878 17.0085 9.57878 17.3058C9.57878 17.5761 9.5556 17.7031 9.49529 17.7635C9.42222 17.8365 9.41396 18.0415 9.42915 19.4088C9.44238 20.5986 9.46227 20.9758 9.51264 20.9926C9.55761 21.0075 9.57878 21.1401 9.57878 21.407C9.57878 21.7205 9.5947 21.7994 9.65814 21.7994C9.71888 21.7994 9.73751 21.8664 9.73751 22.0847C9.73751 22.2895 9.75989 22.3786 9.81687 22.4006C9.86888 22.4205 9.89624 22.503 9.89624 22.6399C9.89624 22.7548 9.92158 22.8572 9.95259 22.8675C9.98354 22.8779 10.0224 22.987 10.0389 23.1101C10.0554 23.2331 10.0866 23.3338 10.1081 23.3338C10.1296 23.3338 10.1625 23.429 10.1811 23.5454C10.1997 23.6618 10.2354 23.7571 10.2605 23.7571C10.2855 23.7571 10.3212 23.8523 10.3398 23.9687C10.3585 24.0851 10.3941 24.1803 10.419 24.1803C10.4439 24.1803 10.4778 24.281 10.4943 24.404C10.5108 24.5271 10.5497 24.6363 10.5806 24.6466C10.6632 24.6741 10.6554 25.541 10.5723 25.5688C10.5312 25.5825 10.5002 25.7425 10.487 26.0096C10.473 26.294 10.4427 26.4426 10.393 26.4713C10.3503 26.4959 10.3195 26.5993 10.3195 26.7182C10.3195 26.8308 10.2927 26.9318 10.2599 26.9427C10.2271 26.9537 10.1884 27.0866 10.1738 27.2381C10.1593 27.3897 10.1268 27.5137 10.1018 27.5137C10.0767 27.5137 10.041 27.6089 10.0224 27.7253C10.0037 27.8417 9.9692 27.937 9.9456 27.937C9.922 27.937 9.88666 28.0441 9.86703 28.175C9.8474 28.306 9.81021 28.4131 9.78438 28.4131C9.75862 28.4131 9.73751 28.4591 9.73751 28.5152C9.73751 28.5713 9.70179 28.6529 9.65814 28.6966C9.61449 28.7402 9.57878 28.8372 9.57878 28.912C9.57878 28.9977 9.54936 29.0481 9.49941 29.0481C9.451 29.0481 9.42005 29.0974 9.42005 29.1747C9.42005 29.2443 9.38433 29.315 9.34068 29.3318C9.27745 29.356 9.26132 29.47 9.26132 29.893C9.26132 30.3295 9.27539 30.4237 9.34068 30.4237C9.38433 30.4237 9.42005 30.4594 9.42005 30.5031C9.42005 30.5467 9.45576 30.5825 9.49941 30.5825C9.54306 30.5825 9.57878 30.6058 9.57878 30.6344C9.57878 30.6629 9.6383 30.7012 9.71105 30.7194C9.7838 30.7377 9.84333 30.7739 9.84333 30.7998C9.84333 30.8258 9.98619 30.847 10.1608 30.847C10.3354 30.847 10.4782 30.8251 10.4782 30.7983C10.4782 30.7715 10.5497 30.7339 10.637 30.7147C10.7243 30.6956 10.7957 30.6607 10.7957 30.6373C10.7957 30.6139 10.9549 30.5846 11.1495 30.5722C11.3579 30.559 11.5119 30.5238 11.5243 30.4867C11.5362 30.4509 11.6444 30.4237 11.7752 30.4237C11.909 30.4237 12.0382 30.3905 12.0844 30.3444C12.136 30.2928 12.2671 30.265 12.4586 30.265C12.6853 30.265 12.7534 30.2467 12.7534 30.1856C12.7534 30.1228 12.8292 30.1063 13.1181 30.1063C13.3935 30.1063 13.4903 30.0868 13.5133 30.0269C13.5363 29.9669 13.6334 29.9475 13.9113 29.9475C14.1135 29.9475 14.287 29.9234 14.2968 29.894C14.3066 29.8645 14.511 29.8253 14.7509 29.8067C14.9909 29.7883 15.1872 29.7528 15.1872 29.7281C15.1872 29.7032 15.3896 29.683 15.637 29.683C15.8843 29.683 16.0867 29.7049 16.0867 29.7317C16.0867 29.7585 16.1581 29.7961 16.2454 29.8153C16.3327 29.8344 16.4042 29.872 16.4042 29.8988C16.4042 29.9256 16.4994 29.9475 16.6158 29.9475C16.7687 29.9475 16.8275 29.9696 16.8275 30.0269C16.8275 30.0845 16.8867 30.1063 17.0429 30.1063C17.1638 30.1063 17.2931 30.1411 17.3377 30.1856C17.3904 30.2383 17.5224 30.265 17.7307 30.265C17.9743 30.265 18.0444 30.2827 18.0444 30.3444C18.0444 30.4073 18.1203 30.4237 18.4104 30.4237C18.6561 30.4237 18.7835 30.4455 18.7984 30.4899C18.8285 30.58 21.8914 30.5864 21.9485 30.4964C21.9692 30.4637 22.1513 30.4266 22.3532 30.4139C22.5715 30.4003 22.7287 30.3655 22.7412 30.328C22.754 30.2896 22.8742 30.265 23.0488 30.265C23.2682 30.265 23.3354 30.2464 23.3354 30.1856C23.3354 30.1268 23.3971 30.1063 23.5735 30.1063C23.7498 30.1063 23.8116 30.0857 23.8116 30.0269C23.8116 29.9696 23.8704 29.9475 24.0232 29.9475C24.1396 29.9475 24.2349 29.9248 24.2349 29.897C24.2349 29.8692 24.3182 29.8309 24.42 29.8118C24.5219 29.7927 24.6052 29.7558 24.6052 29.73C24.6052 29.7041 24.6631 29.683 24.7338 29.683C24.8044 29.683 24.8939 29.6513 24.9326 29.6126C24.9714 29.5738 25.0684 29.5257 25.1481 29.5057C25.2278 29.4857 25.2931 29.4459 25.2931 29.4174C25.2931 29.3889 25.339 29.3655 25.3951 29.3655C25.4512 29.3655 25.5329 29.3298 25.5765 29.2862C25.6202 29.2425 25.6814 29.2068 25.7126 29.2068C25.7438 29.2068 25.7693 29.1711 25.7693 29.1274C25.7693 29.0745 25.8222 29.0481 25.928 29.0481C26.0338 29.0481 26.0867 29.0216 26.0867 28.9687C26.0867 28.9203 26.1361 28.8893 26.2133 28.8893C26.283 28.8893 26.3536 28.8536 26.3704 28.81C26.3871 28.7663 26.4272 28.7306 26.4595 28.7306C26.4917 28.7306 26.5896 28.6592 26.6769 28.5719C26.7642 28.4846 26.8695 28.4131 26.9109 28.4131C26.9523 28.4131 26.9862 28.3893 26.9862 28.3602C26.9862 28.3311 27.0219 28.3073 27.0656 28.3073C27.1092 28.3073 27.1449 28.2716 27.1449 28.228C27.1449 28.1843 27.1806 28.1486 27.2243 28.1486C27.2679 28.1486 27.3036 28.1129 27.3036 28.0692C27.3036 28.0256 27.3394 27.9899 27.383 27.9899C27.4267 27.9899 27.4624 27.9541 27.4624 27.9105C27.4624 27.8668 27.4881 27.8311 27.5195 27.8311C27.5508 27.8311 27.6837 27.724 27.8146 27.593C27.9456 27.4621 28.0866 27.3549 28.1279 27.3549C28.1693 27.3549 28.2031 27.3293 28.2031 27.298C28.2031 27.2666 28.2745 27.1695 28.3618 27.0822C28.4491 26.9949 28.5206 26.8896 28.5206 26.8482C28.5206 26.8068 28.5563 26.7729 28.5999 26.7729C28.6436 26.7729 28.6793 26.7372 28.6793 26.6936C28.6793 26.6499 28.7048 26.6142 28.736 26.6142C28.8085 26.6142 28.9134 26.5082 28.9584 26.3893C28.9777 26.3384 29.018 26.2967 29.048 26.2967C29.078 26.2967 29.1026 26.2372 29.1026 26.1645C29.1026 26.0821 29.1326 26.0322 29.182 26.0322C29.2256 26.0322 29.2613 25.9965 29.2613 25.9528C29.2613 25.9092 29.297 25.8735 29.3407 25.8735C29.3843 25.8735 29.42 25.8377 29.42 25.7941C29.42 25.7504 29.442 25.7147 29.4688 25.7147C29.4956 25.7147 29.5332 25.6433 29.5523 25.556C29.5715 25.4687 29.6087 25.3973 29.6349 25.3973C29.6611 25.3973 29.6975 25.3377 29.7158 25.265C29.734 25.1922 29.7702 25.1327 29.7961 25.1327C29.8221 25.1327 29.8433 25.097 29.8433 25.0534C29.8433 25.0097 29.879 24.974 29.9227 24.974C29.9756 24.974 30.0021 24.9211 30.0021 24.8153C30.0021 24.7094 30.0285 24.6565 30.0814 24.6565C30.1343 24.6565 30.1608 24.6036 30.1608 24.4978C30.1608 24.392 30.1872 24.3391 30.2402 24.3391C30.2901 24.3391 30.3195 24.2887 30.3195 24.203C30.3195 24.1282 30.3552 24.0312 30.3989 23.9876C30.4425 23.9439 30.4782 23.8385 30.4782 23.7533C30.4782 23.6508 30.5051 23.5983 30.5576 23.5983C30.61 23.5983 30.637 23.5459 30.637 23.444C30.637 23.3591 30.6623 23.2812 30.6933 23.2709C30.7243 23.2606 30.7631 23.1515 30.7796 23.0284C30.7961 22.9054 30.8281 22.8047 30.8506 22.8047C30.8732 22.8047 30.908 22.6856 30.928 22.5401C30.948 22.3946 30.9859 22.2756 31.0123 22.2756C31.0387 22.2756 31.0603 22.1582 31.0603 22.0148C31.0603 21.8536 31.0905 21.7237 31.1396 21.6747C31.199 21.6153 31.219 21.4691 31.219 21.0945C31.219 20.6982 31.2355 20.5874 31.2984 20.5633C31.3655 20.5375 31.3777 20.3579 31.3777 19.3974C31.3777 18.4587 31.364 18.2482 31.2984 18.1826C31.2408 18.125 31.219 17.9848 31.219 17.6724C31.219 17.36 31.1972 17.2198 31.1396 17.1622C31.0889 17.1114 31.0603 16.9809 31.0603 16.8C31.0603 16.6445 31.0349 16.5088 31.0039 16.4984C30.973 16.4881 30.9341 16.379 30.9176 16.2559C30.9011 16.1329 30.87 16.0322 30.8486 16.0322C30.8272 16.0322 30.7964 15.9335 30.7802 15.8129C30.7641 15.6923 30.7286 15.5792 30.7015 15.5616C30.6744 15.544 30.6358 15.4403 30.6158 15.3311C30.5957 15.222 30.5566 15.1327 30.5288 15.1327C30.501 15.1327 30.4782 15.0613 30.4782 14.974C30.4782 14.8682 30.4518 14.8153 30.3989 14.8153C30.3416 14.8153 30.3195 14.7565 30.3195 14.6036C30.3195 14.4508 30.2975 14.392 30.2402 14.392C30.1872 14.392 30.1608 14.3391 30.1608 14.2332C30.1608 14.1274 30.1343 14.0745 30.0814 14.0745C30.0373 14.0745 30.0021 14.0275 30.0021 13.9687C30.0021 13.9105 29.9787 13.8629 29.9502 13.8629C29.9216 13.8629 29.8833 13.8034 29.8651 13.7306C29.8468 13.6579 29.8132 13.5983 29.7904 13.5983C29.7676 13.5983 29.734 13.5388 29.7158 13.4661C29.6975 13.3933 29.6592 13.3338 29.6307 13.3338C29.6021 13.3338 29.5788 13.2973 29.5788 13.2528C29.5788 13.2082 29.5431 13.158 29.4994 13.1413C29.4558 13.1245 29.42 13.0538 29.42 12.9842C29.42 12.907 29.3891 12.8576 29.3407 12.8576C29.297 12.8576 29.2613 12.8219 29.2613 12.7782C29.2613 12.7346 29.2256 12.6989 29.182 12.6989C29.1335 12.6989 29.1026 12.6495 29.1026 12.5722C29.1026 12.5026 29.0669 12.4319 29.0232 12.4152C28.9796 12.3984 28.9439 12.3483 28.9439 12.3037C28.9439 12.2591 28.9081 12.2227 28.8645 12.2227C28.8208 12.2227 28.7851 12.197 28.7851 12.1656C28.7851 12.0912 28.3345 11.6407 28.2602 11.6407C28.2288 11.6407 28.2031 11.6049 28.2031 11.5613C28.2031 11.5176 28.1674 11.4819 28.1238 11.4819C28.0801 11.4819 28.0444 11.4462 28.0444 11.4026C28.0444 11.3589 28.0087 11.3232 27.965 11.3232C27.9214 11.3232 27.8857 11.2875 27.8857 11.2438C27.8857 11.2002 27.8499 11.1645 27.8063 11.1645C27.7626 11.1645 27.7269 11.1288 27.7269 11.0851C27.7269 11.0414 27.6999 11.0057 27.6669 11.0057C27.6338 11.0057 27.5516 10.9462 27.4842 10.8735C27.4168 10.8007 27.3367 10.7412 27.3062 10.7412C27.2757 10.7412 27.2507 10.7055 27.2507 10.6618C27.2507 10.6125 27.2008 10.5825 27.1185 10.5825C27.0361 10.5825 26.9862 10.5525 26.9862 10.5031C26.9862 10.4594 26.9505 10.4237 26.9068 10.4237C26.8632 10.4237 26.8275 10.388 26.8275 10.3444C26.8275 10.3007 26.7917 10.265 26.7481 10.265C26.7044 10.265 26.6687 10.2417 26.6687 10.2131C26.6687 10.1846 26.611 10.1467 26.5403 10.129C26.4696 10.1112 26.3989 10.0631 26.3832 10.0221C26.3675 9.98108 26.3181 9.94753 26.2735 9.94753C26.229 9.94753 26.1925 9.92372 26.1925 9.89462C26.1925 9.86552 26.1585 9.84171 26.1169 9.84171C26.0754 9.84171 26.0088 9.80912 25.969 9.76933C25.9292 9.72949 25.8441 9.68028 25.78 9.65997C25.7159 9.6396 25.6634 9.60076 25.6634 9.57362C25.6634 9.54648 25.6158 9.52425 25.5576 9.52425C25.4994 9.52425 25.4518 9.50092 25.4518 9.47235C25.4518 9.44383 25.3866 9.40409 25.3068 9.38404C25.2271 9.36404 25.1302 9.316 25.0914 9.27722C25.0526 9.23849 24.9869 9.20679 24.9454 9.20679C24.9038 9.20679 24.8698 9.18325 24.8698 9.15452C24.8698 9.12573 24.7745 9.087 24.6581 9.06838C24.5417 9.04976 24.4465 9.01521 24.4465 8.99161C24.4465 8.96801 24.3394 8.93267 24.2084 8.91304C24.0775 8.89341 23.9703 8.85621 23.9703 8.83039C23.9703 8.80462 23.8989 8.78351 23.8116 8.78351C23.7058 8.78351 23.6529 8.75706 23.6529 8.70415C23.6529 8.64552 23.5915 8.62478 23.4185 8.62478C23.2808 8.62478 23.1515 8.59208 23.1049 8.54542C23.0536 8.49415 22.9227 8.46605 22.7351 8.46605C22.5503 8.46605 22.4368 8.44208 22.4227 8.40007C22.4081 8.35621 22.2471 8.3278 21.9422 8.31531C21.644 8.30304 21.4833 8.27521 21.4827 8.23573C21.4823 8.20235 21.4588 8.21076 21.4306 8.25441C21.3965 8.30732 21.3791 8.31171 21.3785 8.26764C21.3775 8.18441 19.4393 8.17066 19.4112 8.25367ZM34.0761 11.5613C34.0761 11.6049 34.0404 11.6407 33.9968 11.6407C33.9531 11.6407 33.9174 11.6744 33.9174 11.7156C33.9174 11.7568 33.8877 11.8027 33.8513 11.8174C33.8032 11.8369 33.8014 11.8562 33.8446 11.888C33.8773 11.912 33.9209 12.009 33.9414 12.1036C33.962 12.1982 34.0006 12.2756 34.0274 12.2756C34.0542 12.2756 34.0761 12.3358 34.0761 12.4095C34.0761 12.4832 34.1118 12.5572 34.1555 12.5739C34.1992 12.5907 34.2349 12.6597 34.2349 12.7272C34.2349 12.7947 34.2706 12.8857 34.3142 12.9294C34.3579 12.973 34.3936 13.07 34.3936 13.1448C34.3936 13.2305 34.423 13.2809 34.473 13.2809C34.5259 13.2809 34.5523 13.3338 34.5523 13.4396C34.5523 13.5454 34.5788 13.5983 34.6317 13.5983C34.6841 13.5983 34.7111 13.6508 34.7111 13.7527C34.7111 13.8375 34.7364 13.9154 34.7674 13.9257C34.7984 13.9361 34.8372 14.0452 34.8537 14.1683C34.8702 14.2913 34.9022 14.392 34.9247 14.392C34.9472 14.392 34.9821 14.511 35.0021 14.6565C35.0221 14.802 35.06 14.9211 35.0864 14.9211C35.1127 14.9211 35.1343 14.967 35.1343 15.0231C35.1343 15.0792 35.17 15.1609 35.2137 15.2045C35.2574 15.2482 35.2931 15.3094 35.2931 15.3406C35.2931 15.3718 35.2574 15.3973 35.2137 15.3973C35.17 15.3973 35.1343 15.433 35.1343 15.4766C35.1343 15.5376 35.0667 15.556 34.8433 15.556C34.6199 15.556 34.5523 15.5744 34.5523 15.6354C34.5523 15.6883 34.4994 15.7147 34.3936 15.7147C34.2878 15.7147 34.2349 15.7412 34.2349 15.7941C34.2349 15.847 34.182 15.8735 34.0761 15.8735C33.9703 15.8735 33.9174 15.8999 33.9174 15.9528C33.9174 15.9965 33.8917 16.0322 33.8604 16.0322C33.7864 16.0322 33.4941 16.3245 33.4941 16.3985C33.4941 16.4298 33.4584 16.4555 33.4148 16.4555C33.3707 16.4555 33.3354 16.5025 33.3354 16.5613C33.3354 16.6201 33.3001 16.6671 33.256 16.6671C33.2076 16.6671 33.1767 16.7165 33.1767 16.7937C33.1767 16.8634 33.1409 16.934 33.0973 16.9508C33.0471 16.9701 33.0179 17.0512 33.0179 17.1719C33.0179 17.2767 32.9822 17.3982 32.9386 17.4419C32.8706 17.5098 32.8592 17.829 32.8592 19.6565C32.8592 21.484 32.8706 21.8032 32.9386 21.8712C32.9822 21.9148 33.0179 22.0237 33.0179 22.1131C33.0179 22.2222 33.044 22.2756 33.0973 22.2756C33.1467 22.2756 33.1767 22.3255 33.1767 22.4079C33.1767 22.4902 33.2067 22.5401 33.256 22.5401C33.3089 22.5401 33.3354 22.593 33.3354 22.6989C33.3354 22.8047 33.3618 22.8576 33.4148 22.8576C33.4584 22.8576 33.4941 22.8933 33.4941 22.937C33.4941 22.9806 33.5298 23.0163 33.5735 23.0163C33.6171 23.0163 33.6529 23.052 33.6529 23.0957C33.6529 23.1393 33.6886 23.175 33.7322 23.175C33.7759 23.175 33.8116 23.1984 33.8116 23.227C33.8116 23.2555 33.8711 23.2938 33.9439 23.312C34.0166 23.3303 34.0761 23.3665 34.0761 23.3924C34.0761 23.4184 34.1118 23.4396 34.1555 23.4396C34.1992 23.4396 34.2349 23.4753 34.2349 23.519C34.2349 23.5777 34.2966 23.5983 34.473 23.5983C34.6493 23.5983 34.7111 23.6189 34.7111 23.6777C34.7111 23.7386 34.7787 23.7571 35.0021 23.7571C35.2254 23.7571 35.2931 23.7755 35.2931 23.8364C35.2931 23.8974 35.3607 23.9158 35.5841 23.9158C35.8075 23.9158 35.8751 23.8974 35.8751 23.8364C35.8751 23.7765 35.9397 23.7571 36.1396 23.7571C36.3395 23.7571 36.4042 23.7376 36.4042 23.6777C36.4042 23.6227 36.4594 23.5983 36.5837 23.5983C36.6945 23.5983 36.7749 23.568 36.7937 23.519C36.8104 23.4753 36.8606 23.4396 36.9052 23.4396C36.9497 23.4396 36.9862 23.4158 36.9862 23.3867C36.9862 23.3576 37.019 23.3338 37.0592 23.3338C37.1569 23.3338 37.5488 22.9491 37.593 22.8098C37.6124 22.7488 37.6504 22.6989 37.6776 22.6989C37.7047 22.6989 37.7269 22.6631 37.7269 22.6195C37.7269 22.5619 37.7861 22.5401 37.9423 22.5401C38.0633 22.5401 38.1926 22.5053 38.2371 22.4608C38.2808 22.4171 38.3862 22.3814 38.4714 22.3814C38.5567 22.3814 38.6264 22.3576 38.6264 22.3285C38.6264 22.2994 38.6621 22.2756 38.7058 22.2756C38.7494 22.2756 38.7851 22.2425 38.7851 22.2019C38.7851 22.1614 38.8443 22.1135 38.9166 22.0953C38.9977 22.0749 39.0607 22.012 39.0811 21.9309C39.0992 21.8585 39.1472 21.7994 39.1877 21.7994C39.2282 21.7994 39.2613 21.7656 39.2613 21.7244C39.2613 21.6832 39.2867 21.641 39.3177 21.6307C39.3486 21.6204 39.3875 21.5112 39.404 21.3882C39.4205 21.2652 39.4547 21.1645 39.4799 21.1645C39.5052 21.1645 39.5259 20.4621 39.5259 19.6036C39.5259 18.7452 39.505 18.0428 39.4796 18.0428C39.4541 18.0428 39.4187 17.9698 39.4008 17.8806C39.383 17.7914 39.2967 17.6467 39.209 17.5591C39.1214 17.4714 39.0497 17.3658 39.0497 17.3244C39.0497 17.2794 38.9965 17.2491 38.9174 17.2491C38.8351 17.2491 38.7851 17.2191 38.7851 17.1698C38.7851 17.1261 38.7494 17.0904 38.7058 17.0904C38.6621 17.0904 38.6264 17.0547 38.6264 17.011C38.6264 16.954 38.5681 16.9317 38.4191 16.9317C38.3052 16.9317 38.2035 16.9063 38.1932 16.8753C38.1829 16.8444 38.0737 16.8055 37.9506 16.789C37.7624 16.7638 37.7269 16.74 37.7269 16.6393C37.7269 16.5736 37.6912 16.506 37.6476 16.4892C37.6039 16.4725 37.5682 16.4223 37.5682 16.3777C37.5682 16.3332 37.5412 16.2967 37.5081 16.2967C37.4751 16.2967 37.3929 16.2372 37.3254 16.1645C37.258 16.0917 37.1541 16.0322 37.0945 16.0322C37.0335 16.0322 36.9862 15.9975 36.9862 15.9528C36.9862 15.9092 36.9505 15.8735 36.9068 15.8735C36.8632 15.8735 36.8275 15.8377 36.8275 15.7941C36.8275 15.7412 36.7745 15.7147 36.6687 15.7147C36.5629 15.7147 36.51 15.6883 36.51 15.6354C36.51 15.5781 36.4513 15.556 36.2989 15.556C36.0534 15.556 35.8751 15.4286 35.8751 15.2532C35.8751 15.187 35.8513 15.1327 35.8222 15.1327C35.7929 15.1327 35.7693 14.9929 35.7693 14.819C35.7693 14.6108 35.7426 14.4787 35.6899 14.426C35.6453 14.3814 35.6105 14.2521 35.6105 14.1312C35.6105 13.975 35.5887 13.9158 35.5312 13.9158C35.4782 13.9158 35.4518 13.8629 35.4518 13.7571C35.4518 13.6698 35.4282 13.5983 35.3995 13.5983C35.3707 13.5983 35.332 13.5031 35.3134 13.3867C35.2948 13.2703 35.2607 13.175 35.2376 13.175C35.2145 13.175 35.1799 13.1036 35.1608 13.0163C35.1416 12.929 35.104 12.8576 35.0772 12.8576C35.0504 12.8576 35.0285 12.7973 35.0285 12.7237C35.0285 12.65 34.9928 12.576 34.9492 12.5593C34.9039 12.5419 34.8698 12.463 34.8698 12.3757C34.8698 12.2749 34.8427 12.2227 34.7904 12.2227C34.7379 12.2227 34.7111 12.1702 34.7111 12.0677C34.7111 11.9825 34.6753 11.8771 34.6317 11.8334C34.588 11.7898 34.5523 11.7285 34.5523 11.6973C34.5523 11.6662 34.5166 11.6407 34.473 11.6407C34.4293 11.6407 34.3936 11.6049 34.3936 11.5613C34.3936 11.5084 34.3407 11.4819 34.2349 11.4819C34.129 11.4819 34.0761 11.5084 34.0761 11.5613ZM35.4047 24.0591C35.2548 24.1185 35.1343 24.2603 35.1343 24.3773C35.1343 24.4436 35.1124 24.4978 35.0856 24.4978C35.0588 24.4978 35.0212 24.5692 35.0021 24.6565C34.9829 24.7438 34.9453 24.8153 34.9185 24.8153C34.8917 24.8153 34.8698 24.885 34.8698 24.9702C34.8698 25.0554 34.8341 25.1609 34.7904 25.2045C34.7468 25.2482 34.7111 25.3451 34.7111 25.42C34.7111 25.5056 34.6816 25.556 34.6317 25.556C34.5788 25.556 34.5523 25.6089 34.5523 25.7147C34.5523 25.8206 34.5259 25.8735 34.473 25.8735C34.4245 25.8735 34.3936 25.9228 34.3936 26.0001C34.3936 26.0697 34.3579 26.1404 34.3142 26.1572C34.2706 26.1739 34.2349 26.2453 34.2349 26.3159C34.2349 26.3864 34.1992 26.4579 34.1555 26.4746C34.1118 26.4913 34.0761 26.5653 34.0761 26.639C34.0761 26.7228 34.0464 26.7729 33.9968 26.7729C33.9531 26.7729 33.9174 26.8086 33.9174 26.8523C33.9174 26.8959 33.8936 26.9317 33.8645 26.9317C33.8354 26.9317 33.8116 26.9919 33.8116 27.0656C33.8116 27.1393 33.7759 27.2132 33.7322 27.23C33.6886 27.2467 33.6529 27.3174 33.6529 27.3871C33.6529 27.4643 33.6219 27.5137 33.5735 27.5137C33.5294 27.5137 33.4941 27.5607 33.4941 27.6195C33.4941 27.6783 33.4588 27.7253 33.4148 27.7253C33.3654 27.7253 33.3354 27.7753 33.3354 27.8576C33.3354 27.9399 33.3054 27.9899 33.256 27.9899C33.2076 27.9899 33.1767 28.0392 33.1767 28.1165C33.1767 28.1861 33.1409 28.2568 33.0973 28.2736C33.0536 28.2903 33.0179 28.3404 33.0179 28.385C33.0179 28.4296 32.9946 28.4661 32.966 28.4661C32.9375 28.4661 32.8992 28.5256 32.8809 28.5983C32.8627 28.6711 32.8265 28.7306 32.8006 28.7306C32.7746 28.7306 32.7534 28.7663 32.7534 28.81C32.7534 28.8536 32.7177 28.8893 32.674 28.8893C32.6304 28.8893 32.5947 28.925 32.5947 28.9687C32.5947 29.0123 32.5615 29.0481 32.521 29.0481C32.4805 29.0481 32.4324 29.1076 32.4142 29.1803C32.3959 29.2531 32.3576 29.3126 32.3291 29.3126C32.3005 29.3126 32.2772 29.3483 32.2772 29.392C32.2772 29.4356 32.2415 29.4713 32.1978 29.4713C32.1542 29.4713 32.1185 29.5071 32.1185 29.5507C32.1185 29.5944 32.0827 29.6301 32.0391 29.6301C31.9954 29.6301 31.9597 29.655 31.9597 29.6855C31.9597 29.716 31.9002 29.7961 31.8275 29.8635C31.7547 29.931 31.6952 30.0131 31.6952 30.0462C31.6952 30.0792 31.6595 30.1063 31.6158 30.1063C31.5722 30.1063 31.5364 30.142 31.5364 30.1856C31.5364 30.2293 31.5007 30.265 31.4571 30.265C31.4134 30.265 31.3777 30.3007 31.3777 30.3444C31.3777 30.388 31.342 30.4237 31.2984 30.4237C31.2547 30.4237 31.219 30.4594 31.219 30.5031C31.219 30.5467 31.1833 30.5825 31.1396 30.5825C31.096 30.5825 31.0603 30.6182 31.0603 30.6618C31.0603 30.7055 31.0348 30.7412 31.0036 30.7412C30.9303 30.7412 30.7957 30.8758 30.7957 30.9491C30.7957 30.9802 30.76 31.0057 30.7163 31.0057C30.6727 31.0057 30.637 31.0414 30.637 31.0851C30.637 31.1287 30.6013 31.1645 30.5576 31.1645C30.514 31.1645 30.4782 31.2002 30.4782 31.2438C30.4782 31.2875 30.4451 31.3232 30.4045 31.3232C30.364 31.3232 30.3171 31.3589 30.3004 31.4026C30.2836 31.4462 30.2241 31.4819 30.1681 31.4819C30.1121 31.4819 30.0526 31.5176 30.0358 31.5613C30.0191 31.6049 29.9776 31.6407 29.9436 31.6407C29.9097 31.6407 29.8268 31.7002 29.7593 31.7729C29.6919 31.8457 29.6118 31.9052 29.5813 31.9052C29.5508 31.9052 29.5259 31.9409 29.5259 31.9846C29.5259 32.0339 29.4759 32.0639 29.3936 32.0639C29.3113 32.0639 29.2613 32.0939 29.2613 32.1433C29.2613 32.187 29.2256 32.2227 29.182 32.2227C29.1383 32.2227 29.1026 32.2584 29.1026 32.302C29.1026 32.3549 29.0497 32.3814 28.9439 32.3814C28.838 32.3814 28.7851 32.4079 28.7851 32.4608C28.7851 32.5044 28.7494 32.5401 28.7058 32.5401C28.6621 32.5401 28.6264 32.5635 28.6264 32.592C28.6264 32.6206 28.5669 32.6589 28.4941 32.6771C28.4214 32.6954 28.3618 32.7296 28.3618 32.7533C28.3618 32.777 28.2904 32.812 28.2031 32.8311C28.1158 32.8503 28.0444 32.886 28.0444 32.9105C28.0444 32.935 27.973 32.9707 27.8857 32.9899C27.7984 33.009 27.7269 33.044 27.7269 33.0677C27.7269 33.0913 27.6674 33.1256 27.5947 33.1439C27.5219 33.1621 27.4624 33.2004 27.4624 33.229C27.4624 33.2575 27.3909 33.2809 27.3036 33.2809C27.1978 33.2809 27.1449 33.3073 27.1449 33.3602C27.1449 33.4131 27.092 33.4396 26.9862 33.4396C26.8804 33.4396 26.8275 33.4661 26.8275 33.519C26.8275 33.5689 26.7771 33.5983 26.6914 33.5983C26.6166 33.5983 26.5196 33.634 26.476 33.6777C26.4323 33.7213 26.3507 33.7571 26.2946 33.7571C26.2385 33.7571 26.1925 33.7778 26.1925 33.8032C26.1925 33.8286 26.0973 33.8646 25.9809 33.8832C25.8645 33.9018 25.7693 33.9375 25.7693 33.9626C25.7693 33.9876 25.674 34.0233 25.5576 34.0419C25.4412 34.0605 25.346 34.0993 25.346 34.1281C25.346 34.1568 25.3155 34.1803 25.2784 34.1803C25.2025 34.1803 25.0285 34.365 25.0285 34.4455C25.0285 34.4743 24.9928 34.4978 24.9492 34.4978C24.8962 34.4978 24.8698 34.4449 24.8698 34.3391C24.8698 34.2332 24.8433 34.1803 24.7904 34.1803C24.7375 34.1803 24.7111 34.1274 24.7111 34.0216C24.7111 33.9158 24.6846 33.8629 24.6317 33.8629C24.587 33.8629 24.5523 33.8156 24.5523 33.7545C24.5523 33.6949 24.4928 33.591 24.42 33.5236C24.3473 33.4562 24.2878 33.374 24.2878 33.3409C24.2878 33.3079 24.2521 33.2809 24.2084 33.2809C24.1648 33.2809 24.129 33.2452 24.129 33.2015C24.129 33.1579 24.0933 33.1221 24.0497 33.1221C24.006 33.1221 23.9703 33.1002 23.9703 33.0734C23.9703 33.0466 23.8989 33.009 23.8116 32.9899C23.7243 32.9707 23.6529 32.9212 23.6529 32.8799C23.6529 32.8358 23.6004 32.8047 23.5262 32.8047C23.4566 32.8047 23.3859 32.769 23.3692 32.7253C23.3492 32.6733 23.2667 32.6459 23.1298 32.6459C23.0097 32.6459 22.9116 32.6178 22.8989 32.5798C22.8817 32.5284 22.4136 32.5137 20.7957 32.5137C19.1778 32.5137 18.7097 32.5284 18.6925 32.5798C18.6804 32.6162 18.5908 32.6459 18.4935 32.6459C18.3961 32.6459 18.2808 32.6817 18.2371 32.7253C18.1935 32.769 18.1077 32.8047 18.0465 32.8047C17.9853 32.8047 17.9215 32.8404 17.9048 32.884C17.888 32.9277 17.8412 32.9634 17.8006 32.9634C17.7601 32.9634 17.7269 32.9991 17.7269 33.0428C17.7269 33.0921 17.677 33.1221 17.5947 33.1221C17.5123 33.1221 17.4624 33.1521 17.4624 33.2015C17.4624 33.2452 17.4267 33.2809 17.383 33.2809C17.3394 33.2809 17.3036 33.3166 17.3036 33.3602C17.3036 33.4039 17.2679 33.4396 17.2243 33.4396C17.1749 33.4396 17.1449 33.4895 17.1449 33.5719C17.1449 33.6542 17.1149 33.7041 17.0656 33.7041C17.0219 33.7041 16.9862 33.7416 16.9862 33.7873C16.9862 33.833 16.9505 33.9062 16.9068 33.9498C16.8632 33.9935 16.8275 34.0989 16.8275 34.1841C16.8275 34.2866 16.8006 34.3391 16.7481 34.3391C16.6808 34.3391 16.6687 34.4684 16.6687 35.1856C16.6687 35.9029 16.6808 36.0322 16.7481 36.0322C16.8054 36.0322 16.8275 36.091 16.8275 36.2438C16.8275 36.3967 16.8495 36.4555 16.9068 36.4555C16.9505 36.4555 16.9862 36.4912 16.9862 36.5348C16.9862 36.5785 17.0219 36.6142 17.0656 36.6142C17.1185 36.6142 17.1449 36.6671 17.1449 36.7729C17.1449 36.8787 17.1714 36.9317 17.2243 36.9317C17.2679 36.9317 17.3036 36.9674 17.3036 37.011C17.3036 37.0547 17.3394 37.0904 17.383 37.0904C17.4267 37.0904 17.4624 37.1261 17.4624 37.1698C17.4624 37.2134 17.4981 37.2491 17.5417 37.2491C17.5854 37.2491 17.6211 37.2725 17.6211 37.301C17.6211 37.3295 17.6806 37.3679 17.7534 37.3861C17.8261 37.4044 17.8857 37.4386 17.8857 37.4623C17.8857 37.4859 17.9571 37.521 18.0444 37.5401C18.1317 37.5593 18.2031 37.5969 18.2031 37.6237C18.2031 37.6505 18.2984 37.6724 18.4148 37.6724C18.5676 37.6724 18.6264 37.6945 18.6264 37.7518C18.6264 37.821 18.9057 37.8311 20.8222 37.8311C22.7387 37.8311 23.0179 37.821 23.0179 37.7518C23.0179 37.693 23.0797 37.6724 23.256 37.6724C23.4324 37.6724 23.4941 37.6518 23.4941 37.593C23.4941 37.5494 23.5298 37.5137 23.5735 37.5137C23.6171 37.5137 23.6529 37.4925 23.6529 37.4665C23.6529 37.4405 23.7155 37.4036 23.7921 37.3844C23.9382 37.3477 24.3936 36.9281 24.3936 36.83C24.3936 36.7986 24.4293 36.7729 24.473 36.7729C24.5226 36.7729 24.5523 36.7228 24.5523 36.639C24.5523 36.5653 24.588 36.4913 24.6317 36.4746C24.6753 36.4579 24.7111 36.3897 24.7111 36.3232C24.7111 36.2567 24.7468 36.1885 24.7904 36.1718C24.8477 36.1498 24.8698 36.06 24.8698 35.8486C24.8698 35.6238 24.8881 35.556 24.9492 35.556C25.0135 35.556 25.0285 35.4708 25.0285 35.1063C25.0285 34.8417 25.0503 34.6565 25.0814 34.6565C25.1105 34.6565 25.1343 34.6949 25.1343 34.7419C25.1343 34.8145 25.1912 34.824 25.5143 34.8057C25.747 34.7926 25.9025 34.7595 25.9155 34.7204C25.9272 34.6853 25.9951 34.6565 26.0663 34.6565C26.1376 34.6565 26.2096 34.6208 26.2263 34.5772C26.2462 34.5254 26.3285 34.4978 26.4627 34.4978C26.6106 34.4978 26.6687 34.4754 26.6687 34.4184C26.6687 34.3655 26.7216 34.3391 26.8275 34.3391C26.9333 34.3391 26.9862 34.3126 26.9862 34.2597C26.9862 34.2103 27.0361 34.1803 27.1185 34.1803C27.1912 34.1803 27.2507 34.1584 27.2507 34.1316C27.2507 34.1048 27.3222 34.0672 27.4095 34.0481C27.4968 34.0289 27.5682 33.9932 27.5682 33.9687C27.5682 33.9442 27.6396 33.9085 27.7269 33.8893C27.8142 33.8702 27.8857 33.8326 27.8857 33.8058C27.8857 33.779 27.9459 33.7571 28.0196 33.7571C28.0933 33.7571 28.1672 33.7213 28.184 33.6777C28.2007 33.634 28.2714 33.5983 28.3411 33.5983C28.4183 33.5983 28.4677 33.5674 28.4677 33.519C28.4677 33.4753 28.5136 33.4396 28.5697 33.4396C28.6258 33.4396 28.7075 33.4039 28.7511 33.3602C28.7948 33.3166 28.8534 33.2809 28.8815 33.2809C28.9096 33.2809 28.9462 33.2452 28.963 33.2015C28.9797 33.1579 29.0537 33.1221 29.1274 33.1221C29.2112 33.1221 29.2613 33.0924 29.2613 33.0428C29.2613 32.9991 29.297 32.9634 29.3407 32.9634C29.3843 32.9634 29.42 32.9422 29.42 32.9162C29.42 32.8903 29.4796 32.8541 29.5523 32.8358C29.6251 32.8176 29.6846 32.7793 29.6846 32.7508C29.6846 32.7222 29.7203 32.6989 29.764 32.6989C29.8076 32.6989 29.8433 32.665 29.8433 32.6237C29.8433 32.5823 29.9148 32.5328 30.0021 32.5137C30.0894 32.4945 30.1608 32.4569 30.1608 32.4301C30.1608 32.4033 30.1965 32.3814 30.2402 32.3814C30.2838 32.3814 30.3195 32.3457 30.3195 32.302C30.3195 32.2584 30.3552 32.2227 30.3989 32.2227C30.4425 32.2227 30.4782 32.187 30.4782 32.1433C30.4782 32.0996 30.514 32.0639 30.5576 32.0639C30.6013 32.0639 30.637 32.0406 30.637 32.012C30.637 31.9835 30.6965 31.9452 30.7693 31.927C30.842 31.9087 30.9015 31.8606 30.9015 31.8201C30.9015 31.7796 30.9264 31.7465 30.957 31.7465C30.9875 31.7465 31.0676 31.687 31.135 31.6142C31.2024 31.5414 31.2846 31.4819 31.3177 31.4819C31.3507 31.4819 31.3777 31.4462 31.3777 31.4026C31.3777 31.3589 31.4134 31.3232 31.4571 31.3232C31.5007 31.3232 31.5364 31.2875 31.5364 31.2438C31.5364 31.2002 31.5722 31.1645 31.6158 31.1645C31.6595 31.1645 31.6952 31.1375 31.6952 31.1046C31.6952 31.0717 31.8857 30.8591 32.1185 30.6322C32.3513 30.4053 32.5417 30.1953 32.5417 30.1655C32.5417 30.1357 32.6251 30.0304 32.7269 29.9315C32.8288 29.8326 32.9121 29.733 32.9121 29.7102C32.9121 29.6873 32.9716 29.6135 33.0444 29.5461C33.1171 29.4786 33.1767 29.3985 33.1767 29.3681C33.1767 29.3375 33.2124 29.3126 33.256 29.3126C33.3054 29.3126 33.3354 29.2627 33.3354 29.1803C33.3354 29.098 33.3654 29.0481 33.4148 29.0481C33.4584 29.0481 33.4941 29.0123 33.4941 28.9687C33.4941 28.925 33.5298 28.8893 33.5735 28.8893C33.6219 28.8893 33.6529 28.84 33.6529 28.7627C33.6529 28.6931 33.6886 28.6224 33.7322 28.6056C33.7759 28.5889 33.8116 28.5388 33.8116 28.4941C33.8116 28.4496 33.8349 28.4131 33.8635 28.4131C33.892 28.4131 33.9303 28.3536 33.9486 28.2809C33.9668 28.2081 34.003 28.1486 34.0289 28.1486C34.0549 28.1486 34.0761 28.1121 34.0761 28.0676C34.0761 28.023 34.1118 27.9728 34.1555 27.9561C34.1992 27.9393 34.2349 27.8686 34.2349 27.799C34.2349 27.7218 34.2658 27.6724 34.3142 27.6724C34.3636 27.6724 34.3936 27.6225 34.3936 27.5401C34.3936 27.4578 34.4236 27.4079 34.473 27.4079C34.517 27.4079 34.5523 27.3608 34.5523 27.302C34.5523 27.2432 34.5876 27.1962 34.6317 27.1962C34.6811 27.1962 34.7111 27.1463 34.7111 27.0639C34.7111 26.9912 34.733 26.9317 34.7598 26.9317C34.7866 26.9317 34.8242 26.8602 34.8433 26.7729C34.8625 26.6856 34.8982 26.6142 34.9227 26.6142C34.9472 26.6142 34.9829 26.5428 35.0021 26.4555C35.0212 26.3682 35.0588 26.2967 35.0856 26.2967C35.1124 26.2967 35.1343 26.2365 35.1343 26.1628C35.1343 26.0891 35.1672 26.0163 35.2075 26.0008C35.2477 25.9854 35.2956 25.879 35.3139 25.7644C35.3322 25.6498 35.3707 25.556 35.3995 25.556C35.4282 25.556 35.4518 25.4846 35.4518 25.3973C35.4518 25.2915 35.4782 25.2385 35.5312 25.2385C35.5885 25.2385 35.6105 25.1798 35.6105 25.0269C35.6105 24.874 35.6326 24.8153 35.6899 24.8153C35.7487 24.8153 35.7693 24.7535 35.7693 24.5772C35.7693 24.4462 35.7931 24.3391 35.8222 24.3391C35.909 24.3391 35.882 24.0885 35.7914 24.0537C35.6923 24.0157 35.5078 24.0183 35.4047 24.0591Z" fill="#12355A" fill-opacity="0.16"/>
<path fill-rule="evenodd" clip-rule="evenodd" d="M18.6613 2.02317C18.6463 2.06798 18.4786 2.09529 18.141 2.10793C17.7851 2.12121 17.6307 2.14767 17.6004 2.20052C17.5711 2.25163 17.4545 2.27449 17.2225 2.27449C16.9729 2.27449 16.879 2.29486 16.8564 2.35386C16.8345 2.41095 16.7451 2.43322 16.5377 2.43322C16.3791 2.43322 16.241 2.45857 16.2307 2.48957C16.2204 2.52052 16.1112 2.55936 15.9881 2.57587C15.8651 2.59238 15.7644 2.62656 15.7644 2.65185C15.7644 2.67708 15.6685 2.69777 15.5512 2.69777C15.4104 2.69777 15.3275 2.72476 15.3074 2.77714C15.2875 2.82888 15.2052 2.8565 15.0709 2.8565C14.9231 2.8565 14.865 2.87894 14.865 2.93587C14.865 2.9928 14.8068 3.01523 14.659 3.01523C14.5247 3.01523 14.4424 3.04285 14.4225 3.0946C14.4058 3.13825 14.3301 3.17396 14.2544 3.17396C14.1786 3.17396 14.0809 3.20968 14.0373 3.25333C13.9936 3.29698 13.8882 3.33269 13.803 3.33269C13.7005 3.33269 13.648 3.35957 13.648 3.41206C13.648 3.46047 13.5987 3.49142 13.5214 3.49142C13.4518 3.49142 13.3811 3.52714 13.3643 3.57079C13.3476 3.61444 13.2736 3.65015 13.1999 3.65015C13.1263 3.65015 13.066 3.67206 13.066 3.69888C13.066 3.72566 12.9946 3.76327 12.9073 3.78243C12.82 3.80158 12.7486 3.83661 12.7486 3.86026C12.7486 3.88391 12.689 3.9182 12.6163 3.93645C12.5435 3.9547 12.484 3.99301 12.484 4.02153C12.484 4.0501 12.4364 4.07343 12.3782 4.07343C12.3194 4.07343 12.2724 4.10872 12.2724 4.1528C12.2724 4.20216 12.2224 4.23216 12.1401 4.23216C12.0578 4.23216 12.0078 4.26216 12.0078 4.31153C12.0078 4.36444 11.9549 4.39089 11.8491 4.39089C11.7433 4.39089 11.6904 4.41735 11.6904 4.47026C11.6904 4.51391 11.6546 4.54962 11.611 4.54962C11.5673 4.54962 11.5316 4.57296 11.5316 4.60153C11.5316 4.63005 11.4721 4.66835 11.3994 4.68661C11.3266 4.70486 11.2671 4.74105 11.2671 4.76698C11.2671 4.79296 11.2314 4.81417 11.1877 4.81417C11.1441 4.81417 11.1083 4.84798 11.1083 4.88936C11.1083 4.93068 11.0369 4.98021 10.9496 4.99936C10.8623 5.01851 10.7909 5.05613 10.7909 5.0829C10.7909 5.10973 10.7552 5.13163 10.7115 5.13163C10.6679 5.13163 10.6322 5.16735 10.6322 5.211C10.6322 5.25465 10.5964 5.29036 10.5528 5.29036C10.5091 5.29036 10.4734 5.32608 10.4734 5.36973C10.4734 5.41338 10.4377 5.44909 10.3941 5.44909C10.3504 5.44909 10.3147 5.47132 10.3147 5.49846C10.3147 5.5256 10.2648 5.56365 10.2038 5.58301C10.1428 5.60232 10.0027 5.7111 9.89253 5.82465C9.78231 5.93819 9.66554 6.03111 9.63306 6.03111C9.60057 6.03111 9.57395 6.06682 9.57395 6.11047C9.57395 6.15412 9.53824 6.18984 9.49459 6.18984C9.45094 6.18984 9.41522 6.22555 9.41522 6.2692C9.41522 6.31285 9.37951 6.34857 9.33586 6.34857C9.29221 6.34857 9.25649 6.37428 9.25649 6.40571C9.25649 6.48021 8.64739 7.08931 8.5729 7.08931C8.54147 7.08931 8.51575 7.12502 8.51575 7.16867C8.51575 7.21232 8.48004 7.24804 8.43639 7.24804C8.39274 7.24804 8.35702 7.28375 8.35702 7.3274C8.35702 7.37105 8.32131 7.40677 8.27766 7.40677C8.23401 7.40677 8.19829 7.44248 8.19829 7.48613C8.19829 7.52978 8.16258 7.5655 8.11893 7.5655C8.07528 7.5655 8.03956 7.5919 8.03956 7.62412C8.03956 7.6564 7.91242 7.80793 7.75697 7.96089C7.60152 8.11386 7.4594 8.27793 7.44115 8.32555C7.4229 8.37312 7.38343 8.41206 7.35337 8.41206C7.32337 8.41206 7.29882 8.45968 7.29882 8.51788C7.29882 8.57666 7.26353 8.6237 7.21946 8.6237C7.17581 8.6237 7.14009 8.65941 7.14009 8.70306C7.14009 8.74671 7.11887 8.78243 7.0929 8.78243C7.06697 8.78243 7.03078 8.84195 7.01253 8.9147C6.99427 8.98745 6.95597 9.04698 6.92745 9.04698C6.89888 9.04698 6.87554 9.08269 6.87554 9.12634C6.87554 9.16999 6.84173 9.20571 6.80036 9.20571C6.75903 9.20571 6.70951 9.27714 6.69036 9.36444C6.6712 9.45174 6.63692 9.52317 6.61417 9.52317C6.55194 9.52317 6.5102 10.0502 6.54343 10.4165C6.56369 10.6398 6.59512 10.7401 6.6448 10.7401C6.68438 10.7401 6.71681 10.7888 6.71681 10.8485C6.71681 10.908 6.77634 11.012 6.84909 11.0794C6.92184 11.1468 6.98136 11.2271 6.98136 11.2578C6.98136 11.2886 7.05279 11.3294 7.14009 11.3486C7.22739 11.3677 7.29882 11.4053 7.29882 11.4321C7.29882 11.4589 7.56242 11.4808 7.88459 11.4808C8.33475 11.4808 8.48877 11.4625 8.54978 11.4015C8.59343 11.3578 8.67507 11.3221 8.73115 11.3221C8.78729 11.3221 8.83321 11.2864 8.83321 11.2427C8.83321 11.1991 8.85872 11.1634 8.88988 11.1634C8.96316 11.1634 9.09776 11.0288 9.09776 10.9555C9.09776 10.9243 9.13348 10.8988 9.17713 10.8988C9.22078 10.8988 9.25649 10.8624 9.25649 10.8178C9.25649 10.7732 9.29221 10.7231 9.33586 10.7063C9.37951 10.6896 9.41522 10.6189 9.41522 10.5493C9.41522 10.472 9.44618 10.4226 9.49459 10.4226C9.53824 10.4226 9.57395 10.3869 9.57395 10.3433C9.57395 10.2996 9.60967 10.2639 9.65332 10.2639C9.69697 10.2639 9.73268 10.2282 9.73268 10.1845C9.73268 10.1409 9.75491 10.1052 9.78205 10.1052C9.80919 10.1052 9.84766 10.0539 9.8676 9.99111C9.8875 9.92835 9.96052 9.82444 10.0299 9.76015C10.0992 9.69592 10.156 9.61629 10.156 9.58322C10.156 9.55021 10.1917 9.52317 10.2353 9.52317C10.279 9.52317 10.3147 9.48745 10.3147 9.4438C10.3147 9.40015 10.3504 9.36444 10.3941 9.36444C10.4377 9.36444 10.4734 9.32872 10.4734 9.28507C10.4734 9.24142 10.5091 9.20571 10.5528 9.20571C10.5964 9.20571 10.6322 9.16999 10.6322 9.12634C10.6322 9.08269 10.6679 9.04698 10.7115 9.04698C10.7552 9.04698 10.7909 9.01126 10.7909 8.96761C10.7909 8.92396 10.8164 8.88825 10.8476 8.88825C10.9208 8.88825 11.0554 8.75365 11.0554 8.68037C11.0554 8.6492 11.0912 8.6237 11.1348 8.6237C11.1785 8.6237 11.2142 8.58798 11.2142 8.54433C11.2142 8.50068 11.2499 8.46497 11.2935 8.46497C11.3372 8.46497 11.3729 8.42925 11.3729 8.3856C11.3729 8.34195 11.4086 8.30624 11.4523 8.30624C11.4959 8.30624 11.5316 8.27052 11.5316 8.22687C11.5316 8.18322 11.5673 8.14751 11.611 8.14751C11.6546 8.14751 11.6904 8.11179 11.6904 8.06814C11.6904 8.02449 11.7174 7.98878 11.7504 7.98878C11.7835 7.98878 11.8631 7.93206 11.9273 7.86269C11.9916 7.79333 12.0955 7.72031 12.1583 7.70042C12.221 7.68047 12.2724 7.64201 12.2724 7.61486C12.2724 7.58772 12.3081 7.5655 12.3517 7.5655C12.3954 7.5655 12.4311 7.52978 12.4311 7.48613C12.4311 7.44248 12.4668 7.40677 12.5105 7.40677C12.5541 7.40677 12.5898 7.37105 12.5898 7.3274C12.5898 7.27449 12.6427 7.24804 12.7486 7.24804C12.8544 7.24804 12.9073 7.22158 12.9073 7.16867C12.9073 7.12502 12.943 7.08931 12.9867 7.08931C13.0303 7.08931 13.066 7.06597 13.066 7.0374C13.066 7.00888 13.1255 6.97058 13.1983 6.95232C13.271 6.93407 13.3306 6.89788 13.3306 6.87195C13.3306 6.84597 13.367 6.82476 13.4116 6.82476C13.4562 6.82476 13.5063 6.78904 13.5231 6.74539C13.5398 6.70174 13.6105 6.66603 13.6801 6.66603C13.7574 6.66603 13.8068 6.63507 13.8068 6.58666C13.8068 6.53703 13.8569 6.5073 13.9407 6.5073C14.0144 6.5073 14.0883 6.47158 14.1051 6.42793C14.1218 6.38428 14.1925 6.34857 14.2622 6.34857C14.3394 6.34857 14.3888 6.31761 14.3888 6.2692C14.3888 6.21629 14.4417 6.18984 14.5475 6.18984C14.6533 6.18984 14.7062 6.16338 14.7062 6.11047C14.7062 6.05756 14.7591 6.03111 14.865 6.03111C14.9523 6.03111 15.0237 6.00756 15.0237 5.97883C15.0237 5.95005 15.1174 5.91153 15.232 5.89322C15.3467 5.87492 15.4531 5.82698 15.4685 5.78677C15.484 5.74655 15.5687 5.71364 15.657 5.71364C15.7452 5.71364 15.8173 5.6929 15.8173 5.66751C15.8173 5.64211 15.9126 5.60613 16.029 5.58751C16.1454 5.56888 16.2406 5.53015 16.2406 5.50137C16.2406 5.47264 16.3366 5.44909 16.4539 5.44909C16.5947 5.44909 16.6776 5.42211 16.6977 5.36973C16.719 5.31407 16.8059 5.29036 16.9887 5.29036C17.1715 5.29036 17.2583 5.26666 17.2797 5.211C17.3015 5.15428 17.39 5.13163 17.5898 5.13163C17.7896 5.13163 17.8782 5.10899 17.9 5.05227C17.9237 4.99036 18.0289 4.9729 18.3774 4.9729C18.688 4.9729 18.8312 4.95269 18.8464 4.90677C18.8635 4.85571 19.2524 4.84063 20.5528 4.84063C21.8532 4.84063 22.2421 4.85571 22.2591 4.90677C22.2744 4.95269 22.4173 4.9729 22.7265 4.9729C23.0871 4.9729 23.1718 4.98798 23.1718 5.05227C23.1718 5.11402 23.2424 5.13163 23.4893 5.13163C23.7362 5.13163 23.8068 5.14925 23.8068 5.211C23.8068 5.27195 23.8744 5.29036 24.0978 5.29036C24.3211 5.29036 24.3888 5.30878 24.3888 5.36973C24.3888 5.4273 24.448 5.44909 24.6042 5.44909C24.7251 5.44909 24.8544 5.48391 24.899 5.52846C24.9426 5.57211 25.0481 5.60782 25.1333 5.60782C25.2185 5.60782 25.2882 5.63163 25.2882 5.66073C25.2882 5.68984 25.3597 5.71364 25.447 5.71364C25.5528 5.71364 25.6057 5.7401 25.6057 5.79301C25.6057 5.8455 25.6582 5.87238 25.7607 5.87238C25.8459 5.87238 25.9513 5.90809 25.995 5.95174C26.0386 5.99539 26.1355 6.03111 26.2104 6.03111C26.2961 6.03111 26.3464 6.06052 26.3464 6.11047C26.3464 6.16338 26.3994 6.18984 26.5052 6.18984C26.611 6.18984 26.6639 6.21629 26.6639 6.2692C26.6639 6.32211 26.7168 6.34857 26.8226 6.34857C26.9285 6.34857 26.9814 6.37502 26.9814 6.42793C26.9814 6.47158 27.0171 6.5073 27.0607 6.5073C27.1044 6.5073 27.1401 6.5292 27.1401 6.55603C27.1401 6.5828 27.2115 6.62042 27.2988 6.63957C27.3861 6.65872 27.4576 6.69592 27.4576 6.72211C27.4576 6.74835 27.5171 6.78476 27.5898 6.80301C27.6626 6.82126 27.7221 6.85745 27.7221 6.88338C27.7221 6.90936 27.7586 6.93058 27.8031 6.93058C27.8477 6.93058 27.8979 6.96629 27.9146 7.00994C27.9314 7.05359 28.0021 7.08931 28.0717 7.08931C28.1489 7.08931 28.1983 7.12026 28.1983 7.16867C28.1983 7.21804 28.2482 7.24804 28.3306 7.24804C28.4129 7.24804 28.4628 7.27804 28.4628 7.3274C28.4628 7.37105 28.4878 7.40677 28.5183 7.40677C28.5488 7.40677 28.6273 7.46465 28.6929 7.53539C28.7585 7.60613 28.8764 7.68015 28.955 7.69984C29.0335 7.71957 29.0978 7.76883 29.0978 7.80931C29.0978 7.84984 29.1235 7.88296 29.1549 7.88296C29.2292 7.88296 29.6798 8.33354 29.6798 8.40788C29.6798 8.43925 29.7155 8.46497 29.7591 8.46497C29.8028 8.46497 29.8385 8.50068 29.8385 8.54433C29.8385 8.58798 29.8634 8.6237 29.894 8.6237C29.9244 8.6237 30.0045 8.68322 30.0719 8.75597C30.1394 8.82872 30.2216 8.88825 30.2546 8.88825C30.2877 8.88825 30.3147 8.91206 30.3147 8.94121C30.3147 8.97037 30.4099 9.08661 30.5263 9.19957C30.6427 9.31253 30.738 9.43158 30.738 9.46407C30.738 9.49655 30.7737 9.52317 30.8173 9.52317C30.861 9.52317 30.8967 9.55888 30.8967 9.60253C30.8967 9.64618 30.9324 9.6819 30.9761 9.6819C31.0197 9.6819 31.0554 9.71761 31.0554 9.76126C31.0554 9.80491 31.0912 9.84063 31.1348 9.84063C31.1842 9.84063 31.2142 9.89058 31.2142 9.9729C31.2142 10.0552 31.2442 10.1052 31.2935 10.1052C31.3372 10.1052 31.3729 10.1409 31.3729 10.1845C31.3729 10.2282 31.4086 10.2639 31.4523 10.2639C31.4959 10.2639 31.5316 10.2996 31.5316 10.3433C31.5316 10.3869 31.5528 10.4226 31.5788 10.4226C31.6047 10.4226 31.6409 10.4822 31.6592 10.5549C31.6774 10.6277 31.7158 10.6872 31.7443 10.6872C31.7728 10.6872 31.7962 10.7145 31.7962 10.748C31.7962 10.8232 32.1407 11.1634 32.2168 11.1634C32.2474 11.1634 32.2724 11.1965 32.2724 11.237C32.2724 11.2775 32.3319 11.3256 32.4046 11.3439C32.4774 11.3621 32.5369 11.4004 32.5369 11.4289C32.5369 11.46 32.792 11.4808 33.1718 11.4808C33.7009 11.4808 33.8068 11.4676 33.8068 11.4015C33.8068 11.3521 33.8567 11.3221 33.939 11.3221C34.0214 11.3221 34.0713 11.2921 34.0713 11.2427C34.0713 11.1991 34.107 11.1634 34.1507 11.1634C34.2 11.1634 34.23 11.1134 34.23 11.0311C34.23 10.9488 34.26 10.8988 34.3094 10.8988C34.3531 10.8988 34.3888 10.8657 34.3888 10.8251C34.3888 10.7846 34.4245 10.7377 34.4681 10.7209C34.532 10.6964 34.5475 10.5769 34.5475 10.1068C34.5475 9.62327 34.5339 9.52317 34.4681 9.52317C34.4245 9.52317 34.3888 9.48745 34.3888 9.4438C34.3888 9.40015 34.3665 9.36444 34.3394 9.36444C34.3123 9.36444 34.2738 9.31312 34.2538 9.25036C34.234 9.18761 34.1626 9.08523 34.0952 9.0228C34.0279 8.96042 33.9567 8.84507 33.937 8.7665C33.9172 8.68798 33.868 8.6237 33.8275 8.6237C33.787 8.6237 33.7538 8.58798 33.7538 8.54433C33.7538 8.50068 33.73 8.46497 33.7009 8.46497C33.6718 8.46497 33.648 8.42925 33.648 8.3856C33.648 8.34195 33.6149 8.30624 33.5744 8.30624C33.5339 8.30624 33.4858 8.24671 33.4676 8.17396C33.4493 8.10121 33.411 8.04169 33.3825 8.04169C33.3539 8.04169 33.3306 8.00597 33.3306 7.96232C33.3306 7.91867 33.2949 7.88296 33.2512 7.88296C33.2076 7.88296 33.1718 7.85915 33.1718 7.82999C33.1718 7.80084 33.0766 7.6846 32.9602 7.57163C32.8438 7.45867 32.7486 7.33962 32.7486 7.30714C32.7486 7.27465 32.7128 7.24804 32.6692 7.24804C32.6255 7.24804 32.5898 7.21232 32.5898 7.16867C32.5898 7.12502 32.5541 7.08931 32.5105 7.08931C32.4668 7.08931 32.4311 7.05359 32.4311 7.00994C32.4311 6.96629 32.3954 6.93058 32.3517 6.93058C32.3081 6.93058 32.2724 6.89486 32.2724 6.85121C32.2724 6.80756 32.2367 6.77185 32.193 6.77185C32.1494 6.77185 32.1136 6.74634 32.1136 6.71518C32.1136 6.6419 31.979 6.5073 31.9058 6.5073C31.8746 6.5073 31.8491 6.47158 31.8491 6.42793C31.8491 6.38428 31.8134 6.34857 31.7697 6.34857C31.7261 6.34857 31.6904 6.31285 31.6904 6.2692C31.6904 6.22555 31.6546 6.18984 31.611 6.18984C31.5673 6.18984 31.5316 6.15412 31.5316 6.11047C31.5316 6.06682 31.5067 6.03111 31.4762 6.03111C31.4457 6.03111 31.3656 5.97158 31.2982 5.89883C31.2307 5.82608 31.1486 5.76656 31.1155 5.76656C31.0825 5.76656 31.0554 5.73343 31.0554 5.6929C31.0554 5.65243 30.9959 5.60433 30.9232 5.58608C30.8504 5.56783 30.7909 5.52952 30.7909 5.501C30.7909 5.47243 30.76 5.44909 30.7223 5.44909C30.6845 5.44909 30.5952 5.37867 30.5238 5.29259C30.4525 5.20656 30.3405 5.13513 30.275 5.13386C30.2054 5.13259 30.156 5.09862 30.156 5.05227C30.156 5.00862 30.1203 4.9729 30.0766 4.9729C30.0329 4.9729 29.9972 4.93719 29.9972 4.89354C29.9972 4.84989 29.9615 4.81417 29.9179 4.81417C29.8742 4.81417 29.8385 4.79296 29.8385 4.76698C29.8385 4.74105 29.7742 4.7037 29.6957 4.68396C29.6171 4.66428 29.4992 4.59026 29.4336 4.51952C29.3681 4.44878 29.2657 4.39089 29.2061 4.39089C29.1451 4.39089 29.0978 4.35624 29.0978 4.31153C29.0978 4.25862 29.0449 4.23216 28.939 4.23216C28.8332 4.23216 28.7803 4.20571 28.7803 4.1528C28.7803 4.10915 28.7446 4.07343 28.7009 4.07343C28.6573 4.07343 28.6216 4.0501 28.6216 4.02153C28.6216 3.99301 28.5563 3.95327 28.4766 3.93322C28.3969 3.91322 28.2999 3.86518 28.2611 3.8264C28.2224 3.78767 28.1448 3.75597 28.0887 3.75597C28.0326 3.75597 27.9867 3.73481 27.9867 3.70894C27.9867 3.68312 27.9033 3.64629 27.8015 3.62719C27.6996 3.60809 27.6163 3.56973 27.6163 3.54195C27.6163 3.51417 27.5704 3.49142 27.5142 3.49142C27.4581 3.49142 27.3765 3.45571 27.3328 3.41206C27.2892 3.36841 27.1923 3.33269 27.1174 3.33269C27.0317 3.33269 26.9814 3.30327 26.9814 3.25333C26.9814 3.20042 26.9285 3.17396 26.8226 3.17396C26.7168 3.17396 26.6639 3.14751 26.6639 3.0946C26.6639 3.03767 26.6058 3.01523 26.4579 3.01523C26.3236 3.01523 26.2414 2.98761 26.2215 2.93587C26.2014 2.88349 26.1185 2.8565 25.9777 2.8565C25.8234 2.8565 25.7644 2.83454 25.7644 2.77714C25.7644 2.71835 25.7027 2.69777 25.5263 2.69777C25.3954 2.69777 25.2882 2.67666 25.2882 2.65089C25.2882 2.62507 25.1811 2.58788 25.0501 2.56825C24.9192 2.54862 24.812 2.51021 24.812 2.4829C24.812 2.45555 24.6923 2.43322 24.5459 2.43322C24.358 2.43322 24.2707 2.40984 24.2492 2.35386C24.2262 2.29391 24.1294 2.27449 23.854 2.27449C23.5651 2.27449 23.4893 2.25798 23.4893 2.19513C23.4893 2.13015 23.398 2.11576 22.985 2.11576C22.5855 2.11576 22.4744 2.09925 22.4503 2.0364C22.424 1.96793 22.1634 1.95703 20.5515 1.95703C19.104 1.95703 18.6783 1.9719 18.6613 2.02317ZM5.34115 15.4958C5.34115 15.5214 5.13877 15.5593 4.89141 15.5798C4.64406 15.6005 4.44168 15.6371 4.44168 15.6613C4.44168 15.6854 4.37025 15.7209 4.28295 15.7401C4.19565 15.7593 4.12422 15.7943 4.12422 15.8179C4.12422 15.8416 4.0647 15.8759 3.99194 15.8941C3.91919 15.9124 3.85967 15.9507 3.85967 15.9792C3.85967 16.0078 3.82395 16.0311 3.7803 16.0311C3.73665 16.0311 3.70094 16.0557 3.70094 16.0857C3.70094 16.1157 3.65925 16.156 3.60835 16.1753C3.48951 16.2203 3.38348 16.3252 3.38348 16.3977C3.38348 16.4289 3.34776 16.4544 3.30411 16.4544C3.26046 16.4544 3.22475 16.4908 3.22475 16.5354C3.22475 16.58 3.18903 16.6302 3.14538 16.6469C3.10173 16.6636 3.06602 16.7105 3.06602 16.7511C3.06602 16.7916 3.0303 16.8248 2.98665 16.8248C2.93798 16.8248 2.90729 16.8742 2.90729 16.9526C2.90729 17.023 2.88115 17.0892 2.84919 17.0998C2.81723 17.1105 2.77808 17.2375 2.76216 17.3821C2.74628 17.5266 2.71332 17.6579 2.68893 17.6739C2.62163 17.7179 2.62607 21.7663 2.69343 21.7887C2.72374 21.7988 2.74856 21.9004 2.74856 22.0143C2.74856 22.1633 2.77089 22.2216 2.82792 22.2216C2.88083 22.2216 2.90729 22.2745 2.90729 22.3803C2.90729 22.4861 2.93374 22.539 2.98665 22.539C3.0303 22.539 3.06602 22.5748 3.06602 22.6184C3.06602 22.6621 3.10173 22.6978 3.14538 22.6978C3.18903 22.6978 3.22475 22.7335 3.22475 22.7771C3.22475 22.8208 3.26046 22.8565 3.30411 22.8565C3.34776 22.8565 3.38348 22.882 3.38348 22.9132C3.38348 22.9864 3.51808 23.1211 3.59136 23.1211C3.62253 23.1211 3.64803 23.1568 3.64803 23.2004C3.64803 23.2441 3.68448 23.2798 3.72903 23.2798C3.77364 23.2798 3.8238 23.3155 3.84052 23.3591C3.85729 23.4028 3.92798 23.4385 3.99761 23.4385C4.07485 23.4385 4.12422 23.4695 4.12422 23.5179C4.12422 23.5748 4.18237 23.5972 4.3302 23.5972C4.46448 23.5972 4.54676 23.6249 4.56665 23.6766C4.59147 23.7413 4.71956 23.756 5.26014 23.756C5.81422 23.756 5.92316 23.743 5.92316 23.6766C5.92316 23.6197 5.98131 23.5972 6.12914 23.5972C6.26343 23.5972 6.3457 23.5696 6.36559 23.5179C6.38231 23.4742 6.43247 23.4385 6.47708 23.4385C6.52163 23.4385 6.55808 23.4163 6.55808 23.3891C6.55808 23.362 6.60798 23.324 6.66898 23.3046C6.72999 23.2853 6.87004 23.1765 6.98025 23.063C7.09046 22.9494 7.20723 22.8565 7.23972 22.8565C7.27221 22.8565 7.29882 22.7851 7.29882 22.6978C7.29882 22.592 7.32528 22.539 7.37819 22.539C7.42184 22.539 7.45755 22.5135 7.45755 22.4824C7.45755 22.4512 7.49327 22.3899 7.53692 22.3463C7.58057 22.3026 7.61628 22.1997 7.61628 22.1177C7.61628 22.0324 7.65104 21.955 7.69729 21.9373C7.76856 21.9099 7.77649 21.6302 7.76343 19.5948C7.75189 17.8033 7.73369 17.2783 7.68242 17.2613C7.64607 17.2491 7.61628 17.1698 7.61628 17.0849C7.61628 16.983 7.5893 16.9306 7.53692 16.9306C7.48755 16.9306 7.45755 16.8806 7.45755 16.7983C7.45755 16.716 7.42755 16.666 7.37819 16.666C7.33411 16.666 7.29882 16.619 7.29882 16.5602C7.29882 16.502 7.27221 16.4544 7.23972 16.4544C7.20723 16.4544 7.08819 16.3591 6.97522 16.2427C6.86226 16.1263 6.74602 16.0311 6.71686 16.0311C6.68771 16.0311 6.6639 15.9954 6.6639 15.9517C6.6639 15.9024 6.61395 15.8724 6.53163 15.8724C6.45888 15.8724 6.39935 15.8505 6.39935 15.8236C6.39935 15.7969 6.32792 15.7593 6.24062 15.7401C6.15332 15.7209 6.08189 15.6845 6.08189 15.6591C6.08189 15.6338 5.93903 15.5969 5.76443 15.5771C5.58983 15.5574 5.44697 15.5205 5.44697 15.4952C5.44697 15.4698 5.42316 15.4491 5.39406 15.4491C5.36496 15.4491 5.34115 15.4701 5.34115 15.4958ZM35.447 15.4988C35.447 15.5261 35.2803 15.5649 35.0766 15.585C34.8729 15.6051 34.7062 15.6422 34.7062 15.6676C34.7062 15.6929 34.6348 15.7136 34.5475 15.7136C34.4417 15.7136 34.3888 15.7401 34.3888 15.793C34.3888 15.8426 34.3386 15.8724 34.2549 15.8724C34.1811 15.8724 34.1072 15.9081 34.0905 15.9517C34.0737 15.9954 34.0268 16.0311 33.9863 16.0311C33.9457 16.0311 33.9126 16.0544 33.9126 16.083C33.9126 16.1115 33.8531 16.1498 33.7803 16.1681C33.7076 16.1863 33.648 16.2344 33.648 16.2749C33.648 16.3154 33.6123 16.3486 33.5687 16.3486C33.5193 16.3486 33.4893 16.3985 33.4893 16.4808C33.4893 16.5632 33.4593 16.6131 33.4099 16.6131C33.3663 16.6131 33.3306 16.6488 33.3306 16.6925C33.3306 16.7361 33.2949 16.7718 33.2512 16.7718C33.1988 16.7718 33.1718 16.8243 33.1718 16.9262C33.1718 17.0111 33.145 17.0894 33.1122 17.1004C33.0794 17.1113 33.0407 17.2442 33.0261 17.3958C33.0116 17.5473 32.9789 17.6713 32.9535 17.6713C32.928 17.6713 32.9073 18.5608 32.9073 19.6554C32.9073 20.7501 32.928 21.6396 32.9535 21.6396C32.9789 21.6396 33.0116 21.7635 33.0261 21.9151C33.0407 22.0667 33.0794 22.1996 33.1122 22.2105C33.145 22.2215 33.1718 22.2998 33.1718 22.3847C33.1718 22.4866 33.1988 22.539 33.2512 22.539C33.2949 22.539 33.3306 22.5748 33.3306 22.6184C33.3306 22.6621 33.3663 22.6978 33.4099 22.6978C33.4536 22.6978 33.4893 22.7235 33.4893 22.7549C33.4893 22.8292 33.9399 23.2798 34.0142 23.2798C34.0456 23.2798 34.0713 23.3155 34.0713 23.3591C34.0713 23.4121 34.1242 23.4385 34.23 23.4385C34.3359 23.4385 34.3888 23.465 34.3888 23.5179C34.3888 23.5767 34.4505 23.5972 34.6269 23.5972C34.8032 23.5972 34.865 23.6178 34.865 23.6766C34.865 23.7429 34.9737 23.756 35.5263 23.756C36.0789 23.756 36.1877 23.7429 36.1877 23.6766C36.1877 23.6178 36.2495 23.5972 36.4258 23.5972C36.6022 23.5972 36.6639 23.5767 36.6639 23.5179C36.6639 23.4738 36.7109 23.4385 36.7698 23.4385C36.828 23.4385 36.9681 23.3433 37.081 23.2269C37.194 23.1105 37.3131 23.0152 37.3455 23.0152C37.378 23.0152 37.4046 22.9795 37.4046 22.9359C37.4046 22.8922 37.4404 22.8565 37.484 22.8565C37.5277 22.8565 37.5634 22.8208 37.5634 22.7771C37.5634 22.7335 37.5991 22.6978 37.6427 22.6978C37.6864 22.6978 37.7221 22.6621 37.7221 22.6184C37.7221 22.5748 37.7578 22.539 37.8015 22.539C37.8544 22.539 37.8808 22.4861 37.8808 22.3803C37.8808 22.2745 37.9073 22.2216 37.9602 22.2216C38.0211 22.2216 38.0396 22.154 38.0396 21.9306C38.0396 21.7705 38.0634 21.6396 38.0925 21.6396C38.1268 21.6396 38.1454 20.9694 38.1454 19.7348C38.1454 18.6677 38.1248 17.83 38.0986 17.83C38.0729 17.83 38.0419 17.6736 38.0298 17.4825C38.0176 17.2914 37.9823 17.1187 37.9514 17.0989C37.9204 17.0791 37.8784 17.0093 37.8579 16.9438C37.8375 16.8783 37.7986 16.8248 37.7715 16.8248C37.7443 16.8248 37.7221 16.8021 37.7221 16.7744C37.7221 16.7087 37.2033 16.1898 37.1376 16.1898C37.1099 16.1898 37.0872 16.1541 37.0872 16.1105C37.0872 16.0668 37.0515 16.0311 37.0078 16.0311C36.9642 16.0311 36.9285 16.0078 36.9285 15.9792C36.9285 15.9507 36.8689 15.9124 36.7962 15.8941C36.7234 15.8759 36.6639 15.8416 36.6639 15.8179C36.6639 15.7943 36.5925 15.7593 36.5052 15.7401C36.4179 15.7209 36.3464 15.6857 36.3464 15.6617C36.3464 15.6378 36.2036 15.6016 36.029 15.5814C35.8544 15.5611 35.7115 15.5231 35.7115 15.4968C35.7115 15.4706 35.652 15.4491 35.5792 15.4491C35.5065 15.4491 35.447 15.4715 35.447 15.4988ZM21.0554 18.9941C21.0554 20.4652 21.0672 20.7401 21.1304 20.7401C21.1716 20.7401 21.2153 20.7699 21.2273 20.8062C21.2424 20.8513 21.4124 20.8782 21.7609 20.8907L22.2724 20.909V19.2108C22.2724 18.1359 22.2533 17.5126 22.2205 17.5126C22.1919 17.5126 22.1536 17.4531 22.1354 17.3803C22.1027 17.2504 22.093 17.248 21.5788 17.248H21.0554V18.9941ZM13.8068 19.0464C13.8068 21.031 13.759 20.8988 14.4755 20.8988C14.7432 20.8988 14.9998 20.8844 15.0458 20.8667C15.1139 20.8406 15.1295 20.7424 15.1295 20.3419C15.1295 20.071 15.144 19.8116 15.1616 19.7656C15.1874 19.6985 15.2817 19.6819 15.6378 19.6819H16.0819V20.1883C16.0819 20.8541 16.0943 20.8666 16.779 20.8906L17.2988 20.9087V19.29C17.2988 17.8864 17.2883 17.6713 17.2195 17.6713C17.1701 17.6713 17.1401 17.6214 17.1401 17.539V17.4068H16.611H16.0819V18.0173V18.6278L15.6189 18.6125L15.156 18.5972L15.1406 18.1612C15.126 17.7478 15.1185 17.7235 14.9951 17.6925C14.9235 17.6745 14.865 17.6369 14.865 17.6089C14.865 17.4614 14.7014 17.4068 14.2603 17.4068H13.8068V19.0464ZM25.9232 17.9844C25.9232 18.3986 25.9418 18.5682 25.9891 18.584C26.033 18.5986 26.0614 18.7596 26.0739 19.0645C26.0843 19.3168 26.1138 19.5232 26.1396 19.5232C26.2158 19.5232 26.3994 19.6997 26.3994 19.773C26.3994 19.8129 26.3342 19.8406 26.2406 19.8406C26.1533 19.8406 26.0819 19.8644 26.0819 19.8935C26.0819 19.9226 26.0462 19.9464 26.0025 19.9464C25.939 19.9464 25.9232 20.0258 25.9232 20.3433C25.9232 20.6607 25.939 20.7401 26.0025 20.7401C26.0462 20.7401 26.0819 20.7639 26.0819 20.793C26.0819 20.8221 26.1176 20.8459 26.1613 20.8459C26.2049 20.8459 26.2406 20.8816 26.2406 20.9253C26.2406 20.9891 26.3223 21.0047 26.6582 21.0047C27.1453 21.0047 27.1401 21.0104 27.1401 20.4712C27.1401 20.1811 27.1236 20.1052 27.0607 20.1052C27.0171 20.1052 26.9814 20.0695 26.9814 20.0258C26.9814 19.9822 26.9456 19.9464 26.902 19.9464C26.8583 19.9464 26.8226 19.9226 26.8226 19.8935C26.8226 19.8644 26.8583 19.8406 26.902 19.8406C26.9606 19.8406 26.9814 19.7794 26.9814 19.6069C26.9814 19.4759 27.0085 19.3642 27.0431 19.3527C27.0833 19.3393 27.1134 19.1247 27.1293 18.7398C27.1427 18.414 27.1744 18.1475 27.1998 18.1475C27.2252 18.1475 27.2459 18.0506 27.2459 17.9321C27.2459 17.7243 27.1559 17.5655 27.038 17.5655C27.0069 17.5655 26.9814 17.5298 26.9814 17.4861C26.9814 17.4209 26.8873 17.4068 26.4523 17.4068H25.9232V17.9844ZM18.5158 18.2269C18.5158 18.2798 18.4628 18.3062 18.357 18.3062C18.2512 18.3062 18.1983 18.3327 18.1983 18.3856C18.1983 18.4293 18.1747 18.465 18.146 18.465C18.078 18.465 17.8808 18.634 17.8808 18.6922C17.8808 18.7169 17.8451 18.7728 17.8015 18.8165C17.7578 18.8601 17.7221 18.9894 17.7221 19.1036C17.7221 19.218 17.6983 19.3115 17.6692 19.3115C17.6401 19.3115 17.6163 19.3949 17.6163 19.4967C17.6163 19.5986 17.6371 19.6819 17.6625 19.6819C17.6879 19.6819 17.7206 19.8059 17.7351 19.9575C17.7497 20.109 17.7884 20.2419 17.8212 20.2529C17.854 20.2638 17.8808 20.3064 17.8808 20.3477C17.8808 20.3889 17.9165 20.4226 17.9602 20.4226C18.0038 20.4226 18.0396 20.4584 18.0396 20.502C18.0396 20.5457 18.0753 20.5814 18.1189 20.5814C18.1626 20.5814 18.1983 20.6047 18.1983 20.6333C18.1983 20.6618 18.2578 20.7001 18.3306 20.7184C18.4033 20.7366 18.4628 20.7717 18.4628 20.7963C18.4628 20.821 18.5462 20.8568 18.648 20.8759C18.7499 20.895 18.8332 20.9318 18.8332 20.9576C18.8332 20.9835 19.0951 21.0047 19.4152 21.0047C19.7353 21.0047 19.9972 20.9827 19.9972 20.9559C19.9972 20.9291 20.0687 20.8915 20.156 20.8724C20.2433 20.8532 20.3147 20.8182 20.3147 20.7945C20.3147 20.7709 20.3726 20.737 20.4434 20.7193C20.5143 20.7015 20.5889 20.6334 20.6093 20.568C20.6297 20.5026 20.6638 20.4372 20.6851 20.4226C20.7063 20.4081 20.7405 20.3425 20.7609 20.2769C20.7873 20.1925 20.7738 20.1482 20.7152 20.1257C20.6019 20.0822 20.6024 19.7877 20.7158 19.7877C20.7873 19.7877 20.7939 19.7367 20.7616 19.4306C20.7409 19.2342 20.7065 19.0615 20.6852 19.047C20.6638 19.0324 20.6297 18.967 20.6092 18.9015C20.5888 18.836 20.5499 18.7824 20.5228 18.7824C20.4956 18.7824 20.4734 18.7467 20.4734 18.7031C20.4734 18.6594 20.4377 18.6237 20.3941 18.6237C20.3504 18.6237 20.3147 18.588 20.3147 18.5443C20.3147 18.495 20.2647 18.465 20.1824 18.465C20.1001 18.465 20.0501 18.435 20.0501 18.3856C20.0501 18.3325 19.9971 18.3062 19.8898 18.3062C19.796 18.3062 19.7167 18.2733 19.6989 18.2269C19.6744 18.1631 19.5556 18.1475 19.0921 18.1475C18.6151 18.1475 18.5158 18.1612 18.5158 18.2269ZM22.7486 19.9729C22.7486 21.5125 22.7603 21.7983 22.8235 21.7983C22.8647 21.7983 22.9079 21.8267 22.9195 21.8613C22.9433 21.9329 23.5716 21.9877 23.777 21.9361C23.9047 21.9041 23.9092 21.8873 23.9239 21.3877C23.939 20.8728 23.9391 20.8724 24.0713 20.8871C24.1441 20.8953 24.2115 20.9251 24.2212 20.9533C24.2434 21.0177 25.0237 21.0218 25.0237 20.9575C25.0237 20.9315 25.0832 20.8953 25.156 20.8771C25.2287 20.8588 25.2882 20.8205 25.2882 20.792C25.2882 20.7634 25.324 20.7401 25.3676 20.7401C25.4113 20.7401 25.447 20.7055 25.447 20.6634C25.447 20.6212 25.4793 20.5676 25.5189 20.5443C25.5584 20.5211 25.6037 20.3838 25.6195 20.2392C25.6353 20.0947 25.6744 19.9677 25.7063 19.957C25.739 19.9461 25.7644 19.8122 25.7644 19.6511C25.7644 19.4316 25.7459 19.3644 25.6851 19.3644C25.6263 19.3644 25.6057 19.3027 25.6057 19.1263C25.6057 18.9954 25.5824 18.8882 25.5538 18.8882C25.5253 18.8882 25.487 18.8287 25.4687 18.756C25.4505 18.6832 25.4024 18.6237 25.3619 18.6237C25.3214 18.6237 25.2882 18.5906 25.2882 18.55C25.2882 18.5096 25.2287 18.4615 25.156 18.4432C25.0832 18.425 25.0237 18.3867 25.0237 18.3581C25.0237 18.3296 24.988 18.3062 24.9443 18.3062C24.9007 18.3062 24.865 18.2705 24.865 18.2269C24.865 18.1625 24.7797 18.1475 24.4152 18.1475C24.0507 18.1475 23.9655 18.1625 23.9655 18.2269C23.9655 18.2709 23.9185 18.3062 23.8597 18.3062C23.8015 18.3062 23.7538 18.33 23.7538 18.3591C23.7538 18.4775 23.5434 18.4087 23.511 18.2798C23.4796 18.1547 23.458 18.1475 23.1132 18.1475H22.7486V19.9729ZM19.1847 18.9676C19.141 19.0113 19.0679 19.047 19.0222 19.047C18.9764 19.047 18.939 19.0827 18.939 19.1263C18.939 19.1881 19.0096 19.2057 19.2565 19.2057C19.5034 19.2057 19.574 19.1881 19.574 19.1263C19.574 19.0827 19.5382 19.047 19.4946 19.047C19.4509 19.047 19.4152 19.0113 19.4152 18.9676C19.4152 18.924 19.3812 18.8882 19.3396 18.8882C19.2981 18.8882 19.2283 18.924 19.1847 18.9676ZM24.0713 19.122C24.0713 19.1632 24.0452 19.2056 24.0132 19.2162C23.9379 19.2414 23.8895 19.6744 23.9349 19.9167C23.9684 20.095 23.9816 20.1052 24.1795 20.1052C24.3681 20.1052 24.3888 20.092 24.3888 19.9713C24.3888 19.8976 24.4245 19.8236 24.4681 19.8069C24.5251 19.785 24.5475 19.6959 24.5475 19.4911C24.5475 19.2727 24.5289 19.2057 24.4681 19.2057C24.4245 19.2057 24.3888 19.17 24.3888 19.1263C24.3888 19.0734 24.3359 19.047 24.23 19.047C24.1283 19.047 24.0713 19.0739 24.0713 19.122ZM18.9258 19.892C18.8227 20.0128 18.8055 20.1052 18.8861 20.1052C18.9152 20.1052 18.939 20.1409 18.939 20.1845C18.939 20.2433 19.0008 20.2639 19.1771 20.2639C19.3535 20.2639 19.4152 20.2433 19.4152 20.1845C19.4152 20.1409 19.4525 20.1052 19.4981 20.1052C19.5573 20.1052 19.5762 20.0636 19.5642 19.9597C19.5488 19.825 19.5278 19.813 19.2829 19.7988C19.0697 19.7864 19.0005 19.8045 18.9258 19.892ZM20.0501 32.5843C20.0501 32.6093 19.6783 32.6422 19.2238 32.6575C18.7398 32.6737 18.3834 32.708 18.3635 32.7402C18.3448 32.7705 18.2643 32.8116 18.1845 32.8316C18.1048 32.8516 18.0396 32.8866 18.0396 32.9094C18.0396 32.9322 17.977 32.9666 17.9005 32.9858C17.7524 33.0229 17.4576 33.2864 17.4576 33.3815C17.4576 33.4128 17.4218 33.4385 17.3782 33.4385C17.3345 33.4385 17.2988 33.4742 17.2988 33.5179C17.2988 33.5615 17.2631 33.5972 17.2195 33.5972C17.1758 33.5972 17.1401 33.633 17.1401 33.6766C17.1401 33.7203 17.1044 33.756 17.0607 33.756C17.0078 33.756 16.9814 33.8089 16.9814 33.9147C16.9814 34.0205 16.9549 34.0734 16.902 34.0734C16.845 34.0734 16.8226 34.1317 16.8226 34.2807C16.8226 34.3994 16.7944 34.4973 16.7565 34.5099C16.7083 34.526 16.6904 34.7095 16.6904 35.1845C16.6904 35.6596 16.7083 35.8431 16.7565 35.8591C16.7944 35.8718 16.8226 35.9697 16.8226 36.0884C16.8226 36.2374 16.845 36.2957 16.902 36.2957C16.9549 36.2957 16.9814 36.3486 16.9814 36.4544C16.9814 36.5602 17.0078 36.6131 17.0607 36.6131C17.1044 36.6131 17.1401 36.6488 17.1401 36.6925C17.1401 36.7361 17.1758 36.7718 17.2195 36.7718C17.2631 36.7718 17.2988 36.7975 17.2988 36.8288C17.2988 36.8602 17.3684 36.9554 17.4535 37.0405C17.5386 37.1255 17.6338 37.1951 17.6651 37.1951C17.6964 37.1951 17.7221 37.2308 17.7221 37.2745C17.7221 37.3186 17.7691 37.3539 17.8279 37.3539C17.8867 37.3539 17.9337 37.3891 17.9337 37.4332C17.9337 37.4888 17.9898 37.5126 18.1206 37.5126C18.2379 37.5126 18.3188 37.5422 18.3379 37.592C18.3598 37.6489 18.4489 37.6713 18.6537 37.6713C18.8106 37.6713 18.939 37.6951 18.939 37.7242C18.939 37.7585 19.5828 37.7771 20.7644 37.7771C21.9461 37.7771 22.5898 37.7585 22.5898 37.7242C22.5898 37.6951 22.7225 37.6713 22.8846 37.6713C23.0761 37.6713 23.2072 37.6435 23.2588 37.592C23.3024 37.5483 23.4079 37.5126 23.4931 37.5126C23.5955 37.5126 23.648 37.4857 23.648 37.4332C23.648 37.3896 23.6837 37.3539 23.7274 37.3539C23.771 37.3539 23.8068 37.3181 23.8068 37.2745C23.8068 37.2308 23.8324 37.1951 23.8637 37.1951C23.8951 37.1951 23.9903 37.1255 24.0754 37.0405C24.1605 36.9554 24.23 36.8602 24.23 36.8288C24.23 36.7975 24.2658 36.7718 24.3094 36.7718C24.3531 36.7718 24.3888 36.7361 24.3888 36.6925C24.3888 36.6488 24.4245 36.6131 24.4681 36.6131C24.521 36.6131 24.5475 36.5602 24.5475 36.4544C24.5475 36.3486 24.574 36.2957 24.6269 36.2957C24.6768 36.2957 24.7062 36.2453 24.7062 36.1596C24.7062 36.0848 24.7419 35.9878 24.7856 35.9442C24.8488 35.8809 24.865 35.7095 24.865 35.1014C24.865 34.4581 24.8525 34.338 24.7856 34.338C24.7327 34.338 24.7062 34.2851 24.7062 34.1793C24.7062 34.0734 24.6798 34.0205 24.6269 34.0205C24.5775 34.0205 24.5475 33.9706 24.5475 33.8882C24.5475 33.8059 24.5175 33.756 24.4681 33.756C24.4245 33.756 24.3888 33.7311 24.3888 33.7005C24.3888 33.67 24.3292 33.5899 24.2565 33.5225C24.1837 33.4551 24.1242 33.3729 24.1242 33.3398C24.1242 33.3068 24.0885 33.2798 24.0449 33.2798C24.0012 33.2798 23.9655 33.2441 23.9655 33.2004C23.9655 33.1568 23.9323 33.1211 23.8918 33.1211C23.8513 33.1211 23.8044 33.0853 23.7876 33.0417C23.7709 32.998 23.7088 32.9623 23.6497 32.9623C23.5906 32.9623 23.5422 32.9411 23.5422 32.9151C23.5422 32.8892 23.477 32.8516 23.3972 32.8316C23.3175 32.8116 23.2371 32.7707 23.2187 32.7408C23.1989 32.7089 22.8108 32.6746 22.279 32.6579C21.7806 32.6422 21.3729 32.609 21.3729 32.5842C21.3729 32.5594 21.0753 32.539 20.7115 32.539C20.3478 32.539 20.0501 32.5594 20.0501 32.5843Z" fill="#12355A" fill-opacity="0.72"/>
</svg>