<svg width="80" height="80" viewBox="0 0 80 80" fill="none" xmlns="http://www.w3.org/2000/svg">
<path d="M72.0162 7.5H24.2637C23.8724 7.49968 23.4848 7.57643 23.1232 7.72589C22.7615 7.87534 22.4328 8.09457 22.1558 8.37106C21.8789 8.64754 21.6591 8.97587 21.509 9.3373C21.359 9.69872 21.2816 10.0862 21.2812 10.4775V23.75L48.9537 31.875L75.0012 23.75V10.4775C75.0009 10.086 74.9234 9.69831 74.7732 9.33672C74.623 8.97513 74.403 8.64669 74.1258 8.37017C73.8486 8.09365 73.5196 7.87448 73.1576 7.72517C72.7956 7.57586 72.4078 7.49935 72.0162 7.5Z" fill="#41A5EE"/>
<path d="M75.0012 23.75H21.2812V40L48.9537 44.875L75.0012 40V23.75Z" fill="#2B7CD3"/>
<path d="M21.2812 40V56.25L47.3263 59.5L75.0012 56.25V40H21.2812Z" fill="#185ABD"/>
<path d="M24.2637 72.5H72.0137C72.4055 72.501 72.7936 72.4247 73.1559 72.2756C73.5181 72.1264 73.8474 71.9073 74.1249 71.6307C74.4024 71.3542 74.6226 71.0256 74.773 70.6639C74.9234 70.3021 75.0009 69.9143 75.0012 69.5225V56.25H21.2812V69.5225C21.2816 69.9138 21.359 70.3013 21.509 70.6627C21.6591 71.0241 21.8789 71.3525 22.1558 71.6289C22.4328 71.9054 22.7615 72.1247 23.1232 72.2741C23.4848 72.4236 23.8724 72.5003 24.2637 72.5Z" fill="#103F91"/>
<path opacity="0.1" d="M41.0863 20.5H21.2812V61.125H41.0863C41.8754 61.1211 42.6313 60.8064 43.19 60.249C43.7487 59.6917 44.0653 58.9367 44.0713 58.1475V23.4775C44.0653 22.6883 43.7487 21.9333 43.19 21.376C42.6313 20.8186 41.8754 20.5039 41.0863 20.5Z" fill="#333333"/>
<path opacity="0.2" d="M39.4587 22.125H21.2812V62.75H39.4587C40.2479 62.7461 41.0038 62.4314 41.5625 61.874C42.1212 61.3167 42.4378 60.5617 42.4437 59.7725V25.1025C42.4378 24.3133 42.1212 23.5583 41.5625 23.001C41.0038 22.4436 40.2479 22.1289 39.4587 22.125Z" fill="#333333"/>
<path opacity="0.2" d="M39.4587 22.125H21.2812V59.5H39.4587C40.2479 59.4961 41.0038 59.1814 41.5625 58.624C42.1212 58.0667 42.4378 57.3116 42.4437 56.5225V25.1025C42.4378 24.3133 42.1212 23.5583 41.5625 23.001C41.0038 22.4436 40.2479 22.1289 39.4587 22.125Z" fill="#333333"/>
<path opacity="0.2" d="M37.8312 22.125H21.2812V59.5H37.8312C38.6204 59.4961 39.3763 59.1814 39.935 58.624C40.4937 58.0667 40.8103 57.3116 40.8162 56.5225V25.1025C40.8103 24.3133 40.4937 23.5583 39.935 23.001C39.3763 22.4436 38.6204 22.1289 37.8312 22.125Z" fill="#333333"/>
<path d="M7.985 22.125H37.83C38.6206 22.1243 39.3791 22.4376 39.9388 22.9959C40.4985 23.5542 40.8137 24.3119 40.815 25.1025V54.8975C40.8137 55.6881 40.4985 56.4458 39.9388 57.0041C39.3791 57.5624 38.6206 57.8757 37.83 57.875H7.985C7.59345 57.8757 7.20561 57.7991 6.84365 57.6498C6.48168 57.5005 6.15269 57.2814 5.87547 57.0048C5.59826 56.7283 5.37825 56.3999 5.22803 56.0383C5.07782 55.6767 5.00033 55.2891 5 54.8975V25.1025C5.00033 24.711 5.07782 24.3233 5.22803 23.9617C5.37825 23.6001 5.59826 23.2717 5.87547 22.9952C6.15269 22.7187 6.48168 22.4995 6.84365 22.3502C7.20561 22.2009 7.59345 22.1243 7.985 22.125Z" fill="url(#paint0_linear_5388_40190)"/>
<path d="M17.2516 44.9708C17.3091 45.4308 17.3491 45.8308 17.3666 46.1733H17.4366C17.4616 45.8483 17.5166 45.4558 17.5991 44.9983C17.6816 44.5408 17.7541 44.1533 17.8216 43.8358L20.9591 30.3183H25.0191L28.2691 43.6333C28.4584 44.4569 28.5937 45.292 28.6741 46.1333H28.7291C28.7888 45.3143 28.9015 44.5001 29.0666 43.6958L31.6641 30.3008H35.3566L30.7966 49.6708H26.4791L23.3866 36.8558C23.2966 36.4858 23.1949 36.0041 23.0816 35.4108C22.9682 34.8174 22.8982 34.3841 22.8716 34.1108H22.8191C22.7841 34.4258 22.7141 34.8933 22.6091 35.5133C22.5041 36.1358 22.4216 36.5933 22.3591 36.8933L19.4516 49.6783H15.0616L10.4766 30.3183H14.2266L17.0541 43.8633C17.1385 44.2289 17.2044 44.5985 17.2516 44.9708Z" fill="white"/>
<defs>
<linearGradient id="paint0_linear_5388_40190" x1="11.235" y1="19.785" x2="34.58" y2="60.215" gradientUnits="userSpaceOnUse">
<stop stop-color="#2368C4"/>
<stop offset="0.5" stop-color="#1A5DBE"/>
<stop offset="1" stop-color="#1146AC"/>
</linearGradient>
</defs>
</svg>
