<svg xmlns="http://www.w3.org/2000/svg" width="283" height="142" viewBox="0 0 283 142" fill="none">
  <path opacity="0.02" fill-rule="evenodd" clip-rule="evenodd" d="M-21.0263 -124.777C-18.6529 -123.765 -14.5672 -121.574 -12.6258 -120.273C-9.38138 -118.1 -7.8335 -116.817 -5.00866 -113.962C-1.44682 -110.362 1.21376 -106.679 3.47734 -102.216C6.76345 -95.7376 8.33615 -89.6876 8.70205 -82.1188L8.81408 -79.7984L5.19317 -76.1839C2.03261 -73.0289 1.59375 -72.6515 1.74078 -73.2138C2.26982 -75.2381 2.55295 -80.1251 2.3213 -83.2326C1.85966 -89.4225 0.508808 -94.3205 -2.18419 -99.5683C-4.325 -103.74 -6.78708 -107.025 -10.3984 -110.528C-15.4705 -115.448 -21.4124 -118.802 -28.139 -120.541C-29.7984 -120.97 -33.3456 -121.659 -33.8939 -121.659C-33.9459 -121.659 -33.9885 -120.573 -33.9885 -119.245C-33.9885 -117.918 -33.9161 -116.832 -33.8276 -116.832C-33.2273 -116.832 -30.0658 -116.167 -28.5149 -115.715C-16.9811 -112.349 -7.80017 -103.476 -4.10186 -92.119C-2.67305 -87.7309 -2.42066 -86.0509 -2.41825 -80.9122C-2.41696 -77.9001 -2.49714 -76.0553 -2.6662 -75.2168C-2.98044 -73.6584 -2.76009 -72.8626 -1.81458 -72.1396C-1.30331 -71.7488 -0.94463 -71.6317 -0.257076 -71.6311L0.636021 -71.6306L-13.8524 -57.1026L-28.3407 -42.5744L-28.4385 -43.3817C-28.5503 -44.306 -28.9712 -45.0361 -29.6484 -45.4808C-30.0352 -45.735 -30.4043 -45.7688 -31.7503 -45.673C-32.6482 -45.6091 -33.5191 -45.5044 -33.6858 -45.4404C-33.9435 -45.3411 -33.9885 -44.9815 -33.9885 -43.0232C-33.9885 -40.9538 -33.9559 -40.7233 -33.6645 -40.7285C-33.1736 -40.7372 -30.7502 -41.0644 -30.1585 -41.2018C-29.7349 -41.3004 -30.0454 -40.9091 -31.8127 -39.1173L-33.9885 -36.9117L-33.9785 -33.3874L-33.9687 -29.8632L-33.4693 -30.5021C-33.1947 -30.8535 -22.554 -41.5877 -9.82321 -54.3559L13.3236 -77.5708L13.307 -81.6547C13.2831 -87.474 12.6374 -91.4693 10.8319 -96.9694C7.26417 -107.838 -0.0424614 -117.503 -9.49212 -123.854L-11.1978 -125L-16.3436 -124.987C-20.1567 -124.978 -21.3694 -124.924 -21.0263 -124.777ZM2.66702 -121.705C7.26787 -117.065 10.3055 -112.925 13.2275 -107.31C14.8528 -104.187 16.6107 -99.859 17.3143 -97.2479C18.8319 -91.6173 19.3996 -88.0912 19.6309 -82.8613C19.71 -81.0741 19.8516 -79.8001 20.0047 -79.4986C20.3527 -78.8136 21.4337 -78.3397 22.3633 -78.4648C23.0794 -78.561 21.9026 -77.3538 -5.43882 -49.9444L-33.9885 -21.3237V-17.9827V-14.6417L-1.86088 -46.8484L30.2666 -79.0549L63.9236 -45.3167L97.5806 -11.5783H98.4585C100.067 -11.5783 101.34 -13.2461 100.814 -14.6649C100.699 -14.9775 87.5606 -28.2903 69.0531 -46.8486L37.4893 -78.499H38.5219C39.4785 -78.499 39.6011 -78.5502 40.191 -79.1955L40.8277 -79.8918L40.7786 -97.4491L40.7295 -115.006L40.1247 -115.548C39.7922 -115.846 39.3964 -116.09 39.2452 -116.09C39.0941 -116.09 38.9704 -116.134 38.9704 -116.189C38.9704 -116.243 40.7612 -118.102 42.9498 -120.319L46.9294 -124.35L46.931 -101.279C46.9331 -76.4039 46.8962 -77.3547 47.8854 -76.6659C48.285 -76.3876 81.3202 -43.3594 90.8347 -33.7256C95.5492 -28.9519 94.8058 -29.3269 99.3575 -29.4284C102.639 -29.5016 103.003 -29.6374 103.514 -30.9785C103.788 -31.6972 103.793 -31.8723 103.556 -32.5877C103.382 -33.1131 103.078 -33.5344 102.675 -33.8079C102.116 -34.188 101.842 -34.2257 99.634 -34.228L97.2078 -34.2304L94.1062 -37.2794C92.4001 -38.9566 91.0045 -40.3546 91.0045 -40.3865C91.0047 -40.4183 94.4419 -40.4443 98.6429 -40.4443H106.281L106.879 -40.8712C108.049 -41.7084 108.115 -43.5913 107.01 -44.6321L106.53 -45.0851L98.8133 -45.1319C92.9168 -45.1677 90.9921 -45.1241 90.6519 -44.9462C89.9058 -44.5566 89.4403 -43.7593 89.4351 -42.8625L89.4305 -42.0468L88.9918 -42.4521C88.4068 -42.9926 59.9449 -71.532 59.7277 -71.796C59.6075 -71.9419 59.8273 -72.0024 60.4832 -72.0037C61.3134 -72.0052 61.473 -72.0763 62.0405 -72.697L62.6727 -73.3887V-95.296V-117.203H98.5966H134.521V-95.3737C134.521 -75.131 134.544 -73.5053 134.836 -73.008C135.199 -72.3933 136.093 -71.909 136.866 -71.909C137.576 -71.909 138.633 -72.4938 138.916 -73.0427C139.094 -73.3881 139.145 -78.6757 139.147 -96.848C139.15 -122.592 139.23 -120.831 138.031 -121.541C137.561 -121.819 134.296 -121.844 98.6052 -121.844C56.2885 -121.844 59.0505 -121.913 58.3485 -120.839C58.0691 -120.412 58.0434 -118.397 58.0434 -96.9759C58.0434 -84.1081 58.0052 -73.5797 57.9585 -73.5797C57.9119 -73.5797 56.4953 -74.9632 54.8106 -76.6543L51.7474 -79.729V-102.364V-125H46.3298H40.9123L35.6368 -119.709C32.7355 -116.799 30.301 -114.439 30.2268 -114.465C30.1527 -114.491 27.7302 -116.872 24.8434 -119.756L19.5948 -125H16.3203C14.5193 -125 13.0459 -124.948 13.0459 -124.884C13.0459 -124.82 16.5524 -121.238 20.838 -116.923C26.1142 -111.611 28.865 -108.972 29.3576 -108.75C30.5658 -108.204 31.1295 -108.504 33.7392 -111.087L36.0076 -113.333V-96.9056C36.0076 -87.8707 36.062 -80.3254 36.1285 -80.1385C36.195 -79.9514 35.4228 -80.6052 34.4127 -81.5911L32.5761 -83.3839H30.2671H27.9582L26.15 -81.6028L24.3415 -79.8218L24.3378 -82.5018C24.3184 -97.0355 17.7147 -112.981 7.1801 -123.933L6.15331 -125H2.77646H-0.600391L2.66702 -121.705ZM28.7239 -124.608C29.2526 -124.078 30.5792 -123.936 31.3358 -124.328C32.4107 -124.885 32.2233 -125 30.237 -125H28.3332L28.7239 -124.608ZM145.446 -101.313V-77.6265L146.065 -77.0063C146.405 -76.6651 146.905 -76.3302 147.177 -76.2619C147.991 -76.057 148.985 -76.3469 149.551 -76.9551L150.075 -77.5174V-101.259V-125H147.761H145.446V-101.313ZM150.723 -124.701C151.482 -124.124 154.17 -122.739 155.907 -122.03C159.406 -120.603 162.629 -119.997 166.741 -119.992C171.671 -119.987 175.411 -120.892 179.888 -123.172C183.85 -125.19 185.349 -124.985 166.648 -124.984C152.04 -124.982 150.391 -124.953 150.723 -124.701ZM183.591 -118.037L176.648 -111.073L176.527 -112.021C176.335 -113.527 174.923 -114.654 173.634 -114.33C171.249 -113.73 166.032 -113.533 162.854 -113.924C161.335 -114.111 161.088 -114.191 161.027 -114.512C160.709 -116.203 158.24 -116.81 156.991 -115.503L156.464 -114.952L156.415 -97.5947C156.36 -78.3252 156.3 -79.3033 157.571 -78.6989C158.327 -78.3395 158.973 -78.3278 159.765 -78.6594C161.07 -79.2061 160.993 -78.2471 161.046 -94.5822L161.093 -109.29L162.297 -109.209C164.769 -109.043 171.674 -109.153 172.944 -109.379C173.657 -109.505 174.491 -109.648 174.796 -109.697C175.27 -109.773 174.837 -109.269 171.835 -106.255L168.319 -102.724H165.938C164.041 -102.724 163.451 -102.661 163.031 -102.412C161.716 -101.634 161.563 -99.7734 162.725 -98.7057C163.315 -98.1636 163.49 -98.1116 165.143 -97.9875C167.775 -97.7898 170.294 -98.0188 171.042 -98.5237C171.372 -98.7471 171.73 -99.1055 171.837 -99.3205C171.944 -99.5354 177.674 -105.364 184.571 -112.272C191.467 -119.181 197.11 -124.871 197.11 -124.917C197.11 -124.963 195.63 -125 193.822 -125H190.534L183.591 -118.037ZM185.509 -104.348C174.189 -92.9898 164.836 -83.5142 164.723 -83.2913C164.42 -82.6895 164.473 -82.1587 164.915 -81.3707C165.448 -80.419 166.273 -79.99 167.303 -80.1285C168.079 -80.2328 168.78 -80.9146 190.43 -102.618L212.757 -125H209.423H206.09L185.509 -104.348ZM200.225 -103.698C181.355 -84.7689 178.976 -82.3199 178.864 -81.7024C178.794 -81.3202 178.792 -80.7849 178.86 -80.5129C179.002 -79.9462 181.214 -77.5708 181.962 -77.1814C183.171 -76.5524 184.537 -77.0549 185.102 -78.3356C185.513 -79.2673 185.447 -79.9723 184.88 -80.695L184.527 -81.145L206.28 -102.95C218.245 -114.942 228.034 -124.81 228.034 -124.877C228.034 -124.945 226.555 -125 224.747 -124.999L221.46 -124.998L200.225 -103.698ZM264.699 -102.427C277.073 -90.0119 287.522 -79.6118 287.919 -79.3158C288.732 -78.7097 289.401 -78.6408 290.293 -79.0711C291.498 -79.6532 292.063 -81.1441 291.488 -82.2278C291.33 -82.5252 281.716 -92.2705 270.122 -103.884L249.043 -125H245.622H242.2L264.699 -102.427ZM280.162 -102.538L302.57 -80.0769H303.373C304.386 -80.0769 305.109 -80.5007 305.605 -81.3848C306.039 -82.1593 306.09 -82.6921 305.788 -83.2913C305.676 -83.5142 296.322 -92.9898 285.002 -104.348L264.421 -125L261.088 -125L257.754 -125L280.162 -102.538ZM273.402 -124.907C273.402 -124.855 279.108 -119.091 286.082 -112.098C293.056 -105.105 298.906 -99.1625 299.082 -98.8933C299.636 -98.0461 300.321 -97.8976 303.678 -97.8976C305.849 -97.8976 306.922 -97.9715 307.349 -98.1508C308.966 -98.8278 309.162 -101.3 307.678 -102.3C307.102 -102.688 306.843 -102.724 304.62 -102.724H302.192L299.094 -105.833L295.997 -108.943L303.263 -108.887C308.07 -108.85 310.761 -108.898 311.214 -109.031C312.946 -109.536 313.343 -111.982 311.892 -113.206L311.334 -113.676L303.71 -113.676C296.389 -113.675 296.061 -113.66 295.473 -113.3C294.767 -112.869 294.258 -111.817 294.373 -111.029C294.438 -110.587 293.141 -111.804 287.213 -117.745L279.974 -125H276.688C274.88 -125 273.402 -124.958 273.402 -124.907ZM325.894 -123.389C321.716 -118.828 318.197 -113.656 315.68 -108.375C314.081 -105.02 313.877 -104.529 312.927 -101.75C310.892 -95.8011 309.927 -90.7951 309.509 -84.0214C309.28 -80.3273 309.402 -79.5699 310.33 -78.9061C311.089 -78.3637 312.546 -78.3456 313.248 -78.8702C313.977 -79.4153 314.14 -79.9209 314.14 -81.6336C314.14 -83.6818 314.598 -88.3733 315.066 -91.1272C315.925 -96.1816 317.682 -101.659 319.887 -106.158C323.036 -112.585 326.714 -117.621 331.989 -122.726L334.338 -125H330.854H327.37L325.894 -123.389ZM343.256 -123.84C335.704 -118.666 329.447 -111.412 325.664 -103.445C324.27 -100.511 324.133 -100.187 323.37 -98.0244C321.456 -92.6006 320.648 -88.0825 320.509 -82.026C320.404 -77.5051 320.435 -77.3421 321.531 -76.6018C322.615 -75.8693 324.238 -76.1439 324.875 -77.168C325.039 -77.4308 325.108 -78.1535 325.087 -79.3934C325.015 -83.6971 325.759 -89.3539 326.948 -93.5352C330.813 -107.128 340.881 -118.792 353.318 -124.082C354.329 -124.512 355.191 -124.894 355.234 -124.932C355.276 -124.969 352.979 -125 350.13 -125H344.949L343.256 -123.84ZM288.646 -124.16C287.171 -122.994 287.558 -120.488 289.29 -119.983C289.759 -119.847 294.386 -119.801 303.988 -119.839C317.908 -119.895 318.005 -119.898 318.524 -120.286C319.721 -121.182 319.779 -122.949 318.648 -124.018L318.003 -124.629L303.618 -124.627L289.234 -124.625L288.646 -124.16ZM234.237 -122.043C234.034 -121.951 224.972 -112.949 214.099 -102.041L194.332 -82.2076V-81.3186C194.332 -80.8298 194.454 -80.2042 194.604 -79.9283C194.753 -79.6527 203.69 -70.6035 214.464 -59.8189C229.695 -44.5716 234.174 -40.189 234.601 -40.1136C235.936 -39.8773 236.342 -40.1112 238.82 -42.5484L241.181 -44.8699V-28.0885V-11.3073L239.468 -13.0111C237.531 -14.9383 237.046 -15.203 235.978 -14.9149C235.473 -14.7785 235.038 -14.7785 234.533 -14.9149C233.466 -15.2028 232.982 -14.939 231.032 -13.0075C229.638 -11.6272 229.331 -11.3966 229.43 -11.8041C229.699 -12.9142 229.023 -20.3733 228.305 -24.2014C225.251 -40.5066 215.025 -55.6741 200.842 -64.9355C192.38 -70.4613 184.279 -73.4466 173.778 -74.9096C171.414 -75.2387 162.438 -75.2387 160.075 -74.9096C156.439 -74.4032 154.298 -73.9894 151.371 -73.2277C137.186 -69.5363 124.555 -60.8113 115.871 -48.7049C108.812 -38.8643 104.675 -26.3154 104.482 -14.1614C104.445 -11.8198 104.485 -11.3851 104.773 -10.9438C105.148 -10.3699 106.095 -9.90765 106.896 -9.90765C107.529 -9.90765 108.599 -10.5845 108.889 -11.1681C109.002 -11.3957 109.152 -12.9234 109.222 -14.563C109.772 -27.4522 113.872 -38.597 121.714 -48.5193C123.579 -50.8785 128.599 -55.8997 130.979 -57.785C139.847 -64.8123 149.845 -68.9051 161.463 -70.2639C163.881 -70.5467 170.014 -70.5405 172.481 -70.2528C192.582 -67.9084 209.624 -56.0231 218.608 -38.0836C220.455 -34.3967 222.188 -29.718 223.013 -26.1969C223.126 -25.7121 223.303 -24.9601 223.405 -24.5262C224.035 -21.8559 224.699 -16.0411 224.7 -13.1934C224.701 -12.1274 224.794 -11.3784 224.97 -11.0372C225.342 -10.3177 226.406 -9.83896 227.352 -9.9663C228.068 -10.0625 226.75 -8.71348 196.514 21.6167C179.141 39.0428 164.836 53.4828 164.723 53.7057C164.421 54.305 164.473 54.8377 164.907 55.6122C165.403 56.4966 166.125 56.9202 167.139 56.9202H167.942L201.599 23.1821L235.256 -10.5559L268.912 23.1821L302.569 56.9202H303.373C304.386 56.9202 305.109 56.4966 305.605 55.6122C306.039 54.8377 306.09 54.305 305.788 53.7057C305.676 53.4828 291.366 39.0391 273.99 21.6085C245.074 -7.39641 242.454 -10.0738 243.091 -9.9702C243.564 -9.89317 244.018 -9.96167 244.511 -10.1844C245.899 -10.8121 245.822 -9.65352 245.767 -29.1234L245.718 -46.5078L245.139 -47.0264C244.821 -47.3116 244.446 -47.588 244.306 -47.6407C244.142 -47.7023 245.457 -49.1525 247.986 -51.7008L251.921 -55.665L251.926 -32.9256C251.928 -19.6387 252.002 -9.87739 252.102 -9.44357C252.196 -9.03517 252.465 -8.5503 252.699 -8.36597C253.136 -8.02218 288.31 27.1645 295.664 34.614C297.915 36.8947 299.957 38.8367 300.202 38.9299C300.446 39.0231 302.019 39.0994 303.696 39.0994C307.055 39.0994 307.719 38.9516 308.291 38.0777C308.736 37.397 308.736 35.9754 308.291 35.2947C307.754 34.4731 307.006 34.2731 304.471 34.2719L302.196 34.2707L299.032 31.1625L295.868 28.0543L303.199 28.1114C308.079 28.1493 310.758 28.1012 311.214 27.9674C313.039 27.4322 313.348 24.7051 311.698 23.6967C311.11 23.3371 310.781 23.3219 303.585 23.3219C296.389 23.3219 296.061 23.3371 295.473 23.6967C294.746 24.1406 294.251 25.199 294.385 26.0236C294.465 26.5157 292.098 24.2193 279.589 11.664C271.399 3.44418 264.698 -3.31026 264.698 -3.34589C264.698 -3.38135 264.957 -3.4105 265.272 -3.4105C266.097 -3.4105 267.079 -3.9338 267.392 -4.54008C267.623 -4.98894 267.661 -8.14377 267.661 -26.8838V-48.7049H303.585H339.509V-26.7974V-4.89018L340.111 -4.23174C341.165 -3.07915 342.933 -3.16399 343.819 -4.40958L344.231 -4.98838V-28.2853C344.231 -50.7827 344.219 -51.6021 343.882 -52.1603C343.69 -52.4783 343.302 -52.8752 343.02 -53.042C342.55 -53.3207 339.284 -53.3457 303.585 -53.3457C267.887 -53.3457 264.62 -53.3207 264.15 -53.042C262.952 -52.3326 263.032 -54.0972 263.032 -28.304V-4.8976L259.884 -8.06208L256.736 -11.2266V-35.442V-59.6572H303.585H350.434V-34.4177V-9.17812L351 -8.53155C351.725 -7.70474 352.835 -7.48347 353.847 -7.96463C355.164 -8.59114 355.064 -6.54974 355.064 -32.7819C355.064 -45.8276 355.111 -56.5015 355.169 -56.5015C355.227 -56.5015 355.915 -56.112 356.697 -55.6359C359.482 -53.9412 362.483 -52.7357 365.711 -52.016C367.569 -51.6019 372.699 -51.3513 374.769 -51.5737L375.988 -51.7046V-54.2191V-56.7335L375.387 -56.6125C374.017 -56.3372 371.511 -56.2798 369.69 -56.4824C363.38 -57.1842 358.357 -59.5267 354.127 -63.7412C349.468 -68.3825 347.052 -74.2911 347.069 -81.005C347.086 -88.0531 349.836 -94.4031 355.055 -99.4467C358.067 -102.358 361.669 -104.293 366.156 -105.413C368.627 -106.03 371.604 -106.288 373.674 -106.066C374.59 -105.967 375.486 -105.885 375.664 -105.883C375.956 -105.88 375.988 -106.116 375.988 -108.275V-110.671L373.998 -110.807C364.72 -111.441 355.406 -107.572 349.578 -100.665C343.3 -93.2254 340.903 -83.5929 343.013 -74.2805C343.562 -71.8583 344.875 -68.6125 346.258 -66.2557C346.824 -65.2925 347.286 -64.4579 347.286 -64.4013C347.286 -64.3445 327.767 -64.2981 303.911 -64.2981H260.535L264.507 -68.2825L268.478 -72.2669L268.704 -71.7288C269.208 -70.5275 266.65 -70.6096 303.622 -70.6103C336.572 -70.6109 337.205 -70.6177 337.786 -70.9727C339.35 -71.9283 338.885 -74.8279 337.112 -75.1834C336.807 -75.2446 336.518 -75.4308 336.47 -75.5973C336.422 -75.7639 336.288 -77.0069 336.172 -78.3598C335.922 -81.2846 336.143 -84.5276 336.828 -87.9663C339.477 -101.258 349.539 -112.114 362.63 -115.804C365.823 -116.704 368.393 -117.053 371.915 -117.065C373.697 -117.071 375.343 -117.016 375.572 -116.942L375.988 -116.807V-119.218V-121.629L374.743 -121.763C373.013 -121.949 367.904 -121.736 365.876 -121.393C352.965 -119.214 342.213 -111.397 336.112 -99.7539C332.365 -92.6037 330.773 -84.1686 331.672 -76.225L331.783 -75.2504H301.623H271.463L273.646 -77.445C276.015 -79.8253 276.432 -80.5318 276.166 -81.7132C276.041 -82.2675 272.838 -85.5614 256.213 -102.227L236.409 -122.08L235.508 -122.146C235.013 -122.182 234.441 -122.136 234.237 -122.043ZM252.932 -98.8334C262.603 -89.1382 270.478 -81.1639 270.431 -81.1129C269.08 -79.6317 235.317 -45.931 235.218 -45.9644C235.099 -46.0045 217.354 -63.7365 203.314 -77.8441L199.982 -81.1921L217.572 -98.8265C227.247 -108.525 235.204 -116.461 235.256 -116.461C235.307 -116.461 243.262 -108.528 252.932 -98.8334ZM70.0358 -110.601C68.9094 -109.989 68.9687 -111.245 68.9687 -87.9689C68.9687 -64.3038 68.8735 -66.0367 70.2042 -65.4794C70.998 -65.147 71.5946 -65.1598 72.3607 -65.526C73.6862 -66.1596 73.598 -64.6627 73.598 -86.5562V-106.251H98.5966H123.595V-86.5647C123.595 -64.8368 123.523 -66.124 124.772 -65.5297C125.581 -65.1453 126.239 -65.1453 127.047 -65.5297C128.3 -66.1256 128.225 -64.6825 128.225 -88.0676C128.225 -107.707 128.201 -109.296 127.909 -109.793C127.219 -110.964 129.143 -110.893 98.4761 -110.884C74.1297 -110.878 70.4775 -110.842 70.0358 -110.601ZM-33.9885 -108.163V-105.764L-32.5086 -105.427C-31.6946 -105.242 -30.1737 -104.745 -29.1292 -104.322C-20.9222 -101.003 -14.9622 -93.4814 -13.5297 -84.6367C-13.1417 -82.2413 -13.216 -78.0241 -13.6839 -75.8845C-15.1692 -69.0939 -19.4667 -63.1379 -25.389 -59.6628C-27.0817 -58.6697 -29.9423 -57.5642 -32.1831 -57.0376L-33.9885 -56.6131V-54.1681V-51.7229L-33.1089 -51.8859C-28.9305 -52.6606 -24.333 -54.67 -20.9022 -57.2216C-19.1871 -58.497 -16.2286 -61.3343 -14.975 -62.9058C-12.4295 -66.0965 -10.3043 -70.3092 -9.35601 -74.0438C-5.92731 -87.5467 -12.3158 -101.399 -24.8794 -107.704C-27.2661 -108.901 -30.9174 -110.113 -33.1089 -110.434L-33.9885 -110.563V-108.163ZM234.515 -106.68C234.21 -106.621 229.936 -102.465 221.984 -94.4942C209.043 -81.5213 209.43 -81.966 209.784 -80.4958C209.867 -80.1481 213.809 -76.0703 222.076 -67.7787L234.246 -55.5733H235.254H236.263L248.448 -67.7805C261.549 -80.9052 261.092 -80.3802 260.729 -81.8768C260.642 -82.2343 256.937 -86.0791 248.901 -94.151C242.466 -100.616 236.989 -106.059 236.731 -106.248C236.214 -106.626 235.232 -106.817 234.515 -106.68ZM245.263 -90.9369L255.074 -81.1028L245.165 -71.1693L235.256 -61.2355L225.342 -71.1735L215.429 -81.1114L225.295 -90.9898C230.722 -96.4229 235.227 -100.846 235.307 -100.82C235.387 -100.793 239.867 -96.3457 245.263 -90.9369ZM80.9558 -99.5986C79.8344 -98.8573 79.9062 -100.109 79.8999 -81.2081L79.894 -63.8691L80.3604 -63.2559C80.6434 -62.8841 81.0987 -62.5672 81.5178 -62.4505C81.9711 -62.3244 87.8772 -62.2593 98.6892 -62.2613C114.48 -62.2641 115.202 -62.2789 115.945 -62.6168C117.391 -63.2752 117.299 -62.0101 117.299 -81.2961V-98.4981L116.58 -99.2189L115.861 -99.9396L98.6648 -99.9383C82.334 -99.9372 81.4422 -99.9201 80.9558 -99.5986ZM368.489 -99.5624C364.615 -98.7463 361.704 -97.2447 358.977 -94.6548C355.256 -91.1216 353.212 -86.3717 353.212 -81.2575C353.212 -70.0133 362.82 -61.2734 373.712 -62.6095C374.65 -62.7246 375.546 -62.8681 375.703 -62.9285C375.939 -63.0194 375.988 -63.4397 375.988 -65.3606V-67.6827L375.479 -67.5658C370.242 -66.3625 365.716 -67.6589 362.008 -71.4247C359.654 -73.8155 358.379 -76.419 358.021 -79.5714C357.222 -86.5957 361.676 -92.8989 368.767 -94.776C370.857 -95.3294 373.554 -95.2716 375.67 -94.6281C375.976 -94.5349 375.996 -94.7029 375.948 -97.0004L375.896 -99.4731L374.692 -99.6977C372.954 -100.022 370.407 -99.9665 368.489 -99.5624ZM27.4895 -99.6331C26.9538 -99.4189 26.2 -98.5729 25.9981 -97.9598C25.6822 -97.0006 26.0318 -96.2835 27.5367 -94.8035C29.0441 -93.3208 29.4374 -93.0712 30.2642 -93.0712C31.1369 -93.0712 31.7308 -93.4636 33.1925 -95.0062C34.4499 -96.3331 34.5262 -96.4625 34.5262 -97.2663C34.5262 -99.319 32.1339 -100.519 30.7119 -99.18L30.2671 -98.761L29.8157 -99.1863C29.3618 -99.6136 28.0641 -99.8629 27.4895 -99.6331ZM-33.9476 -96.9546L-33.8959 -94.5265L-32.6497 -93.9939C-29.5964 -92.6887 -26.9698 -90.2169 -25.3971 -87.1684C-25.2385 -86.8606 -24.8946 -85.8701 -24.6329 -84.9672C-23.7691 -81.9853 -24.0217 -78.3547 -25.2914 -75.5034C-26.7432 -72.2432 -29.9471 -69.1902 -33.1089 -68.054L-33.9885 -67.738V-65.3682C-33.9885 -64.0649 -33.9615 -62.9986 -33.9283 -62.9986C-33.6198 -62.9986 -30.9717 -64.0321 -29.9049 -64.5687C-26.9543 -66.0532 -24.0987 -68.5294 -22.444 -71.038C-19.4947 -75.5097 -18.6348 -80.8394 -20.0123 -86.1099C-21.3009 -91.0405 -24.907 -95.4391 -29.6369 -97.8497C-30.4121 -98.2447 -33.5197 -99.3827 -33.8235 -99.3827C-33.9282 -99.3827 -33.9783 -98.3996 -33.9476 -96.9546ZM112.625 -81.1442L112.672 -67.0826H98.5977H84.5234V-81.1918V-95.3012L98.5504 -95.2535L112.577 -95.2059L112.625 -81.1442ZM229.851 -86.8105C224.971 -81.9453 224.798 -81.6956 225.355 -80.3002C225.7 -79.4372 233.45 -71.6866 234.444 -71.2116C235.685 -70.6185 236.112 -70.9166 240.91 -75.7267L245.255 -80.0828V-81.1463V-82.2098L240.753 -86.7123L236.252 -91.2148H235.26H234.269L229.851 -86.8105ZM91.5382 -88.2666L90.8193 -87.5458L90.8201 -81.259C90.8206 -75.336 90.8417 -74.9372 91.1847 -74.3735C91.8541 -73.273 92.2677 -73.2081 98.573 -73.2125C103.744 -73.2162 104.313 -73.2478 105.019 -73.5691C106.369 -74.1834 106.374 -74.2135 106.374 -81.2961V-87.5458L105.655 -88.2666L104.936 -88.9872H98.5966H92.2572L91.5382 -88.2666ZM370.043 -88.7183C369.574 -88.5885 368.746 -88.2408 368.204 -87.9458C362.661 -84.9306 362.826 -76.9818 368.489 -74.1739C370.71 -73.0724 372.62 -73.0145 375.016 -73.9755L375.988 -74.3653V-81.085V-87.8048L375.294 -88.1419C373.596 -88.9668 371.696 -89.1753 370.043 -88.7183ZM-33.9885 -81.0852V-74.4826L-33.4423 -74.8725C-32.7053 -75.3985 -31.6309 -76.6688 -31.1785 -77.5487C-29.9462 -79.9464 -29.9919 -82.7693 -31.2994 -85.006C-31.7555 -85.7862 -33.5569 -87.6878 -33.8398 -87.6878C-33.9217 -87.6878 -33.9885 -84.7166 -33.9885 -81.0852ZM237.479 -83.3243L239.603 -81.1886L237.429 -79.0095L235.256 -76.8303L233.082 -79.0095L230.908 -81.1886L233.033 -83.3243C234.201 -84.4992 235.201 -85.4602 235.256 -85.4602C235.31 -85.4602 236.31 -84.4992 237.479 -83.3243ZM101.559 -81.0978V-78.0349H98.5041H95.4487V-81.0978V-84.1608H98.5041H101.559V-81.0978ZM373.395 -83.7676C375.413 -82.6306 375.358 -79.4032 373.303 -78.4062C371.063 -77.3187 368.758 -78.9215 368.996 -81.4023C369.209 -83.6217 371.484 -84.8448 373.395 -83.7676ZM29.3413 -69.105C28.7656 -68.8793 -25.5718 -14.4742 -25.9662 -13.7287C-26.1554 -13.371 -26.221 -12.9077 -26.1595 -12.3617C-26.0788 -11.6431 -25.9019 -11.3684 -24.7964 -10.244C-24.0978 -9.53342 -23.3012 -8.83284 -23.0262 -8.6873C-21.9664 -8.12632 -20.5276 -8.52858 -20.011 -9.53025C-19.6032 -10.3207 -19.6536 -11.5063 -20.1232 -12.1672L-20.5163 -12.7207L4.82912 -38.1331L30.1746 -63.5457L56.6545 -37.0156C74.8598 -18.7759 83.294 -10.4467 83.6451 -10.3617C84.4532 -10.1659 85.3354 -10.4219 85.9592 -11.0333C86.6005 -11.6619 86.836 -12.4129 86.6534 -13.2466C86.5618 -13.665 79.792 -20.5583 59.0989 -41.3041C42.1876 -58.2581 31.4352 -68.9034 31.0649 -69.0586C30.3721 -69.3488 29.989 -69.3592 29.3413 -69.105ZM162.852 -64.1793C156.231 -63.5726 150.1 -61.7961 144.057 -58.7334C135.709 -54.5022 128.995 -48.4734 123.827 -40.5666C122.524 -38.5731 120.187 -34.1884 119.457 -32.3692C119.273 -31.9098 119.048 -31.3668 118.958 -31.1626C118.485 -30.0891 117.395 -26.625 116.922 -24.6905C115.862 -20.3571 115.449 -16.9463 115.448 -12.5351C115.448 -8.93976 115.569 -8.48589 116.671 -7.96147C117.817 -7.41646 119.051 -7.68209 119.748 -8.62381C120.062 -9.04687 120.112 -9.50965 120.173 -12.5427C120.386 -23.1102 123.527 -32.4073 129.676 -40.6726C136.606 -49.9865 147.158 -56.6578 158.223 -58.7202C158.885 -58.8436 159.802 -59.0144 160.26 -59.0998C160.718 -59.1854 162.364 -59.3606 163.917 -59.4894C169.107 -59.9197 175.441 -59.102 181.092 -57.2722C193.508 -53.2516 204.299 -43.4936 209.594 -31.498C212.145 -25.7202 213.775 -18.3602 213.775 -12.6242V-11.2962L210.236 -7.77101C207.296 -4.84155 206.717 -4.33997 206.81 -4.80275C206.872 -5.10904 207.061 -6.73797 207.23 -8.42258C207.492 -11.038 207.505 -11.9331 207.321 -14.5485C206.897 -20.576 205.723 -25.0753 203.228 -30.2378C196.419 -44.3268 182.211 -53.3457 166.827 -53.3457C160.067 -53.3457 153.117 -51.4612 147.112 -48.0003C136.447 -41.8519 129.155 -31.362 127.022 -19.0965C126.41 -15.5789 126.254 -10.3391 126.675 -7.44801L126.776 -6.75189L96.5297 -6.75634L66.2836 -6.76061L67.765 -8.2015C68.5798 -8.99397 69.6838 -10.1146 70.2186 -10.6919C71.1374 -11.6842 71.1908 -11.7957 71.1908 -12.7256V-13.7094L51.2363 -33.7132L31.2819 -53.717H30.2673H29.2528L9.46479 -33.9007C-2.49751 -21.9212 -10.4284 -13.842 -10.5891 -13.4712C-11.2329 -11.9858 -12.4012 -13.2787 9.03888 8.24928C21.4124 20.6737 28.9244 28.0832 29.3176 28.2512C30.6532 28.8224 30.9223 28.6782 33.7914 25.8515L36.0076 23.6681V40.0933C36.0076 49.1271 36.0631 56.6716 36.1311 56.8586C36.199 57.0457 35.4119 56.3842 34.3819 55.3887C32.5637 53.6313 32.4844 53.5788 31.6537 53.5788C31.1832 53.5788 30.6421 53.6625 30.4514 53.765C30.2196 53.8893 30.0664 53.8893 29.9898 53.765C29.9266 53.6625 29.4514 53.5788 28.9341 53.5788C27.9934 53.5788 27.9926 53.5791 26.1674 55.377L24.3415 57.1752L24.3378 54.4953C24.3208 41.771 19.242 27.8374 10.708 17.1019C8.6565 14.5209 3.34383 9.17429 0.907303 7.23833C-8.98474 -0.621742 -20.81 -5.48438 -32.4608 -6.48328L-33.9885 -6.61415V-4.27815V-1.94233L-33.3867 -1.8471C-33.0556 -1.79456 -32.0349 -1.66147 -31.1183 -1.5512C-22.6806 -0.535789 -13.7187 2.83716 -6.30489 7.7878C3.2081 14.1402 11.0886 23.766 15.3535 34.2429C16.1366 36.1666 17.0095 38.6179 17.3143 39.7491C18.8319 45.3797 19.3996 48.9058 19.6309 54.1357C19.71 55.9229 19.8516 57.1969 20.0047 57.4984C20.3527 58.1834 21.4337 58.6573 22.3633 58.5322C23.0794 58.4361 21.9026 59.6432 -5.43882 87.0526L-33.9885 115.673V119.014V122.355L-1.86088 90.1486L30.2666 57.9421L63.9236 91.6803L97.5806 125.419H98.4341C99.2731 125.419 100.014 125.034 100.574 124.309C100.916 123.866 101.031 122.917 100.814 122.332C100.699 122.02 87.56 108.706 69.0542 90.1484L37.4916 58.498H38.523C39.4785 58.498 39.6014 58.4466 40.191 57.8015L40.8277 57.1052L40.7786 39.5479L40.7295 21.9908L40.1247 21.4491C39.7922 21.1511 39.3964 20.9074 39.2452 20.9074C39.0941 20.9074 38.9704 20.8628 38.9704 20.8085C38.9704 20.7541 40.7612 18.8953 42.9498 16.6781L46.9294 12.6467L46.9442 35.758C46.9523 48.4692 47.0179 59.0189 47.0899 59.202C47.2856 59.6991 94.7313 107.23 95.2292 107.428C95.465 107.521 97.0356 107.598 98.7196 107.598C102.392 107.598 102.883 107.447 103.459 106.141C103.795 105.38 103.804 105.234 103.569 104.474C103.128 103.051 102.712 102.874 99.6334 102.805L96.9923 102.745L93.9078 99.6489L90.8232 96.5528H98.5524H106.281L106.879 96.1258C108.049 95.2886 108.115 93.4057 107.01 92.3649L106.53 91.912L98.8133 91.8629C91.3307 91.8154 91.0786 91.8253 90.4841 92.1919C89.7842 92.6235 89.2692 93.6792 89.3822 94.4509C89.4244 94.7392 89.4109 94.9734 89.3522 94.9716C89.2935 94.9697 82.5181 88.2242 74.2962 79.9817L59.347 64.9952H60.3582C61.2534 64.9952 61.4389 64.9256 61.9748 64.3884L62.5801 63.7815L62.6727 41.834L62.7653 19.8864L98.6429 19.8395L134.521 19.7927V41.6142C134.521 60.3546 134.559 63.5096 134.79 63.9584C135.096 64.5519 136.081 65.0882 136.863 65.0876C137.603 65.0873 138.639 64.5248 138.913 63.9742C139.094 63.6106 139.145 58.4344 139.147 40.0521L139.15 16.5942L138.431 15.8734L137.712 15.1528H98.7018C64.1947 15.1528 59.6288 15.1853 59.1483 15.4344C57.9749 16.0427 58.0434 14.5129 58.0434 40.1111C58.0434 52.9296 57.9761 63.4173 57.8939 63.4173C57.8119 63.4173 56.3953 62.0503 54.746 60.3794L51.7474 57.3414V33.0914V8.84126H98.5966H145.446V34.0123C145.446 57.4045 145.468 59.2213 145.762 59.7195C146.35 60.7178 147.869 61.1078 148.962 60.5411C150.16 59.9202 150.075 61.8107 150.075 35.7166C150.075 22.6709 150.108 11.997 150.149 11.997C150.189 11.997 150.754 12.3206 151.403 12.716C156.857 16.0373 162.901 17.5112 168.928 16.9898C176.075 16.3713 182.208 13.512 187.402 8.37718C192.077 3.75568 194.618 -0.818504 196.034 -7.16139C196.404 -8.81668 196.461 -9.58149 196.461 -12.8778C196.461 -16.1913 196.405 -16.9352 196.027 -18.6324C195.446 -21.2422 194.853 -22.9862 193.773 -25.2704C189.739 -33.7967 182.112 -39.7481 172.574 -41.8124C162.595 -43.972 151.042 -39.9566 144.466 -32.0427C141.35 -28.2918 139.173 -24.0456 138.163 -19.7462C138.007 -19.0826 137.77 -18.0801 137.637 -17.5186C137.475 -16.8395 137.394 -15.1607 137.395 -12.5065C137.396 -9.01012 137.449 -8.27557 137.827 -6.58018C138.574 -3.22394 139.882 0.0871964 141.473 2.64559C141.927 3.3755 142.298 4.02373 142.298 4.08647C142.298 4.14922 122.76 4.20044 98.8805 4.20044H55.463L59.392 0.195045C62.7333 -3.21114 63.3486 -3.76246 63.506 -3.49088C63.6079 -3.31508 63.8716 -2.95366 64.0917 -2.68765L64.4924 -2.20389L98.3092 -2.15599C127.701 -2.11441 132.195 -2.14374 132.65 -2.37987C133.236 -2.68375 133.78 -3.67075 133.78 -4.43148C133.78 -5.54194 132.781 -6.75189 131.865 -6.75189C131.457 -6.75189 131.364 -7.18683 131.179 -9.93939C130.824 -15.2271 131.67 -20.6493 133.614 -25.5548C134.282 -27.2407 134.911 -28.5261 136.385 -31.2194C137.287 -32.8675 139.853 -36.0602 141.934 -38.1238C148.054 -44.1931 155.615 -47.681 164.494 -48.531C169.954 -49.0535 176.587 -47.7365 182.203 -45.0143C184.575 -43.8651 188.216 -41.5118 189.888 -40.0476C196.907 -33.9018 201.187 -26.0546 202.48 -16.9617C202.788 -14.7967 202.751 -9.48329 202.413 -7.26535C202.105 -5.24622 202.217 -4.45302 202.896 -3.84451C203.496 -3.30636 204.423 -2.98317 205.086 -3.08082C205.569 -3.15192 203.352 -0.851738 191.154 11.3794L176.648 25.9241L176.55 25.1168C176.381 23.7177 175.418 22.6971 174.269 22.6975C173.948 22.6975 172.646 22.8378 171.376 23.0091C168.736 23.3652 165.19 23.3921 162.76 23.0743C161.252 22.8773 161.088 22.8168 161.034 22.4404C160.942 21.7903 159.986 20.9564 159.175 20.819C158.341 20.6778 157.398 21.0102 156.834 21.6438C156.47 22.0529 156.463 22.3583 156.415 39.4098C156.371 54.9606 156.396 56.824 156.66 57.3824C157.165 58.4477 158.737 58.91 159.866 58.3247C160.969 57.7531 160.9 58.7065 161.001 42.562L161.093 27.7038L162.204 27.7862C162.815 27.8315 165.19 27.8644 167.482 27.859C171.139 27.8506 172.784 27.725 174.889 27.2928C175.221 27.2247 174.358 28.1976 171.835 30.7354L168.319 34.273H165.938C163.324 34.273 162.796 34.4324 162.229 35.3942C161.608 36.4491 162.015 37.9938 163.087 38.6435C163.621 38.9673 164.037 39.0066 166.926 39.006C170.474 39.0057 170.927 38.8965 171.734 37.8501C172.091 37.3877 194.595 14.7568 211.379 -2.01826C214.954 -5.59168 217.998 -8.68025 218.142 -8.88166C218.466 -9.33368 218.509 -14.7066 218.211 -17.4794C217.288 -26.0484 214.499 -33.8144 209.8 -40.8966C201.06 -54.0688 186.973 -62.598 171.463 -64.1082C169.758 -64.2743 164.374 -64.3187 162.852 -64.1793ZM83.9856 -55.8954C83.2064 -55.4941 82.7642 -54.7053 82.7642 -53.717C82.7642 -52.626 83.2555 -51.8677 84.1704 -51.5462C84.9993 -51.2551 111.859 -51.2089 112.893 -51.497C114.756 -52.0155 114.968 -54.9882 113.208 -55.8954C112.866 -56.0716 109.475 -56.1248 98.5966 -56.1248C87.7178 -56.1248 84.3274 -56.0716 83.9856 -55.8954ZM47.9513 -30.3273L65.5422 -12.6921L47.9513 4.94298C38.2763 14.6423 30.3021 22.5781 30.231 22.5781C30.0555 22.5781 -4.91607 -12.4688 -4.91607 -12.6448C-4.91607 -12.7972 30.1153 -47.9624 30.2671 -47.9624C30.3184 -47.9624 38.2763 -40.0266 47.9513 -30.3273ZM362.706 -47.5014C362.377 -47.3581 361.94 -46.9646 361.734 -46.6271C361.367 -46.0233 361.361 -45.7314 361.36 -28.728C361.36 -11.4798 361.36 -11.4417 361.746 -10.95C362.586 -9.87943 364.054 -9.63123 365.178 -10.3695C366.193 -11.0359 366.174 -10.7354 366.174 -26.4195V-40.9013L367.054 -40.7656C367.538 -40.6909 369.725 -40.6299 371.915 -40.6299H375.896L375.947 -42.9512L375.999 -45.2727L371.966 -45.2959C366.87 -45.3253 366.412 -45.4077 365.907 -46.3878C365.28 -47.605 363.98 -48.0571 362.706 -47.5014ZM275.045 -42.0808C274.777 -41.9145 274.402 -41.5198 274.211 -41.204C273.879 -40.6536 273.862 -39.7814 273.807 -20.1175C273.766 -5.40865 273.809 0.669708 273.959 1.36583C274.115 2.09221 274.304 2.43397 274.709 2.723C275.874 3.55463 277.585 3.33855 278.23 2.27859C278.574 1.7124 278.585 1.08905 278.586 -18.0291L278.587 -37.7526H303.585H328.584V-18.0577C328.584 0.172775 328.607 1.67696 328.9 2.17334C329.262 2.78722 330.156 3.27246 330.926 3.27191C331.666 3.27153 332.702 2.70907 332.976 2.15849C333.157 1.79557 333.208 -2.95365 333.21 -19.6289L333.213 -40.952L332.494 -41.6728L331.775 -42.3934L303.653 -42.3884C277.983 -42.3839 275.489 -42.3572 275.045 -42.0808ZM29.2487 -38.0217C28.5437 -37.6594 5.34354 -14.4569 4.95819 -13.7287C4.7682 -13.3695 4.7032 -12.908 4.76523 -12.3565C4.85727 -11.5381 5.04208 -11.3417 17.0075 0.653381L29.1565 12.8324H30.2684H31.3806L43.4975 0.673424C51.7052 -7.56292 55.6542 -11.6506 55.7381 -11.9973C56.0935 -13.4653 56.4477 -13.0558 44.003 -25.5684C37.6195 -31.9866 32.0261 -37.479 31.5734 -37.7737C30.6477 -38.3763 30.0603 -38.4389 29.2487 -38.0217ZM170.907 -37.2608C180.682 -35.6618 188.878 -27.7394 191.215 -17.632C191.769 -15.2353 191.893 -10.7809 191.473 -8.31399C190.079 -0.111244 184.47 7.0152 176.927 10.1676C173.63 11.5456 171.058 12.0459 167.204 12.0588C160.231 12.0822 154.455 9.84145 149.54 5.20657C140.888 -2.95273 139.53 -16.2793 146.31 -26.4891C147.891 -28.8702 150.811 -31.9115 152.748 -33.1953C158.43 -36.9609 164.472 -38.3136 170.907 -37.2608ZM374.605 -35.5304L373.313 -34.2255H370.833H368.353L367.61 -33.4813C366.9 -32.7693 366.872 -32.6967 366.959 -31.7934C367.03 -31.0507 367.173 -30.7249 367.634 -30.2636C368.181 -29.7145 368.326 -29.6703 369.928 -29.5623C372.084 -29.4169 375.351 -29.5768 375.718 -29.8456C375.953 -30.0174 375.989 -30.5933 375.947 -33.4426L375.896 -36.835L374.605 -35.5304ZM40.2712 -22.4388L50.0821 -12.601L40.1747 -2.66908L30.2671 7.26302L20.3375 -2.69117L10.4079 -12.6456L20.1986 -22.4947C25.5835 -27.9118 30.0953 -32.3288 30.2249 -32.3102C30.3544 -32.2916 34.8752 -27.8494 40.2712 -22.4388ZM164.519 -31.2675C156.94 -30.145 150.856 -24.8047 148.748 -17.4258C148.383 -16.1507 148.323 -15.5076 148.32 -12.8778C148.316 -9.49387 148.529 -8.23138 149.538 -5.68264C152.758 2.45569 161.152 7.25188 169.593 5.77629C172.587 5.25299 175.567 3.99551 177.851 2.2914C181.406 -0.35981 183.748 -3.65609 185.003 -7.77287C185.471 -9.31195 185.512 -9.69213 185.516 -12.5993C185.52 -16.3073 185.222 -17.7688 183.884 -20.601C181.474 -25.7005 176.875 -29.419 171.185 -30.8671C169.435 -31.3126 166.154 -31.5097 164.519 -31.2675ZM286.256 -31.2612C286.044 -31.1752 285.648 -30.84 285.377 -30.5162L284.883 -29.9276V-12.7616C284.883 2.10502 284.92 4.4763 285.159 4.94093C285.773 6.13121 284.544 6.05678 303.585 6.05678C322.627 6.05678 321.397 6.13121 322.011 4.94093C322.251 4.47649 322.288 2.11189 322.288 -12.7007C322.288 -28.4902 322.264 -29.8472 321.972 -30.3421C321.295 -31.4904 322.114 -31.4422 303.557 -31.4294C294.254 -31.4229 286.468 -31.3471 286.256 -31.2612ZM232.176 -30.9101C231.305 -30.3616 230.997 -29.8038 230.997 -28.775C230.997 -27.8799 231.027 -27.8318 232.563 -26.2639L234.129 -24.6655H235.243H236.358L237.849 -26.1505C239.63 -27.9237 239.916 -28.5762 239.394 -29.6813C238.681 -31.1925 236.945 -31.7195 235.817 -30.7674L235.238 -30.2792L234.795 -30.6961C234.171 -31.2836 232.929 -31.3852 232.176 -30.9101ZM170.173 -26.2417C174.29 -25.1863 177.622 -22.5006 179.516 -18.7122C181.36 -15.0228 181.358 -10.2203 179.51 -6.55085C178.741 -5.0229 178.349 -4.46824 177.116 -3.1599C175.2 -1.12759 172.888 0.272835 170.259 0.993271C168.581 1.45327 165.054 1.4386 163.408 0.964867C159.059 -0.286301 155.69 -3.27351 153.978 -7.39716C152.923 -9.93605 152.625 -12.5509 153.109 -15.0126C154.208 -20.6092 158.123 -24.7939 163.607 -26.2331C165.502 -26.7306 168.252 -26.7342 170.173 -26.2417ZM317.658 -12.5993V1.41595H303.585H289.512V-12.5993V-26.6146H303.585H317.658V-12.5993ZM29.2487 -22.5457C29.045 -22.4536 26.941 -20.4247 24.573 -18.0367L20.2677 -13.6949V-12.5984V-11.5019L24.6656 -7.10701C29.4583 -2.31768 29.6909 -2.15841 31.0551 -2.72978C31.648 -2.97816 39.2737 -10.399 39.9518 -11.3877C40.1447 -11.6689 40.2666 -12.2047 40.2666 -12.772V-13.6973L35.847 -18.139L31.4274 -22.5804L30.5232 -22.6467C30.0259 -22.6831 29.4524 -22.6376 29.2487 -22.5457ZM372.896 -18.2171C371.246 -16.5566 369.807 -14.9582 369.698 -14.6649C369.382 -13.8154 369.647 -12.9624 370.454 -12.2316C371.06 -11.6823 371.312 -11.5783 372.034 -11.5783C372.86 -11.5783 372.95 -11.6357 374.446 -13.1098L375.999 -14.6413L375.948 -17.9387L375.896 -21.2361L372.896 -18.2171ZM165.123 -20.2025C162.706 -19.55 160.843 -18.0319 159.834 -15.8926C158.756 -13.6088 158.934 -10.6795 160.277 -8.58056C161.523 -6.63531 163.758 -5.15248 165.811 -4.90986C169.313 -4.4959 172.355 -6.14821 173.915 -9.31176C174.586 -10.6743 174.611 -10.7924 174.611 -12.6825C174.611 -14.4855 174.566 -14.7373 174.04 -15.8485C173.055 -17.9327 171.009 -19.5958 168.683 -20.2032C167.357 -20.5492 166.407 -20.549 165.123 -20.2025ZM297.181 -20.3126C296.97 -20.2246 296.574 -19.8876 296.302 -19.5639L295.808 -18.9753V-12.7616C295.808 -5.99767 295.827 -5.85918 296.863 -5.15508C297.347 -4.82632 297.798 -4.80275 303.585 -4.80275C309.372 -4.80275 309.823 -4.82632 310.307 -5.15508C311.344 -5.85937 311.362 -5.99619 311.362 -12.7785V-19.009L310.729 -19.7026L310.095 -20.3959L303.831 -20.4341C300.386 -20.4553 297.393 -20.4006 297.181 -20.3126ZM32.4892 -14.8269L34.6128 -12.692L32.4172 -10.4853L30.2218 -8.27853L28.1149 -10.3905C26.9562 -11.5522 26.0081 -12.5648 26.0081 -12.6409C26.0081 -12.7967 30.1136 -16.9617 30.2671 -16.9617C30.3214 -16.9617 31.3213 -16.001 32.4892 -14.8269ZM306.733 -12.6921V-9.53638H303.585H300.437V-12.5683C300.437 -14.2361 300.493 -15.6561 300.561 -15.7241C300.628 -15.7922 302.045 -15.8479 303.709 -15.8479H306.733V-12.6921ZM168.409 -15.2446C169.304 -14.6344 169.732 -13.96 169.841 -12.9895C170.121 -10.5033 167.867 -8.85529 165.577 -9.87108C163.764 -10.675 163.388 -13.2379 164.855 -14.7998C165.487 -15.4733 165.887 -15.6359 166.945 -15.6506C167.539 -15.6587 167.983 -15.5355 168.409 -15.2446ZM366.73 -6.55567C362.471 -6.09048 360.087 -5.67076 356.545 -4.76283C339.062 -0.280914 323.923 11.9428 316.022 27.9563C314.375 31.2943 313.894 32.4302 312.912 35.2939C310.896 41.1778 309.926 46.216 309.509 52.9756C309.28 56.6697 309.402 57.4271 310.33 58.091C311.089 58.6334 312.546 58.6514 313.248 58.1268C313.977 57.5818 314.14 57.0761 314.14 55.3634C314.14 53.3152 314.598 48.6237 315.066 45.8698C317.075 34.0526 322.838 23.1907 331.664 14.5886C340.642 5.83736 351.776 0.344666 364.193 -1.45876C367.134 -1.8859 371.518 -2.12481 373.906 -1.98818L376 -1.86826L375.948 -4.26367L375.896 -6.65907L372.007 -6.6832C369.868 -6.69639 367.494 -6.63902 366.73 -6.55567ZM234.237 -0.528183C233.932 -0.376892 221.376 12.0887 206.335 27.1733C182.196 51.3833 178.975 54.6798 178.865 55.2814C178.652 56.4568 178.895 56.9541 180.429 58.4834C181.718 59.7678 181.975 59.9415 182.706 60.0241C183.866 60.1552 184.637 59.7165 185.102 58.6614C185.514 57.7292 185.447 57.0247 184.878 56.3003L184.524 55.8487L207.838 32.4842C220.661 19.6338 232.077 8.20157 233.206 7.07942L235.259 5.03914L261.598 31.4246C276.085 45.9365 288.12 57.9022 288.342 58.0148C289.347 58.5238 290.72 58.028 291.333 56.9346C291.8 56.103 291.841 55.4323 291.468 54.7297C291.052 53.9441 236.713 -0.396011 236.123 -0.61673C235.418 -0.880325 234.899 -0.85601 234.237 -0.528183ZM367.285 4.40704C364.975 4.61125 362.645 5.01501 359.946 5.67902C345.244 9.29477 332.377 19.6908 325.819 33.252C324.264 36.4683 324.078 36.9112 323.246 39.3779C321.25 45.3023 320.542 49.508 320.534 55.5021L320.529 59.5602L321.254 60.1893C321.835 60.6935 322.137 60.8185 322.773 60.8185C324.64 60.8185 325.111 60.1645 325.08 57.6167C324.983 49.62 326.9 41.5026 330.545 34.479C332.93 29.8828 335.387 26.5278 339.136 22.7468C343.892 17.9518 348.962 14.592 355.054 12.1981C360.92 9.8927 365.775 8.98123 372.146 8.98903L375.988 8.99387V6.71521V4.43657L375.129 4.31851C373.988 4.16165 369.485 4.21251 367.285 4.40704ZM-33.9478 6.7529L-33.8959 9.11972L-32.2981 9.33041C-23.9104 10.4362 -16.2275 13.7204 -9.17509 19.2146C-7.08429 20.8435 -3.45875 24.4729 -1.72644 26.6711C4.74228 34.8798 8.18245 44.1598 8.69557 54.7854L8.81223 57.1986L5.19225 60.8131C2.03279 63.9677 1.59375 64.3455 1.74078 63.7832C2.27019 61.7572 2.55295 56.8702 2.32056 53.7644C1.54486 43.4031 -2.33696 34.7042 -9.42027 27.4536C-15.9636 20.7557 -23.8052 16.7968 -33.2015 15.447L-33.9885 15.334V17.7381V20.142L-33.1089 20.2627C-30.2041 20.6612 -25.2273 22.2267 -22.4877 23.6039C-13.4271 28.1584 -6.6769 36.2115 -3.73984 45.9704C-2.64361 49.6129 -2.42362 51.2827 -2.41973 55.992C-2.41733 58.8972 -2.5014 60.8292 -2.67102 61.7761C-2.90711 63.0936 -2.90026 63.2493 -2.57843 63.8988C-2.07401 64.9169 -1.37183 65.3641 -0.27615 65.3654L0.636021 65.3665L-13.8524 79.8945L-28.3407 94.4226L-28.4385 93.6153C-28.5503 92.6911 -28.9712 91.961 -29.6484 91.5162C-30.0352 91.2621 -30.4043 91.2283 -31.7503 91.3241C-32.6482 91.3879 -33.5191 91.4926 -33.6858 91.5567C-33.9435 91.656 -33.9885 92.0155 -33.9885 93.9738C-33.9885 96.2368 -33.9817 96.2743 -33.5719 96.2706C-33.0873 96.2663 -30.8268 95.9487 -30.1208 95.7856C-29.7502 95.7001 -30.1469 96.191 -31.8127 97.8797L-33.9885 100.085L-33.9785 103.61L-33.9687 107.134L-33.4693 106.497C-33.0184 105.922 11.5949 61.1342 12.7385 60.1084C13.4081 59.5077 13.4831 58.8591 13.3629 54.71C13.2083 49.3773 12.4804 45.0749 10.9101 40.2132C7.36565 29.2388 -0.0770874 19.4231 -9.73062 12.9918C-13.2573 10.6423 -15.709 9.33617 -19.2529 7.91885C-23.1315 6.36752 -26.7854 5.36232 -30.748 4.75659C-34.382 4.201 -34.0087 3.96803 -33.9478 6.7529ZM288.752 12.7921C288.35 13.0629 288.026 13.4953 287.854 13.9903C287.607 14.7008 287.615 14.8385 287.95 15.6549C288.625 17.3024 287.59 17.2046 303.803 17.1498C317.879 17.1023 318.006 17.0986 318.525 16.7138C318.812 16.5005 319.17 15.9783 319.319 15.5536C319.559 14.8745 319.559 14.6872 319.319 13.9987C319.144 13.4953 318.823 13.0644 318.418 12.7921L317.789 12.3683H303.585H289.382L288.752 12.7921ZM234.237 14.9638C234.034 15.0511 224.972 24.0476 214.099 34.9559L194.332 54.7895V55.6785C194.332 56.1672 194.454 56.7928 194.602 57.0687C194.75 57.3443 203.687 66.3932 214.462 77.1772C230.53 93.2591 234.16 96.8045 234.654 96.896C235.921 97.1308 236.345 96.8817 238.82 94.4483L241.181 92.1271V108.909V125.69L239.464 123.975C237.551 122.065 236.963 121.769 235.854 122.153C235.291 122.349 235.06 122.348 234.585 122.149C233.608 121.739 232.946 122.08 231.036 123.979C229.681 125.326 229.333 125.592 229.426 125.21C229.561 124.653 229.236 119.009 228.941 116.787C227.116 103.037 221.1 90.6868 211.406 80.7931C209.581 78.9303 206.742 76.3752 204.992 75.0194C204.597 74.7131 204.057 74.288 203.793 74.0747C202.001 72.6273 197.765 70.0479 194.479 68.404C187.644 64.9833 181.814 63.2211 173.592 62.0906C171.217 61.7641 162.805 61.7626 160.26 62.0884C157.179 62.4828 153.644 63.1543 151.325 63.7852C150.943 63.8892 150.36 64.0444 150.029 64.1302C148.511 64.5235 144.024 66.1576 141.928 67.0806C130.066 72.3015 119.737 81.3829 113.285 92.2621C109.144 99.2459 106.664 106.046 105.254 114.281C104.568 118.285 104.233 125.117 104.682 125.939C105.5 127.435 108.148 127.42 108.837 125.915C109.015 125.525 109.149 124.325 109.231 122.369C109.77 109.505 113.935 98.2484 121.803 88.3849C124.943 84.4482 130.48 79.3155 134.497 76.6169C143.532 70.5469 153.065 67.3104 164.086 66.571C173.165 65.962 184.188 68.3429 192.63 72.7368C198.51 75.7972 202.488 78.678 207.172 83.2698C213.879 89.844 218.716 97.509 221.653 106.215C222.763 109.506 223.229 111.386 223.964 115.534C224.275 117.292 224.7 122.056 224.7 123.804C224.701 124.87 224.794 125.619 224.97 125.96C225.341 126.679 226.406 127.158 227.351 127.031C228.066 126.935 226.732 128.3 196.412 158.707C173.988 181.194 164.688 190.637 164.598 191.01C164.245 192.472 165.493 193.917 167.107 193.917H167.942L201.599 160.179L235.256 126.441L268.912 160.179L302.569 193.917H303.379C305.161 193.917 306.504 192.124 305.788 190.703C305.676 190.48 291.383 176.052 274.026 158.642C243.641 128.164 242.494 126.988 243.194 127.055C244.149 127.147 245.125 126.67 245.518 125.919C245.804 125.374 245.824 123.921 245.773 107.942C245.719 90.8615 245.712 90.5513 245.348 90.1425C245.144 89.9136 244.751 89.6298 244.475 89.5115L243.972 89.2966L247.947 85.3153L251.921 81.334L251.926 104.073C251.928 116.728 252.003 127.127 252.095 127.525C252.222 128.07 252.581 128.537 253.619 129.503C255.647 131.392 298.721 174.637 299.058 175.123C299.652 175.979 300.199 176.096 303.582 176.096C307.079 176.096 307.714 175.956 308.304 175.054C308.754 174.366 308.748 172.991 308.291 172.292C307.754 171.471 307.006 171.27 304.471 171.267L302.196 171.264L299.187 168.306C297.532 166.679 296.178 165.302 296.178 165.246C296.178 165.19 299.541 165.144 303.65 165.144H311.122L311.752 164.72C312.156 164.448 312.478 164.017 312.653 163.514C312.892 162.825 312.892 162.637 312.653 161.948C312.478 161.445 312.156 161.014 311.752 160.741L311.122 160.318L303.604 160.318C296.39 160.319 296.061 160.334 295.473 160.694C294.77 161.123 294.258 162.177 294.372 162.957L294.45 163.488L293.718 162.785C293.316 162.398 286.616 155.691 278.829 147.88L264.67 133.679L265.496 133.559C266.488 133.414 267.158 133.005 267.448 132.369C267.605 132.022 267.661 126.176 267.661 110.095V88.2921H303.585H339.509V110.113C339.509 134.195 339.432 132.687 340.686 133.283C341.903 133.862 343.394 133.479 343.988 132.436C344.185 132.089 344.231 127.612 344.231 108.712C344.231 86.2143 344.219 85.3949 343.882 84.8367C343.69 84.5188 343.302 84.1219 343.02 83.955C342.55 83.6763 339.284 83.6513 303.585 83.6513C267.887 83.6513 264.62 83.6763 264.15 83.955C262.952 84.6645 263.032 82.8998 263.032 108.692V132.097L259.884 128.924L256.736 125.751V101.546V77.3398H303.585H350.434V102.579V127.819L351.004 128.469C351.956 129.556 353.824 129.548 354.683 128.452C355.063 127.969 355.064 127.893 355.064 104.231C355.064 91.1767 355.127 80.4955 355.205 80.4955C355.283 80.4955 355.763 80.7766 356.272 81.1202C357.559 81.9893 360.799 83.5403 362.529 84.1156C364.569 84.7941 367.221 85.32 369.6 85.518C371.487 85.6751 372.469 85.6526 375.016 85.394L375.988 85.2953V82.7809V80.2666L375.572 80.3808C374.581 80.6528 371.326 80.7194 369.501 80.5054C361.66 79.5857 355.253 75.81 351.183 69.7108C348.336 65.4439 347.048 61.1533 347.066 55.992C347.081 51.7807 347.765 48.8995 349.698 44.9149C353.636 36.7998 360.982 31.7862 370.155 30.9529C371.201 30.8581 372.652 30.8527 373.489 30.941C374.303 31.0268 375.199 31.1016 375.479 31.1072L375.988 31.1172V28.8078C375.988 27.5098 375.909 26.4493 375.808 26.3865C375.416 26.1435 370.648 26.0671 368.952 26.2765C364.735 26.7973 361.97 27.6366 358.158 29.5525C350.993 33.1538 345.372 40.2908 343.206 48.5348C341.858 53.6699 341.99 59.7704 343.555 64.6239C344.456 67.419 345.664 70.008 346.954 71.91L347.489 72.699H304.012H260.535L264.507 68.7145L268.478 64.7301L268.693 65.2426C268.811 65.5246 269.125 65.8976 269.389 66.0715C269.838 66.3661 272.143 66.3874 303.532 66.3867C336.571 66.3861 337.205 66.3793 337.786 66.0243C339.336 65.0771 338.87 62.1662 337.113 61.8138C336.807 61.7526 336.518 61.5662 336.47 61.3997C336.422 61.2332 336.288 59.9902 336.172 58.6373C335.551 51.3757 337.773 42.8215 341.923 36.5006C347.759 27.6108 356.385 22.0279 367.036 20.2471C368.914 19.933 374.777 19.8046 375.58 20.0598C375.987 20.1894 375.988 20.181 375.988 17.7808V15.3718L374.368 15.2359C371.068 14.9592 366.515 15.3594 362.742 16.2577C358.883 17.1764 354.263 19.1149 350.805 21.266C337.539 29.5174 329.897 45.2971 331.671 60.772L331.783 61.7466H301.623H271.463L273.646 59.5521C276.015 57.1717 276.432 56.4652 276.166 55.284C276.042 54.7304 272.861 51.4572 256.424 34.9693C245.647 24.1593 236.605 15.1947 236.33 15.0481C235.78 14.7552 234.815 14.7164 234.237 14.9638ZM252.932 38.1636C262.603 47.8589 270.478 55.8327 270.431 55.8836C269.009 57.4331 235.312 91.0644 235.214 91.0317C235.097 90.9922 218.973 74.8794 203.499 59.3375L199.982 55.8049L217.572 38.1705C227.247 28.4716 235.204 20.5361 235.256 20.5361C235.307 20.5361 243.262 28.4686 252.932 38.1636ZM69.9505 26.5211C69.6249 26.7517 69.2709 27.1324 69.1637 27.3669C69.0307 27.6576 68.9687 34.5715 68.9687 49.0911C68.9687 72.5141 68.8872 70.8742 70.0818 71.4935C71.175 72.0602 72.6938 71.6702 73.2821 70.6718C73.5745 70.1755 73.598 68.6713 73.598 50.4408V30.7459H98.5966H123.595V50.4323C123.595 72.1602 123.523 70.8731 124.772 71.4673C125.55 71.8372 126.192 71.8517 126.989 71.5176C128.32 70.9601 128.225 72.703 128.225 48.9417V27.5848L127.591 26.8913L126.957 26.1979L98.7496 26.1499L70.5423 26.1016L69.9505 26.5211ZM-33.9885 28.8384V31.2328L-32.5086 31.5696C-31.6946 31.7549 -30.1737 32.2522 -29.1292 32.6747C-20.9315 35.9906 -14.9605 43.5255 -13.5297 52.3603C-13.1417 54.7557 -13.216 58.9729 -13.6839 61.1125C-15.0057 67.155 -18.5731 72.6009 -23.5261 76.1372C-26.0867 77.9654 -29.6465 79.4926 -32.8312 80.1293L-33.9885 80.3606V82.8367V85.3127L-33.3867 85.1995C-25.2266 83.6648 -18.0607 78.8725 -13.3063 71.7708C-8.18793 64.125 -7.02022 54.2757 -10.2086 45.6404C-12.8004 38.621 -17.7274 33.081 -24.587 29.4729C-27.0941 28.1543 -30.5391 26.993 -33.2015 26.569L-33.9885 26.4437V28.8384ZM234.515 30.3166C234.209 30.3747 229.952 34.5147 221.983 42.5021C209.037 55.4791 209.43 55.0284 209.784 56.5012C209.867 56.8489 213.809 60.9267 222.076 69.2183L234.246 81.4237H235.254H236.263L248.448 69.2165C261.55 56.0909 261.093 56.6154 260.728 55.1203C260.641 54.7637 256.915 50.8973 248.9 42.8453C242.465 36.3805 236.989 30.937 236.731 30.7487C236.214 30.3719 235.232 30.1803 234.515 30.3166ZM245.256 46.0601L255.07 55.8977L245.163 65.8296L235.256 75.7615L225.346 65.8272L215.436 55.8931L225.3 46.0113C230.725 40.5763 235.226 36.1505 235.303 36.1761C235.379 36.2017 239.859 40.6495 245.256 46.0601ZM80.6128 37.7781L79.894 38.4989V55.8023V73.1057L80.2919 73.6659C81.0847 74.7821 80.384 74.7409 98.5966 74.7409C116.965 74.7409 116.196 74.7892 116.924 73.5919C117.292 72.9873 117.298 72.7018 117.299 55.7381L117.299 38.4989L116.58 37.7781L115.861 37.0574H98.5966H81.3319L80.6128 37.7781ZM368.888 37.3539C362.822 38.4525 357.777 42.1908 355.18 47.5125C353.738 50.4655 353.212 52.6656 353.212 55.7395C353.212 64.3503 358.834 71.7465 367.1 74.0114C368.433 74.3765 369.114 74.4426 371.544 74.4417C373.263 74.4411 374.73 74.349 375.202 74.2124L375.988 73.9841V71.6492C375.988 69.3156 375.988 69.3143 375.572 69.4355C375.343 69.5022 374.426 69.654 373.535 69.773C371.715 70.0162 369.37 69.8094 367.748 69.2633C362.469 67.4847 358.634 62.8188 358.021 57.4256C357.143 49.7104 362.58 42.9996 370.593 41.9086C371.894 41.7313 374.684 41.9786 375.672 42.3587C375.977 42.4761 375.996 42.3122 375.948 40.0072L375.896 37.5295L374.6 37.3049C372.894 37.0094 370.685 37.0283 368.888 37.3539ZM27.1003 37.6632C26.7542 37.8943 26.3144 38.4037 26.1231 38.7952C25.5728 39.921 25.8829 40.6058 27.7627 42.415C29.2028 43.8009 29.395 43.9259 30.0868 43.9259C31.1447 43.9259 31.6678 43.5999 33.1925 41.9908C34.4499 40.6639 34.5262 40.5345 34.5262 39.7308C34.5262 38.7378 34.0514 37.9474 33.1851 37.4983C32.4557 37.1202 31.3037 37.2598 30.7353 37.7952L30.314 38.1919L29.6166 37.7176C28.7535 37.1304 27.9251 37.1126 27.1003 37.6632ZM-33.9885 40.1169C-33.9885 42.2032 -33.9426 42.6264 -33.7158 42.6264C-33.2871 42.6264 -31.4116 43.5524 -30.1924 44.366C-28.0477 45.7974 -25.7821 48.6064 -25.0027 50.8C-23.7556 54.3111 -23.8628 58.2857 -25.2914 61.4936C-26.7432 64.7539 -29.9471 67.8068 -33.1089 68.943L-33.9885 69.259V71.6288C-33.9885 72.9321 -33.9606 73.9984 -33.9265 73.9984C-33.6922 73.9984 -31.2876 73.1255 -30.3572 72.703C-27.5639 71.4339 -24.0459 68.4328 -22.4131 65.9261C-19.384 61.2757 -18.6214 56.2708 -20.0795 50.6087C-21.2542 46.0467 -25.0842 41.4544 -29.6369 39.1488C-30.4261 38.7491 -32.6345 37.9336 -33.4793 37.73L-33.9885 37.6073V40.1169ZM112.625 55.8528L112.672 69.9145H98.5977H84.5234V55.8053V41.6959L98.5504 41.7436L112.577 41.7911L112.625 55.8528ZM229.851 50.1865C224.896 55.1266 224.756 55.3347 225.412 56.7832C225.858 57.7657 233.574 65.4693 234.466 65.822C235.796 66.3481 236.058 66.1667 240.839 61.4047L245.255 57.0061V55.8968V54.7872L240.753 50.2847L236.252 45.7822H235.26H234.269L229.851 50.1865ZM91.5609 48.7302L90.8054 49.4505L90.8587 55.9506C90.9093 62.1275 90.93 62.4708 91.2785 62.8565C92.0676 63.7299 92.5274 63.7886 98.5966 63.7886C104.927 63.7886 105.339 63.7238 106.009 62.6236C106.352 62.0596 106.373 61.661 106.373 55.7312L106.374 49.4373L105.626 48.7235L104.877 48.0098H98.5966H92.3163L91.5609 48.7302ZM369.653 48.4501C366.396 49.542 364.387 52.0724 364.184 55.3367C363.927 59.4652 366.66 62.8478 370.882 63.6278C372.228 63.8764 373.501 63.6883 375.109 63.0037L375.988 62.6291V55.9061V49.1832L375.479 48.9433C374.413 48.441 372.712 48.0129 371.822 48.023C371.313 48.0287 370.337 48.2209 369.653 48.4501ZM-33.9885 55.8992C-33.9885 63.4242 -34.1046 63.0349 -32.4214 61.1582C-30.9617 59.5307 -30.2891 57.8424 -30.2891 55.8064C-30.2891 53.7223 -30.8961 52.2301 -32.3869 50.6499C-34.1215 48.8114 -33.9885 48.3753 -33.9885 55.8992ZM237.504 53.6976L239.665 55.8585L237.524 57.9671C236.347 59.127 235.324 60.0759 235.252 60.0759C235.077 60.0759 230.997 56.0304 230.997 55.8563C230.997 55.7052 235.101 51.5368 235.25 51.5368C235.301 51.5368 236.315 52.5092 237.504 53.6976ZM101.559 55.8992V58.9621H98.5041H95.4487V55.8992V52.8362H98.5041H101.559V55.8992ZM373.395 53.2294C375.413 54.3664 375.358 57.5938 373.303 58.5909C371.063 59.6783 368.758 58.0755 368.996 55.5947C369.209 53.3753 371.484 52.1522 373.395 53.2294ZM29.5264 67.8196C28.9639 67.9193 -25.7203 122.637 -26.0466 123.427C-26.1634 123.709 -26.2127 124.287 -26.1558 124.711C-26.068 125.368 -25.8358 125.699 -24.5829 126.955C-23.2723 128.269 -23.0236 128.439 -22.2855 128.522C-20.748 128.696 -19.7301 127.752 -19.7301 126.153C-19.7301 125.685 -19.873 125.182 -20.0949 124.87L-20.4598 124.356L2.94774 100.894C15.8218 87.9903 27.236 76.5564 28.3124 75.4855L30.2695 73.5386L56.7021 100.025C74.8763 118.237 83.294 126.55 83.6451 126.635C84.4532 126.831 85.3354 126.575 85.9592 125.964C86.6005 125.335 86.836 124.584 86.6534 123.75C86.5618 123.332 79.7916 116.439 59.0966 95.692C42.2541 78.8074 31.4302 68.0915 31.0628 67.9377C30.4542 67.6826 30.3451 67.6742 29.5264 67.8196ZM162.067 72.9004C154.929 73.6574 148.206 75.8532 141.427 79.6422C136.788 82.2351 130.319 87.8035 126.848 92.1904C124.221 95.5116 120.79 101.246 119.628 104.257C119.451 104.716 119.192 105.342 119.053 105.649C118.174 107.589 116.886 112.035 116.284 115.209C115.451 119.593 115.126 127.042 115.717 128.187C116.469 129.644 119.234 129.669 119.891 128.224C120.02 127.94 120.134 126.4 120.174 124.382C120.394 113.506 123.577 104.429 130.325 95.439C131.925 93.3081 136.683 88.6277 139.01 86.8958C145.362 82.1698 152.297 79.2106 159.89 77.9869C165.267 77.1204 170.231 77.239 175.907 78.3698C192.002 81.5765 205.601 93.5284 211.092 109.294C212.651 113.768 213.775 120.088 213.775 124.373V125.701L210.236 129.226C207.296 132.155 206.717 132.657 206.81 132.194C206.872 131.888 207.061 130.259 207.23 128.574C208.143 119.471 205.671 109.706 200.487 101.933C196.373 95.7644 191.063 91.1017 184.425 87.8303C179.067 85.1893 174.07 83.9212 168.172 83.7053C157.282 83.3066 146.445 87.6714 138.46 95.6718C132.198 101.946 128.284 109.836 126.815 119.145C126.492 121.191 126.371 127.747 126.627 129.363L126.766 130.245H96.6203H66.4746L68.6274 128.064C69.8114 126.864 70.8726 125.7 70.9854 125.477C71.0984 125.254 71.1908 124.671 71.1908 124.182V123.292L51.516 103.552C40.6949 92.6948 31.6161 83.6921 31.3412 83.5459C31.066 83.3998 30.4845 83.28 30.0486 83.28H29.2561L9.39201 103.187C-4.47388 117.084 -10.5309 123.274 -10.6672 123.688C-11.137 125.115 -11.9799 124.194 9.2922 145.501C26.9336 163.172 29.1387 165.319 29.7611 165.432C30.8586 165.63 31.4858 165.246 33.8318 162.94L36.0076 160.801V177.158C36.0076 186.155 36.0631 193.669 36.1311 193.856C36.199 194.043 35.4119 193.381 34.3819 192.386C32.537 190.603 32.4959 190.576 31.6104 190.576C31.116 190.576 30.6205 190.667 30.5092 190.779C30.3629 190.925 30.2023 190.925 29.9288 190.779C29.7209 190.667 29.2003 190.576 28.772 190.576C28.0363 190.576 27.8921 190.675 26.1674 192.374L24.3415 194.172L24.3399 191.492C24.334 181.947 21.2599 170.988 16.0635 161.988C10.7782 152.834 3.03811 144.908 -5.99879 139.395C-13.9646 134.535 -23.8063 131.241 -32.5534 130.508L-33.9885 130.387V132.717C-33.9885 135.376 -34.1548 135.151 -32.0442 135.349C-25.879 135.925 -18.4999 138.151 -12.3457 141.292C4.07249 149.668 15.7028 165.299 18.7995 183.15C19.205 185.487 19.5113 188.428 19.6309 191.133C19.7155 193.047 19.8475 194.186 20.0251 194.535C20.3562 195.186 21.3971 195.643 22.3428 195.552C23.024 195.487 21.7917 196.751 -5.46642 224.077L-33.9885 252.67V256.011V259.352L-1.8618 227.147L30.2649 194.941L63.7416 228.503C82.1537 246.962 97.341 262.142 97.4908 262.237C97.8722 262.479 99.0972 262.458 99.581 262.201C100.567 261.677 101.07 260.643 100.875 259.538C100.798 259.1 94.061 252.244 69.1353 227.238L37.4936 195.495H38.5241C39.4774 195.495 39.6018 195.443 40.1882 194.802L40.8221 194.108L40.8214 176.795C40.8208 159.764 40.8147 159.472 40.4475 158.868C40.2421 158.531 39.8288 158.151 39.5288 158.025L38.9837 157.795L42.9583 153.814L46.9329 149.833L46.9458 172.85C46.9531 185.509 47.0179 196.016 47.0899 196.199C47.1619 196.382 57.9665 207.304 71.0998 220.47C89.9068 239.324 95.0987 244.431 95.5435 244.515C95.854 244.573 97.4806 244.594 99.1579 244.562C101.959 244.507 102.254 244.469 102.784 244.09C103.168 243.815 103.436 243.406 103.589 242.859C103.792 242.13 103.775 241.943 103.437 241.176C102.899 239.957 102.356 239.768 99.3807 239.768H97.0049L93.9421 236.659L90.8793 233.55H98.6129C106.168 233.55 106.359 233.541 106.87 233.162C107.157 232.948 107.515 232.426 107.664 232.001C107.904 231.322 107.904 231.136 107.664 230.457C107.515 230.033 107.157 229.51 106.87 229.297C106.363 228.921 106.123 228.908 98.8694 228.857C90.6973 228.799 90.444 228.827 89.7729 229.854C89.5833 230.144 89.4366 230.713 89.4344 231.168C89.4323 231.61 89.3888 231.969 89.3379 231.967C89.287 231.965 82.5174 225.217 74.2943 216.973C59.8783 202.519 59.3692 201.985 60.0632 202.052C60.9086 202.132 62.0259 201.662 62.3552 201.086C62.5268 200.786 62.6022 195.497 62.6727 178.788L62.7653 156.883L98.6429 156.836L134.521 156.79V178.611C134.521 202.694 134.444 201.185 135.698 201.782C136.479 202.153 137.117 202.166 137.928 201.826C139.25 201.272 139.15 203.301 139.15 177.166V153.629L138.516 152.936L137.882 152.243L98.7894 152.195C64.0686 152.153 59.6355 152.179 59.1509 152.43C57.9745 153.04 58.0434 151.505 58.0434 177.108C58.0434 189.927 57.981 200.413 57.9045 200.412C57.828 200.41 56.4114 199.046 54.7565 197.381L51.7474 194.352V170.188V146.024H98.5966H145.446V171.094C145.446 198.632 145.375 196.924 146.551 197.534C147.622 198.089 149.144 197.766 149.786 196.847C150.045 196.477 150.075 193.908 150.075 172.714C150.075 159.668 150.115 148.994 150.164 148.994C150.213 148.994 150.692 149.275 151.229 149.619C156.349 152.899 162.988 154.545 168.935 154.009C175.858 153.384 182.046 150.568 187.066 145.758C192.015 141.015 194.905 135.729 196.208 129.039C196.371 128.203 196.461 126.415 196.46 124.026C196.458 120.819 196.399 120.048 196.026 118.365C193.989 109.19 188.226 101.772 180.019 97.7627C174.946 95.2845 169.058 94.1908 163.954 94.7787C150.745 96.3001 140.731 105.429 137.823 118.599C137.46 120.244 137.403 121.036 137.4 124.491C137.396 127.999 137.448 128.716 137.827 130.417C138.57 133.755 139.992 137.342 141.558 139.829C141.965 140.474 142.298 141.047 142.298 141.1C142.298 141.154 122.778 141.197 98.9212 141.197H55.5446L59.499 137.253C62.2537 134.505 63.4847 133.392 63.5564 133.585C63.6129 133.737 63.8891 134.092 64.1702 134.374L64.6811 134.886L98.4435 134.885C131.581 134.885 132.217 134.878 132.798 134.523C133.49 134.1 133.89 133.026 133.711 132.071C133.564 131.287 132.802 130.448 132.111 130.31C131.82 130.251 131.529 130.067 131.465 129.9C131.189 129.179 131.017 124.413 131.188 122.231C131.419 119.29 131.63 118.009 132.31 115.433C134.939 105.472 141.643 97.1555 150.908 92.3629C155.225 90.1295 159.325 88.9676 164.651 88.4687C168.496 88.1084 173.774 88.8136 177.991 90.2517C191.874 94.9853 201.717 107.757 202.657 122.259C202.809 124.602 202.645 128.515 202.313 130.465C202.085 131.801 202.31 132.668 203.046 133.289C203.647 133.795 204.647 134.064 205.298 133.893C205.522 133.835 199.167 140.342 191.176 148.354L176.648 162.921L176.55 162.114C176.38 160.709 175.457 159.73 174.292 159.718C173.958 159.715 172.689 159.849 171.471 160.015C168.925 160.363 164.954 160.389 162.667 160.072C161.256 159.876 161.087 159.811 161.034 159.437C160.946 158.815 160.004 157.972 159.261 157.851C158.378 157.707 157.456 157.989 156.913 158.569L156.464 159.048L156.415 176.486C156.36 195.764 156.296 194.689 157.548 195.284C158.343 195.662 159.19 195.672 159.887 195.311C161.068 194.699 161.001 195.656 161.001 179.489V164.773L161.788 164.784C162.22 164.789 163.533 164.866 164.704 164.953C166.995 165.124 171.146 164.919 173.754 164.506L175.304 164.26L171.811 167.765L168.319 171.27H165.86H163.402L162.746 171.873C161.564 172.959 161.732 174.819 163.087 175.641C163.617 175.962 164.036 176.004 166.741 176.004C168.421 176.004 170.012 175.943 170.276 175.868C170.56 175.788 174.014 172.455 178.74 167.7C191.534 154.83 217.415 128.915 217.604 128.786C217.7 128.721 217.919 128.461 218.091 128.208C218.696 127.323 218.447 119.978 217.662 115.542C213.882 94.1878 196.543 77.0441 174.988 73.3494C171.369 72.729 165.58 72.5278 162.067 72.9004ZM83.9856 81.1016C82.332 81.9535 82.3211 84.5435 83.9678 85.368C84.5676 85.6686 85.6553 85.6927 98.5563 85.6929C113.688 85.6933 113.36 85.7148 114.042 84.6715C114.477 84.0062 114.489 82.5208 114.066 81.8724C113.397 80.8486 113.676 80.8666 98.4637 80.8696C87.6948 80.8716 84.3273 80.9256 83.9856 81.1016ZM47.9437 106.662C57.6147 116.357 65.4891 124.332 65.4424 124.383C64.4428 125.479 30.3362 159.575 30.2396 159.575C30.0588 159.575 -4.91607 124.532 -4.91607 124.351C-4.91607 124.199 30.1162 89.0347 30.2671 89.0347C30.3184 89.0347 38.273 96.9671 47.9437 106.662ZM362.706 89.4857C362.377 89.6344 361.94 90.0324 361.734 90.3699C361.367 90.9738 361.361 91.2658 361.36 108.219C361.36 124.132 361.384 125.495 361.676 125.99C362.315 127.075 364.023 127.386 365.178 126.628C366.193 125.961 366.174 126.264 366.174 110.554C366.174 96.808 366.191 96.0566 366.498 96.1943C366.677 96.2741 368.885 96.3751 371.405 96.4186L375.988 96.4975V94.1026V91.7076L372.331 91.7169C370.32 91.722 368.116 91.6575 367.434 91.5734C366.236 91.4256 366.187 91.3992 365.986 90.7876C365.586 89.5739 363.949 88.924 362.706 89.4857ZM274.801 95.1758C274.437 95.4967 274.068 96.0469 273.963 96.4288C273.686 97.4275 273.703 137.416 273.98 138.521C274.101 139.003 274.381 139.502 274.647 139.712C275.722 140.559 277.584 140.337 278.224 139.285C278.576 138.706 278.585 138.19 278.586 118.968L278.587 99.2444H303.585H328.584V118.931C328.584 140.659 328.512 139.372 329.761 139.966C330.542 140.337 331.18 140.35 331.991 140.011C333.31 139.458 333.213 141.248 333.213 117.466V96.0451L332.494 95.3242L331.775 94.6036H303.613H275.452L274.801 95.1758ZM29.1561 99.057C28.1447 99.6077 4.95189 122.993 4.7969 123.619C4.4284 125.106 3.98176 124.593 17.0223 137.665L29.1565 149.829H30.2684H31.3806L43.4975 137.67C51.7052 129.434 55.6542 125.346 55.7381 125C56.067 123.642 56.3329 123.945 43.7345 111.306C37.1932 104.743 31.5911 99.2192 31.2856 99.031C30.586 98.6003 29.9812 98.6075 29.1561 99.057ZM170.364 99.6229C174.301 100.314 177.244 101.477 180.395 103.588C185.925 107.291 189.694 112.787 191.215 119.365C191.766 121.747 191.893 126.217 191.478 128.653C190.349 135.295 186.403 141.417 180.911 145.048C178.801 146.442 175.625 147.831 173.222 148.41C170.958 148.955 169.937 149.062 167.019 149.057C164.465 149.053 163.507 148.974 161.94 148.635C157.039 147.576 152.997 145.492 149.607 142.275C140.879 133.992 139.507 120.752 146.314 110.502C147.841 108.202 150.738 105.165 152.622 103.889C155.601 101.871 159.265 100.38 162.856 99.7234C164.538 99.416 168.856 99.3582 170.364 99.6229ZM374.702 101.526L373.507 102.771H370.93H368.353L367.61 103.516C366.897 104.231 366.872 104.297 366.96 105.221C367.037 106.02 367.161 106.282 367.691 106.77C368.285 107.315 368.456 107.366 370.103 107.487C372.297 107.648 375.546 107.445 375.807 107.129C375.926 106.986 375.978 105.659 375.947 103.59L375.896 100.28L374.702 101.526ZM40.221 114.513L50.0808 124.399L40.1738 134.329L30.2668 144.259L20.3551 134.323L10.4434 124.387L20.3084 114.508C25.7341 109.074 30.2157 104.628 30.2671 104.628C30.3188 104.628 34.798 109.076 40.221 114.513ZM165.167 105.665C158.074 106.671 152.729 110.482 149.887 116.562C148.594 119.328 148.324 120.633 148.32 124.119C148.316 127.503 148.529 128.766 149.538 131.314C152.761 139.46 161.196 144.277 169.632 142.788C173.878 142.039 177.531 140.061 180.554 136.875C182.528 134.793 183.789 132.757 184.627 130.294C185.476 127.8 185.698 126.162 185.565 123.377C185.434 120.645 184.998 118.771 183.988 116.612C181.421 111.12 176.798 107.445 170.65 106.011C169.443 105.729 166.17 105.523 165.167 105.665ZM286.256 105.734C286.044 105.821 285.648 106.157 285.377 106.481L284.883 107.069V124.292V141.514L285.306 142.145C285.571 142.54 285.996 142.864 286.443 143.011C287.004 143.196 290.763 143.236 303.968 143.197C320.709 143.147 320.782 143.145 321.302 142.758C321.59 142.544 321.928 142.168 322.054 141.922C322.23 141.578 322.283 137.553 322.285 124.256L322.288 107.036L321.654 106.342L321.02 105.649L303.831 105.613C294.377 105.593 286.468 105.647 286.256 105.734ZM232.192 106.087C231.37 106.59 230.997 107.27 230.997 108.267C230.997 109.106 231.049 109.188 232.563 110.733L234.129 112.332H235.243H236.358L237.849 110.846C239.63 109.073 239.916 108.421 239.394 107.316C238.9 106.268 237.966 105.686 236.957 105.797C236.489 105.848 235.981 106.051 235.73 106.287L235.303 106.69L234.605 106.216C233.781 105.655 232.97 105.612 232.192 106.087ZM169.982 110.728C172.861 111.483 174.89 112.616 176.839 114.559C182.832 120.532 182.141 130.256 175.352 135.489C170.586 139.163 164.094 139.366 159.145 135.997C155.935 133.812 153.874 130.638 153.12 126.718C152.781 124.95 152.782 123.654 153.126 121.853C154.146 116.507 158.077 112.308 163.44 110.834C165.434 110.286 168.127 110.242 169.982 110.728ZM317.658 124.398V138.413H303.585H289.512V124.398V110.382H303.585H317.658V124.398ZM29.2487 114.462C29.045 114.548 26.941 116.572 24.573 118.96L20.2677 123.302V124.398V125.493L24.4719 129.722C26.7844 132.048 28.9561 134.085 29.2983 134.247C29.7305 134.453 30.1462 134.505 30.6606 134.418C31.3187 134.306 31.8578 133.836 35.5137 130.181C37.7756 127.919 39.7703 125.862 39.9464 125.609C40.1457 125.324 40.2666 124.801 40.2666 124.226V123.302L36.0539 119.056C33.7369 116.721 31.6161 114.691 31.3412 114.545C30.7921 114.255 29.8268 114.216 29.2487 114.462ZM372.896 118.78C371.246 120.44 369.807 122.039 369.698 122.332C369.153 123.797 370.393 125.419 372.058 125.419C372.854 125.419 372.964 125.348 374.446 123.887L375.999 122.356L375.948 119.058L375.896 115.761L372.896 118.78ZM165.445 116.712C163.144 117.162 160.846 118.959 159.836 121.098C159.279 122.277 159.241 122.484 159.241 124.402C159.241 126.338 159.274 126.515 159.847 127.68C160.561 129.134 162.148 130.706 163.642 131.438C167.122 133.145 171.326 131.879 173.515 128.466C174.916 126.281 175.102 123.349 173.984 121.072C172.911 118.887 170.615 117.136 168.243 116.694C167.099 116.481 166.609 116.484 165.445 116.712ZM297.181 116.684C296.97 116.772 296.574 117.109 296.302 117.433L295.808 118.022V124.235C295.808 130.999 295.827 131.138 296.863 131.842C297.347 132.171 297.798 132.194 303.585 132.194C309.372 132.194 309.823 132.171 310.307 131.842C311.344 131.138 311.362 131.001 311.362 124.219V117.988L310.729 117.294L310.095 116.601L303.831 116.563C300.386 116.542 297.393 116.596 297.181 116.684ZM32.4892 122.17L34.6128 124.305L32.3967 126.532L30.1803 128.76L28.0943 126.675C26.947 125.528 26.0081 124.506 26.0081 124.404C26.0081 124.216 30.0842 120.035 30.2671 120.035C30.3214 120.035 31.3213 120.996 32.4892 122.17ZM168.543 121.826C169.842 122.798 170.223 124.33 169.547 125.86C169.243 126.55 169 126.804 168.369 127.091C166.023 128.158 163.799 126.671 164.005 124.172C164.097 123.061 164.489 122.405 165.462 121.736C165.98 121.379 166.268 121.316 167.073 121.381C167.655 121.427 168.251 121.608 168.543 121.826ZM306.733 124.398V127.461H303.585H300.437V124.398V121.335H303.585H306.733V124.398ZM366.822 130.443C347.924 132.117 330.362 142.528 319.898 158.26C317.662 161.621 316.356 164.046 314.139 168.95C313.349 170.697 311.585 176.374 311.024 178.974C310.076 183.365 309.782 185.508 309.508 190.019C309.345 192.69 309.356 193.399 309.566 194.01C310.035 195.371 311.476 195.933 312.93 195.324C313.828 194.948 314.14 194.218 314.142 192.488C314.145 190.482 314.45 187.068 314.901 183.992C316.153 175.454 319.547 167.002 324.595 159.854C328.301 154.606 333.513 149.376 338.769 145.631C344.339 141.663 351.115 138.538 357.841 136.837C363.103 135.507 366.812 135.04 372.146 135.035L375.988 135.032V132.751C375.988 130.843 375.941 130.452 375.696 130.358C375.289 130.202 368.851 130.263 366.822 130.443ZM234.552 136.318C234.291 136.367 223.386 147.163 206.555 164.032C177.076 193.578 178.536 192.024 178.859 193.496C178.931 193.826 179.547 194.601 180.455 195.506L181.934 196.98H183.026C183.913 196.98 184.203 196.899 184.575 196.549C185.497 195.681 185.599 194.065 184.789 193.168C184.563 192.917 187.611 189.795 209.894 167.458L235.256 142.033L261.597 168.42C276.084 182.933 288.12 194.899 288.342 195.012C289.349 195.522 290.914 194.968 291.461 193.908C291.775 193.298 291.816 192.377 291.551 191.879C291.162 191.151 236.638 136.682 236.052 136.436C235.445 136.182 235.314 136.172 234.552 136.318ZM367.431 141.398C363.886 141.692 359.883 142.546 356.082 143.818C338.452 149.721 325.235 164.627 321.453 182.872C320.821 185.922 320.601 187.992 320.495 191.887C320.374 196.338 320.473 196.871 321.532 197.499C322.148 197.864 323.353 197.913 324.036 197.601C324.911 197.201 325.105 196.647 325.08 194.614C325.055 192.583 325.331 188.635 325.641 186.585C327.198 176.277 331.887 166.981 339.219 159.668C341.913 156.98 343.976 155.314 347.238 153.193C351.532 150.4 357.479 147.952 362.378 146.96C362.989 146.836 363.656 146.699 363.86 146.655C365.677 146.263 368.806 146.024 372.134 146.024H375.988V143.73V141.436L374.85 141.317C373.405 141.165 369.761 141.205 367.431 141.398ZM-33.9885 143.775V146.166L-32.7386 146.289C-28.0016 146.754 -21.8092 148.675 -16.9524 151.187C-8.36218 155.628 -0.951851 163.061 3.3742 171.574C6.73624 178.19 8.3317 184.25 8.69557 191.782L8.81223 194.196L5.19225 197.81C2.03279 200.965 1.59375 201.342 1.74078 200.78C2.26982 198.756 2.55295 193.869 2.3213 190.761C1.55893 180.539 -2.34307 171.723 -9.25398 164.612C-13.1934 160.558 -17.0295 157.848 -21.8877 155.686C-25.0579 154.275 -28.6999 153.169 -31.6738 152.713C-32.3868 152.604 -33.1991 152.468 -33.4793 152.41L-33.9885 152.306V154.699V157.093L-31.535 157.581C-26.4104 158.6 -21.6561 160.669 -17.255 163.795C-15.3966 165.115 -10.9072 169.563 -9.47619 171.501C-6.19582 175.945 -4.01687 180.902 -2.84452 186.585C-2.47695 188.367 -2.42288 189.182 -2.41973 192.989C-2.41733 195.894 -2.5014 197.826 -2.67102 198.773C-2.90711 200.091 -2.90026 200.246 -2.57843 200.896C-2.07401 201.914 -1.37183 202.361 -0.27615 202.362L0.636021 202.363L-13.8524 216.891L-28.3407 231.42L-28.4418 230.628C-28.5705 229.621 -28.8438 229.131 -29.563 228.617C-30.0826 228.246 -30.2828 228.218 -31.6466 228.322C-34.1739 228.515 -33.9885 228.305 -33.9885 230.973V233.271L-33.4793 233.268C-32.8899 233.263 -31.0026 232.997 -30.1924 232.804C-29.7225 232.691 -29.9717 233.01 -31.8127 234.877L-33.9885 237.082L-33.9826 240.607L-33.9769 244.131L-33.5026 243.574C-33.0562 243.05 -8.32385 218.188 6.48143 203.38C12.1333 197.728 13.2466 196.529 13.3485 195.985C13.5744 194.778 13.2635 187.986 12.8679 185.485C9.57959 164.696 -5.41216 148.115 -25.7482 142.775C-27.9952 142.185 -32.6056 141.383 -33.7522 141.383C-33.9317 141.383 -33.9885 141.959 -33.9885 143.775ZM288.806 149.741C287.265 150.683 287.44 153.3 289.091 153.985C289.467 154.141 293.42 154.185 303.803 154.149C317.878 154.099 318.006 154.096 318.525 153.711C318.812 153.497 319.17 152.975 319.319 152.551C319.559 151.872 319.559 151.684 319.319 150.996C319.144 150.492 318.823 150.061 318.418 149.789L317.789 149.365L303.604 149.366C289.703 149.367 289.407 149.374 288.806 149.741ZM234.237 151.961C234.034 152.048 224.972 161.045 214.099 171.953L194.332 191.786V192.896V194.006L214.192 213.895C230.518 230.245 234.159 233.804 234.654 233.894C235.923 234.127 236.346 233.878 238.82 231.445L241.181 229.124V245.898V262.671L239.337 260.854L237.492 259.038L236.513 259.146C235.974 259.206 235.408 259.255 235.256 259.255C235.103 259.255 234.537 259.206 233.999 259.146L233.019 259.038L231.161 260.866C229.716 262.287 229.329 262.586 229.423 262.207C229.56 261.654 229.238 256.028 228.941 253.784C227.794 245.121 225.067 237.246 220.599 229.698C215.56 221.186 208.058 213.544 199.51 208.215C192.566 203.886 184.889 200.965 176.833 199.588C173.381 198.997 171.293 198.839 166.926 198.838C161.759 198.836 159.5 199.051 154.982 199.972C154.168 200.139 153.293 200.315 153.038 200.364C151.195 200.72 146.894 202.103 143.769 203.345C134.778 206.918 126.339 212.901 119.754 220.37C110.342 231.046 104.689 245.653 104.487 259.817C104.445 262.788 104.534 263.13 105.506 263.724C106.645 264.42 108.335 264.008 108.837 262.912C109.016 262.522 109.148 261.32 109.231 259.353C109.629 249.801 112.09 240.971 116.525 233.179C122.251 223.118 131.009 214.793 141.279 209.648C152.041 204.257 164.354 202.328 175.815 204.237C186.592 206.033 196.962 210.986 204.967 218.163C213.926 226.195 219.891 235.928 222.874 247.379C223.41 249.434 223.58 250.254 223.976 252.67C224.311 254.723 224.69 258.964 224.696 260.745C224.701 262.149 224.774 262.628 225.057 263.093C225.467 263.766 226.44 264.162 227.409 264.049C227.998 263.979 227.108 264.921 217.072 274.982L206.092 285.991H209.424H212.756L224.006 274.714L235.256 263.438L246.506 274.714L257.755 285.991H261.088H264.42L253.444 274.987C242.782 264.298 242.489 263.985 243.194 264.052C244.149 264.144 245.125 263.667 245.518 262.916C245.804 262.371 245.824 260.918 245.773 244.939C245.719 227.858 245.712 227.548 245.348 227.14C245.144 226.911 244.751 226.627 244.475 226.509L243.972 226.294L247.947 222.312L251.921 218.331L251.943 241.162C251.955 253.72 252.018 264.229 252.082 264.517C252.165 264.888 255.268 268.113 262.662 275.514L273.124 285.987L276.411 285.989C278.219 285.99 279.698 285.963 279.698 285.929C279.698 285.896 276.239 282.407 272.012 278.178L264.327 270.488L265.138 270.553C265.636 270.592 266.17 270.502 266.524 270.319C267.732 269.692 267.661 271.141 267.661 247.11V225.289H303.585H339.509V247.113C339.509 269.165 339.513 269.315 340.144 269.947C341.161 270.966 343.276 270.683 343.988 269.433C344.185 269.086 344.231 264.609 344.231 245.709C344.231 223.211 344.219 222.392 343.882 221.834C343.69 221.516 343.302 221.119 343.02 220.952C342.55 220.673 339.277 220.648 303.488 220.648H264.47L263.751 221.369L263.032 222.09L263.029 245.64L263.026 269.191L259.881 266.015L256.736 262.839V238.588V214.337H303.585H350.434V239.499C350.434 267.266 350.352 265.411 351.612 266.01C352.393 266.382 353.031 266.395 353.842 266.055C355.164 265.501 355.064 267.55 355.064 241.212C355.064 228.166 355.109 217.493 355.165 217.493C355.221 217.493 355.721 217.784 356.276 218.14C359.374 220.126 363.245 221.593 367.141 222.257C368.969 222.568 373.619 222.673 375.109 222.436L375.988 222.296V219.782C375.988 217.488 375.961 217.278 375.673 217.389C374.989 217.652 371.171 217.724 369.399 217.507C363.24 216.754 358.324 214.436 354.214 210.348C349.452 205.612 347.043 199.761 347.066 192.989C347.09 185.956 349.949 179.414 355.178 174.425C358.115 171.624 361.933 169.614 366.349 168.544C368.558 168.009 373.04 167.761 374.924 168.069L375.988 168.244V165.853C375.988 163.749 375.95 163.446 375.664 163.331C375.113 163.108 368.753 163.198 367.47 163.447C360.68 164.765 355.626 167.269 351.41 171.408C341.453 181.181 339.377 196.435 346.422 208.059C346.898 208.843 347.286 209.532 347.286 209.59C347.286 209.648 327.767 209.696 303.911 209.696H260.535L264.507 205.712L268.478 201.727L268.693 202.24C268.811 202.522 269.125 202.895 269.389 203.069C269.838 203.363 272.15 203.384 303.646 203.384H337.422L337.906 203.003C338.497 202.537 338.858 201.415 338.695 200.546C338.55 199.772 337.779 198.944 337.07 198.802C336.437 198.675 336.43 198.651 336.172 195.634C335.533 188.165 337.886 179.437 342.294 172.929C348.064 164.413 356.91 158.839 367.193 157.241C369.094 156.946 374.535 156.836 375.479 157.074L375.988 157.202V154.796V152.389L374.739 152.271C367.207 151.558 358.217 153.77 351.077 158.093C344.055 162.345 337.533 170.044 334.528 177.627C331.878 184.315 330.91 191.136 331.671 197.769L331.783 198.744H301.623H271.463L273.646 196.549C276.015 194.169 276.432 193.462 276.166 192.281C276.042 191.727 272.861 188.454 256.424 171.966C245.647 161.156 236.605 152.192 236.33 152.045C235.78 151.752 234.815 151.713 234.237 151.961ZM252.893 175.122C262.543 184.795 270.439 192.783 270.439 192.872C270.439 192.961 262.531 200.964 252.865 210.657L235.291 228.28L217.682 210.634C207.997 200.929 200.072 192.926 200.072 192.85C200.072 192.699 235.104 157.533 235.255 157.533C235.306 157.533 243.243 165.448 252.893 175.122ZM70.4438 163.253C69.914 163.491 69.3985 163.936 69.1833 164.343C69.0242 164.643 68.9687 170.265 68.9687 186.067C68.9687 209.513 68.8872 207.871 70.0818 208.49C70.7788 208.852 71.6265 208.842 72.4209 208.464C73.6699 207.87 73.598 209.148 73.598 187.522V167.929H98.5966H123.595V187.501C123.595 199.766 123.663 207.251 123.776 207.549C124.171 208.592 125.948 209.093 127.112 208.49C128.306 207.871 128.225 209.522 128.225 185.984V164.582L127.591 163.888L126.957 163.195L98.8424 163.161C83.3794 163.142 70.6001 163.184 70.4438 163.253ZM-33.9885 165.857V168.241L-32.9238 168.476C-23.0806 170.654 -15.1814 179.159 -13.5297 189.357C-13.1417 191.753 -13.216 195.97 -13.6839 198.11C-15.7923 207.749 -23.348 215.291 -32.7386 217.13L-33.9885 217.375V219.842V222.31L-33.3867 222.204C-31.9407 221.949 -29.1599 221.144 -27.6889 220.554C-23.6524 218.935 -20.5811 216.876 -17.3187 213.601C-12.9441 209.21 -10.2671 204.324 -8.97585 198.372C-8.48162 196.094 -8.30014 191.57 -8.60864 189.221C-9.58063 181.825 -13.0232 175.398 -18.6327 170.506C-20.9205 168.511 -23.5545 166.872 -26.7667 165.443C-28.3429 164.742 -32.8706 163.473 -33.7956 163.473C-33.9194 163.473 -33.9885 164.327 -33.9885 165.857ZM234.608 167.329C234.158 167.388 231.745 169.715 221.984 179.499C209.04 192.474 209.43 192.028 209.784 193.498C209.868 193.846 213.82 197.935 222.074 206.215L234.24 218.421H235.251H236.262L248.443 206.219C258.243 196.402 260.646 193.902 260.735 193.425C261.005 191.978 261.272 192.285 249.079 180.028C242.749 173.665 237.279 168.227 236.922 167.943C236.237 167.399 235.524 167.209 234.608 167.329ZM245.257 183.056L255.072 192.893L245.164 202.826L235.256 212.759L225.344 202.822L215.432 192.885L225.297 183.006C230.723 177.572 235.226 173.147 235.303 173.173C235.38 173.199 239.859 177.646 245.257 183.056ZM81.2676 174.233C81.0558 174.32 80.6599 174.656 80.388 174.979L79.894 175.568V192.885V210.203L80.2955 210.714C81.1263 211.773 80.493 211.738 98.5966 211.738C116.965 211.738 116.196 211.786 116.924 210.589C117.292 209.984 117.298 209.699 117.299 192.754L117.299 175.534L116.665 174.841L116.032 174.147L98.8424 174.111C89.3883 174.091 81.4796 174.146 81.2676 174.233ZM369.127 174.329C363.117 175.344 357.855 179.152 355.267 184.357C353.721 187.469 353.211 189.588 353.214 192.896C353.218 197.842 355.215 202.632 358.754 206.184C361.3 208.739 364.12 210.299 367.841 211.21C369.141 211.528 374.11 211.529 375.202 211.211L375.988 210.981V208.646C375.988 206.312 375.988 206.311 375.572 206.433C373.533 207.029 370.093 207.007 368.119 206.384C363.275 204.856 359.696 201.185 358.371 196.384C358.065 195.274 357.974 194.442 357.982 192.803C357.996 189.699 358.618 187.651 360.32 185.1C363.61 180.167 369.984 177.771 375.577 179.364L376 179.484L375.948 177.001L375.896 174.519L374.507 174.298C372.741 174.018 370.905 174.029 369.127 174.329ZM27.3812 174.504C26.189 175.024 25.543 176.503 26.0668 177.513C26.219 177.806 27.0084 178.693 27.8212 179.484C29.2807 180.905 29.3105 180.923 30.2642 180.923C31.2293 180.923 31.2299 180.923 32.8779 179.294L34.5262 177.665V176.701C34.5262 175.848 34.4521 175.663 33.8808 175.091C32.8922 174.1 31.6178 173.994 30.7071 174.829C30.3168 175.186 30.309 175.186 29.6166 174.715C28.8424 174.188 28.2361 174.131 27.3812 174.504ZM-33.9885 177.07V179.536L-33.0375 179.875C-30.5928 180.745 -27.8078 183.012 -26.3327 185.332C-24.7561 187.812 -24.1513 189.878 -24.1535 192.78C-24.1554 195.297 -24.5207 196.889 -25.6071 199.115C-26.3414 200.619 -26.7286 201.141 -28.2422 202.665C-29.823 204.256 -30.2328 204.557 -32.0025 205.423L-33.9885 206.396V208.699V211.002L-33.4793 210.883C-32.3779 210.625 -29.499 209.335 -28.1235 208.484C-26.1071 207.235 -23.0521 204.12 -21.9357 202.174C-20.2461 199.229 -19.5621 196.925 -19.4099 193.666C-19.2962 191.23 -19.4873 189.726 -20.2271 187.236C-21.565 182.731 -24.7507 178.893 -29.233 176.384C-30.0815 175.909 -32.5069 174.963 -33.4793 174.728L-33.9885 174.604V177.07ZM112.625 192.85L112.672 206.911H98.5977H84.5234V192.802V178.693L98.5504 178.741L112.577 178.788L112.625 192.85ZM234.237 182.992C234.034 183.103 231.969 185.085 229.65 187.396C224.997 192.032 224.794 192.329 225.35 193.678C225.752 194.652 233.633 202.566 234.48 202.847C235.863 203.304 236.102 203.138 240.849 198.395L245.255 193.994V192.897V191.801L241.042 187.555C238.725 185.219 236.605 183.189 236.33 183.044C235.74 182.732 234.759 182.708 234.237 182.992ZM91.9983 185.363C90.7928 186.1 90.8193 185.931 90.8193 192.913C90.8193 199.133 90.8267 199.26 91.2208 199.762C91.9839 200.735 92.3501 200.786 98.5681 200.786C104.929 200.786 105.339 200.722 106.009 199.621C106.351 199.057 106.373 198.658 106.373 192.782C106.374 184.298 107.087 185.006 98.5596 185.008C92.9984 185.008 92.5377 185.033 91.9983 185.363ZM370.225 185.277C367.832 185.938 365.869 187.508 364.855 189.573C363.801 191.719 363.933 194.686 365.178 196.816C365.83 197.931 367.502 199.438 368.653 199.949C370.343 200.698 371.699 200.896 373.157 200.608C373.849 200.471 374.769 200.188 375.202 199.979L375.988 199.598V192.881V186.164L375.016 185.781C372.934 184.96 371.801 184.841 370.225 185.277ZM-33.9885 192.896C-33.9885 199.186 -33.9728 199.491 -33.6567 199.321C-32.9471 198.941 -31.5294 197.19 -30.9674 196.001C-30.4265 194.856 -30.3776 194.598 -30.3784 192.896C-30.3791 190.522 -30.8085 189.362 -32.2727 187.777C-34.1337 185.762 -33.9885 185.329 -33.9885 192.896ZM237.504 190.695L239.665 192.856L237.524 194.964C236.347 196.124 235.317 197.073 235.236 197.073C235.05 197.073 230.997 193.039 230.997 192.854C230.997 192.702 235.101 188.534 235.25 188.534C235.301 188.534 236.315 189.506 237.504 190.695ZM101.559 192.896V195.959H98.5041H95.4487V192.896V189.833H98.5041H101.559V192.896ZM373.41 190.255C373.754 190.487 374.232 190.968 374.473 191.323C374.84 191.864 374.899 192.148 374.841 193.086C374.762 194.369 374.395 194.992 373.371 195.575C371.934 196.394 370.022 195.83 369.322 194.381C368.528 192.737 369.104 190.941 370.711 190.05C371.364 189.688 372.724 189.792 373.41 190.255ZM28.8783 205.224C28.5728 205.417 16.0998 217.843 1.16044 232.836C-17.7348 251.798 -26.0408 260.254 -26.1291 260.616C-26.4195 261.804 -26.1208 262.425 -24.4829 264.04C-23.0499 265.453 -22.8712 265.571 -22.1751 265.571C-21.7603 265.571 -21.207 265.49 -20.9459 265.39C-19.8375 264.968 -19.3451 262.922 -20.0971 261.863L-20.4641 261.347L2.75868 238.074C15.5311 225.274 26.9462 213.841 28.1256 212.668L30.2699 210.535L56.6097 236.92C71.0965 251.432 83.1314 263.398 83.3538 263.51C84.9245 264.306 86.9662 262.737 86.6781 260.957C86.5825 260.367 83.3753 257.087 58.9265 232.579L31.283 204.87L30.3584 204.87C29.7696 204.871 29.2322 204.999 28.8783 205.224ZM163.223 209.813C155.782 210.473 148.548 212.681 142.205 216.227C125.769 225.416 115.417 242.929 115.454 261.482C115.461 265.012 115.534 265.328 116.478 265.953C117.625 266.71 119.697 266.181 119.982 265.058C120.052 264.779 120.14 263.079 120.175 261.28C120.315 254.311 121.709 248.081 124.442 242.212C124.791 241.462 125.077 240.826 125.077 240.797C125.077 240.597 127.196 236.944 128.15 235.499C129.857 232.913 131.547 230.862 134.053 228.335C137.196 225.167 139.676 223.201 143.243 221.052C150.988 216.385 160.981 213.885 169.373 214.514C177.363 215.114 183.893 217.126 190.428 221.003C200.135 226.761 207.41 235.735 211.209 246.637C212.665 250.816 213.775 257.226 213.775 261.452V262.862L210.183 266.466L206.59 270.07L206.832 268.888C207.245 266.869 207.533 262.467 207.399 260.189C206.888 251.442 204.156 243.783 199.108 236.943C197.664 234.987 193.757 230.976 191.832 229.474C184.508 223.759 175.73 220.648 166.924 220.648C156.704 220.648 146.473 224.868 138.951 232.185C132.41 238.548 128.247 246.768 126.819 256.142C126.48 258.361 126.362 264.672 126.627 266.36L126.766 267.242H96.6203H66.4746L68.6274 265.061C69.8114 263.861 70.8726 262.697 70.9854 262.474C71.0984 262.251 71.1908 261.668 71.1908 261.179V260.289L51.516 240.549C40.6949 229.692 31.6161 220.689 31.3412 220.543C30.7023 220.203 29.8311 220.204 29.1931 220.544C28.3965 220.968 -10.4295 260.028 -10.6522 260.629C-11.1648 262.012 -11.5139 261.606 1.07433 274.25L12.7642 285.991H16.0987H19.4333L7.25861 273.785C0.562508 267.072 -4.91607 261.496 -4.91607 261.394C-4.91607 261.292 3.00015 253.273 12.6755 243.574L30.2671 225.94L47.8587 243.574C57.5343 253.273 65.4294 261.272 65.4037 261.349C65.378 261.427 59.8588 267.003 53.139 273.741L40.9212 285.991H46.3342H51.7474V284.506V283.021H98.5966H145.446V284.506V285.991L154.381 285.969C161.923 285.95 163.142 285.912 162.204 285.721C156.886 284.64 152.338 282.175 148.781 278.445C141.584 270.898 139.955 259.875 144.642 250.444C148.219 243.247 154.264 238.56 162.175 236.847C164.288 236.39 169.382 236.39 171.498 236.848C174.789 237.56 177.756 238.815 180.478 240.645C181.325 241.215 182.06 241.73 182.11 241.792C182.161 241.853 182.669 242.296 183.239 242.775C185.254 244.47 187.649 247.607 189.091 250.442C190.822 253.844 191.548 256.783 191.686 260.957C191.873 266.56 190.63 270.827 187.437 275.547C185.153 278.924 182.252 281.502 178.662 283.344C176.305 284.554 174.701 285.1 171.463 285.795C170.993 285.896 173.009 285.961 176.977 285.973L183.232 285.991L184.477 285.026C190.408 280.427 194.276 274.45 195.927 267.335C196.404 265.281 196.445 264.803 196.453 261.209C196.462 257.008 196.218 255.306 195.133 252.02C192.369 243.646 185.665 236.731 177.241 233.569C174.079 232.382 169.977 231.601 166.901 231.601C162.744 231.601 157.617 232.829 153.759 234.75C147.061 238.086 142.187 243.463 139.285 250.721C138.715 252.144 138.375 253.332 137.637 256.475C137.246 258.137 137.308 264.898 137.733 266.935C138.53 270.759 139.863 274.176 141.654 276.982C142.008 277.537 142.298 278.037 142.298 278.093C142.298 278.149 122.778 278.194 98.9212 278.194H55.5446L59.499 274.25C62.2537 271.502 63.4847 270.389 63.5564 270.582C63.6129 270.734 63.8891 271.089 64.1702 271.371L64.6811 271.883H98.5574H132.434L132.917 271.502C133.503 271.04 133.87 269.915 133.711 269.068C133.564 268.284 132.802 267.445 132.111 267.307C131.82 267.248 131.53 267.067 131.468 266.903C131.405 266.74 131.274 265.517 131.177 264.186C130.712 257.83 132.118 250.924 135.033 245.245C135.927 243.504 138.186 240.057 139.379 238.616C144.809 232.052 152.869 227.324 160.965 225.952C165.544 225.177 168.968 225.2 173.315 226.037C188.43 228.947 200.077 241.189 202.392 256.6C202.777 259.166 202.788 264.266 202.413 266.729C202.089 268.856 202.221 269.59 203.055 270.293C203.74 270.871 204.324 271.035 205.198 270.893C205.8 270.795 205.184 271.462 198.324 278.342L190.788 285.898L194.081 285.949L197.374 286L207.652 275.739C213.306 270.096 218.035 265.312 218.161 265.107C218.494 264.571 218.468 258.804 218.119 255.833C216.257 239.975 207.248 225.839 193.637 217.416C191.733 216.237 187.484 214.077 185.629 213.344C181.081 211.547 175.914 210.312 171.148 209.881C169.377 209.721 164.712 209.681 163.223 209.813ZM83.9678 218.189C82.2664 219.041 82.3298 221.699 84.0689 222.427C84.5915 222.646 87.0243 222.69 98.5966 222.69C113.663 222.69 113.397 222.708 114.066 221.685C114.479 221.052 114.479 219.502 114.066 218.869C113.397 217.846 113.667 217.864 98.5563 217.864C85.6553 217.864 84.5676 217.889 83.9678 218.189ZM362.706 226.493C362.377 226.636 361.94 227.029 361.734 227.367C361.367 227.971 361.361 228.263 361.36 245.208C361.36 264.291 361.287 263.189 362.581 263.804C363.415 264.201 364.717 264.101 365.281 263.598C366.187 262.79 366.174 263.013 366.174 247.604V233.152L367.146 233.291C367.681 233.367 369.889 233.436 372.054 233.443L375.988 233.457V231.09V228.723H372.146C370.033 228.723 367.835 228.656 367.263 228.574C366.27 228.431 366.209 228.391 365.934 227.689C365.711 227.12 365.465 226.872 364.845 226.59C363.9 226.16 363.51 226.142 362.706 226.493ZM275.049 232.025C273.789 232.876 273.871 231.432 273.808 253.969C273.767 268.586 273.81 274.665 273.959 275.36C274.1 276.015 274.32 276.451 274.637 276.701C275.721 277.556 277.581 277.339 278.224 276.282C278.576 275.703 278.585 275.188 278.586 256.058L278.587 236.427H303.585H328.584V256.021C328.584 277.646 328.512 276.369 329.761 276.963C330.555 277.341 331.403 277.35 332.1 276.989C333.295 276.37 333.213 278.022 333.213 254.463V233.042L332.494 232.321L331.775 231.601H303.727H275.679L275.049 232.025ZM29.1561 236.054C28.4484 236.439 5.25539 259.656 4.91949 260.315C4.6908 260.764 4.66653 261.767 4.87171 262.289C4.94485 262.475 10.2497 267.884 16.6607 274.309L28.3167 285.991H30.266H32.2154L43.9147 274.25C51.8287 266.307 55.6541 262.343 55.7379 261.997C56.0674 260.638 56.3403 260.949 43.6419 248.211C36.5451 241.093 31.4128 236.086 31.0601 235.936C30.2803 235.607 29.9385 235.628 29.1561 236.054ZM374.714 238.51L373.533 239.742L370.875 239.802L368.217 239.861L367.612 240.468C367.075 241.008 367.008 241.189 367.008 242.107C367.008 243.054 367.062 243.188 367.675 243.752C368.297 244.323 368.463 244.375 370.053 244.501C371.829 244.642 375.389 244.48 375.776 244.241C375.938 244.141 375.983 243.185 375.946 240.691L375.896 237.277L374.714 238.51ZM40.221 251.51L50.0808 261.396L40.1738 271.326L30.2668 281.257L20.3583 271.323L10.4497 261.39L20.3121 251.508C25.7365 246.072 30.2166 241.625 30.2679 241.625C30.319 241.625 34.798 246.073 40.221 251.51ZM164.797 242.738C160.65 243.236 156.642 245.202 153.672 248.193C151.302 250.58 149.677 253.33 148.778 256.475C148.215 258.444 148.076 262.274 148.482 264.61C149.534 270.652 153.41 275.719 159.025 278.388C164.726 281.099 171.781 280.432 177.389 276.652C180.022 274.877 182.851 271.537 184.105 268.724C185.245 266.165 185.532 264.667 185.524 261.302C185.515 257.763 185.206 256.215 183.989 253.611C182.93 251.346 181.895 249.903 179.983 248.029C175.928 244.055 170.261 242.08 164.797 242.738ZM286.061 242.907C284.794 243.686 284.882 242.306 284.885 261.297C284.887 274.559 284.94 278.575 285.117 278.919C285.242 279.165 285.581 279.541 285.868 279.755C286.39 280.143 286.417 280.144 303.585 280.144C320.753 280.144 320.78 280.143 321.302 279.755C321.59 279.541 321.928 279.165 322.054 278.919C322.23 278.575 322.283 274.55 322.285 261.253L322.288 244.033L321.654 243.339L321.02 242.646L303.831 242.598C287.163 242.553 286.624 242.562 286.061 242.907ZM232.192 243.084C231.37 243.587 230.997 244.267 230.997 245.264C230.997 246.103 231.049 246.185 232.563 247.73L234.129 249.329H235.243H236.358L237.849 247.844C239.63 246.07 239.916 245.418 239.394 244.313C238.98 243.435 238.008 242.739 237.198 242.739C236.871 242.739 236.3 242.945 235.93 243.197L235.256 243.656L234.582 243.197C233.78 242.652 232.964 242.613 232.192 243.084ZM170.972 248.018C173.412 248.812 175.203 249.91 176.934 251.673C182.223 257.058 182.271 265.439 177.044 270.907C173.996 274.095 170.426 275.575 166.303 275.358C164.118 275.244 162.718 274.896 160.888 274.014C155.386 271.362 152.085 265.152 153.054 259.275C153.918 254.033 157.507 249.802 162.487 248.154C164.54 247.475 165.104 247.393 167.296 247.455C168.996 247.502 169.738 247.616 170.972 248.018ZM317.658 261.395V275.41H303.585H289.512V261.395V247.379H303.585H317.658V261.395ZM29.2487 251.459C29.045 251.545 26.941 253.569 24.573 255.957L20.2677 260.299V261.395V262.49L24.5665 266.814C27.509 269.774 29.0613 271.203 29.4859 271.343C30.8532 271.796 31.1321 271.607 35.4961 267.274C37.7245 265.061 39.7096 262.991 39.9072 262.672C40.1336 262.308 40.2666 261.762 40.2666 261.197V260.301L36.3316 256.325C34.1675 254.139 32.0717 252.108 31.6745 251.814C30.933 251.263 30.0225 251.13 29.2487 251.459ZM372.896 255.777C371.246 257.437 369.807 259.036 369.698 259.329C369.321 260.343 369.878 261.642 370.93 262.201C371.153 262.319 371.685 262.416 372.113 262.416C372.84 262.416 372.997 262.313 374.446 260.884L375.999 259.353L375.948 256.055L375.896 252.758L372.896 255.777ZM165.815 253.622C163.287 254.094 160.866 255.915 159.817 258.135C159.281 259.268 159.241 259.494 159.241 261.399C159.241 263.327 159.276 263.516 159.834 264.652C161.315 267.666 164.608 269.521 167.846 269.166C169.937 268.936 172.33 267.368 173.57 265.414C174.843 263.408 175.068 260.401 174.104 258.291C173.572 257.129 172.202 255.54 171.185 254.909C169.581 253.912 167.251 253.353 165.815 253.622ZM297.177 253.767C296.861 253.907 296.424 254.273 296.205 254.581C295.818 255.126 295.808 255.298 295.808 261.293C295.808 267.991 295.828 268.136 296.863 268.839C297.341 269.163 297.845 269.196 303.218 269.247C309.778 269.31 310.228 269.248 310.939 268.189C311.36 267.563 311.362 267.514 311.362 261.272V254.985L310.729 254.291L310.095 253.598L303.924 253.555C299.025 253.521 297.634 253.565 297.177 253.767ZM32.44 259.118C33.5873 260.265 34.5262 261.268 34.5262 261.347C34.5262 261.427 33.5549 262.458 32.368 263.639L30.2097 265.787L28.1089 263.687C26.9534 262.531 26.0081 261.503 26.0081 261.401C26.0081 261.217 30.0823 257.032 30.2612 257.032C30.3121 257.032 31.2926 257.971 32.44 259.118ZM168.549 258.828C169.358 259.434 169.751 260.116 169.843 261.075C170.044 263.166 168.647 264.611 166.629 264.402C165.439 264.279 164.791 263.872 164.323 262.952C163.494 261.323 164.136 259.32 165.723 258.583C166.46 258.241 167.935 258.369 168.549 258.828ZM306.733 261.395V264.458H303.585H300.437V261.395V258.332H303.585H306.733V261.395ZM366.359 267.522C361.961 267.964 359.672 268.408 354.416 269.838C348.956 271.323 341.812 274.764 336.361 278.534C333.555 280.474 327.902 285.223 327.689 285.818C327.652 285.921 329.026 285.991 331.07 285.991H334.512L335.853 284.861C339.875 281.474 346.306 277.798 351.823 275.735C358.655 273.179 364.897 272.056 372.233 272.06L375.988 272.062V269.768V267.474L375.41 267.358C374.469 267.17 368.859 267.271 366.359 267.522ZM-33.948 269.772L-33.8959 272.161L-32.6923 272.286C-28.6712 272.703 -25.3994 273.376 -21.3966 274.611C-14.669 276.686 -8.137 280.138 -2.5088 284.592L-0.749641 285.984L2.66831 285.988L6.08627 285.991L5.26076 285.136C4.45618 284.304 0.733051 281.087 -0.749828 279.944C-4.39962 277.13 -10.183 273.835 -14.8001 271.939C-20.413 269.633 -27.0995 267.963 -32.5592 267.504L-34 267.383L-33.948 269.772ZM234.404 273.447C233.913 273.662 221.738 285.627 221.738 285.895C221.738 285.948 223.216 285.991 225.023 285.991H228.308L231.782 282.512L235.256 279.034L238.73 282.512L242.203 285.991H245.488C247.295 285.991 248.773 285.961 248.773 285.925C248.773 285.889 246.054 283.123 242.729 279.779C237.154 274.171 236.008 273.165 235.215 273.19C235.085 273.194 234.72 273.31 234.404 273.447ZM368.582 278.319C361.189 278.845 353.621 281.115 347.244 284.719L345.157 285.898L350.297 285.948L355.436 285.997L357.335 285.36C362.455 283.643 366.873 282.963 372.331 283.053L375.989 283.114L375.989 280.774L375.988 278.434L374.739 278.316C373.513 278.2 370.231 278.201 368.582 278.319ZM-33.9885 280.758V283.163L-32.7386 283.294C-30.0254 283.577 -23.5684 285.137 -22.3038 285.815C-22.1197 285.914 -19.6451 285.991 -16.6506 285.991H-11.3246L-12.1984 285.435C-13.4291 284.653 -17.1211 282.802 -18.997 282.027C-23.2749 280.26 -28.3911 278.952 -32.9238 278.467L-33.9885 278.353V280.758Z" fill="#999999"/>
</svg>