<svg width="16" height="16" viewBox="0 0 16 16" fill="none" xmlns="http://www.w3.org/2000/svg">
<path d="M8.0026 1.33398C4.32927 1.33398 1.33594 4.32732 1.33594 8.00065C1.33594 11.674 4.32927 14.6673 8.0026 14.6673C11.6759 14.6673 14.6693 11.674 14.6693 8.00065C14.6693 4.32732 11.6759 1.33398 8.0026 1.33398ZM7.5026 5.33398C7.5026 5.06065 7.72927 4.83398 8.0026 4.83398C8.27594 4.83398 8.5026 5.06065 8.5026 5.33398V8.66732C8.5026 8.94065 8.27594 9.16732 8.0026 9.16732C7.72927 9.16732 7.5026 8.94065 7.5026 8.66732V5.33398ZM8.61594 10.9207C8.5826 11.0073 8.53594 11.074 8.47594 11.1407C8.40927 11.2007 8.33594 11.2473 8.25594 11.2807C8.17594 11.314 8.08927 11.334 8.0026 11.334C7.91594 11.334 7.82927 11.314 7.74927 11.2807C7.66927 11.2473 7.59594 11.2007 7.52927 11.1407C7.46927 11.074 7.4226 11.0073 7.38927 10.9207C7.35594 10.8407 7.33594 10.754 7.33594 10.6673C7.33594 10.5807 7.35594 10.494 7.38927 10.414C7.4226 10.334 7.46927 10.2607 7.52927 10.194C7.59594 10.134 7.66927 10.0873 7.74927 10.054C7.90927 9.98732 8.09594 9.98732 8.25594 10.054C8.33594 10.0873 8.40927 10.134 8.47594 10.194C8.53594 10.2607 8.5826 10.334 8.61594 10.414C8.64927 10.494 8.66927 10.5807 8.66927 10.6673C8.66927 10.754 8.64927 10.8407 8.61594 10.9207Z" fill="#999999"/>
</svg>
