<svg width="156" height="138" viewBox="0 0 156 138" fill="none" xmlns="http://www.w3.org/2000/svg">
<g opacity="0.16" filter="url(#filter0_d_6434_26180)">
<rect x="9" y="9" width="138" height="120" rx="8" fill="#2DBDEF"/>
</g>
<path fill-rule="evenodd" clip-rule="evenodd" d="M39.3718 60.8164H24.8999C24.4139 60.8164 24 61.2303 24 61.7346V63.3726C24 63.8765 24.4139 64.2907 24.8999 64.2907H39.3718C39.8757 64.2907 40.2717 63.8768 40.2899 63.3726V61.7525C40.2899 61.2303 39.876 60.8164 39.3718 60.8164ZM39.3718 69.9066H24.8999C24.6657 69.9066 24.4318 69.9966 24.2701 70.1767C24.09 70.3567 24 70.5726 24 70.8247V72.4627C24 72.9667 24.4139 73.3809 24.8999 73.3809H39.3718C39.8757 73.3809 40.2717 72.9849 40.2899 72.4627V70.8247C40.272 70.3029 39.876 69.9066 39.3718 69.9066ZM33.054 74.4426H24.8999C24.6657 74.4426 24.4318 74.5326 24.2701 74.7126C24.108 74.8927 24 75.1086 24 75.3607V76.9987C24 77.5026 24.4139 77.9169 24.8999 77.9169H33.036C33.54 77.9169 33.9359 77.503 33.9359 77.017V75.379C33.9539 74.8388 33.5579 74.4432 33.054 74.4432V74.4426ZM40.2899 65.3524H24.8999C24.6657 65.3524 24.4318 65.4424 24.2701 65.6224C24.108 65.8025 24 66.0184 24 66.2705V67.9085C24 68.4124 24.4139 68.8267 24.8999 68.8267H40.272C40.7759 68.8267 41.1719 68.4128 41.1719 67.9085V66.2705C41.1898 65.7845 40.7759 65.3706 40.2899 65.3524Z" fill="#2DBDEF"/>
<path fill-rule="evenodd" clip-rule="evenodd" d="M57.1163 64.49C56.6662 64.0219 56.1443 63.6619 55.5504 63.4101C54.9564 63.1579 54.3263 63.032 53.6785 63.032C53.0487 63.0141 52.4365 63.1579 51.8605 63.428C51.4824 63.608 51.1406 63.8598 50.8523 64.1661V63.8781C50.8523 63.7343 50.7985 63.5901 50.7085 63.4821C50.6184 63.3742 50.4746 63.3021 50.3125 63.3021H48.3144C48.1706 63.3021 48.0264 63.3562 47.9364 63.4821C47.8284 63.5901 47.7743 63.7339 47.7926 63.8781V77.3422C47.7926 77.486 47.8464 77.6302 47.9364 77.7381C48.0444 77.8461 48.1706 77.9002 48.3144 77.9002H50.3666C50.5105 77.9002 50.6367 77.8464 50.7447 77.7384C50.8526 77.6484 50.9247 77.5043 50.9068 77.3422V72.7341C51.1948 73.058 51.5728 73.2922 51.9867 73.436C52.5268 73.634 53.0849 73.742 53.6609 73.742C54.309 73.742 54.9567 73.6157 55.551 73.3639C56.145 73.1121 56.6848 72.7521 57.1349 72.284C57.6029 71.798 57.963 71.222 58.2148 70.5919C58.5028 69.89 58.6287 69.1339 58.6111 68.3779C58.629 67.6218 58.4849 66.8658 58.2148 66.1459C57.9447 65.552 57.585 64.976 57.1166 64.49H57.1163ZM55.2803 69.3681C55.1723 69.6561 55.0102 69.9082 54.7943 70.1421C54.3804 70.5922 53.7861 70.844 53.1743 70.844C52.8683 70.844 52.5624 70.7899 52.2744 70.646C52.0043 70.5201 51.7525 70.358 51.5363 70.1421C51.3203 69.9262 51.1582 69.6561 51.0503 69.3681C50.8161 68.7562 50.8161 68.0899 51.0503 67.478C51.1582 67.19 51.3383 66.9379 51.5363 66.7219C51.7522 66.506 52.0043 66.326 52.2744 66.2001C52.5624 66.0742 52.8683 66.0021 53.1743 66.0021C53.4981 66.0021 53.7861 66.0559 54.0924 66.2001C54.3625 66.326 54.6143 66.4881 54.8123 66.704C55.0282 66.9199 55.1723 67.172 55.2982 67.46C55.5142 68.0899 55.4962 68.7562 55.2803 69.3681ZM69.6084 63.32H67.5744C67.4306 63.32 67.2864 63.3742 67.1964 63.4821C67.0884 63.5901 67.0346 63.7339 67.0346 63.896V64.1478C66.7825 63.8419 66.4586 63.6077 66.1164 63.4459C65.5584 63.1759 64.9465 63.0496 64.3343 63.0496C63.0202 63.0496 61.7781 63.5718 60.8424 64.4897C60.3564 64.9756 59.9784 65.5517 59.7262 66.1815C59.4382 66.8834 59.2944 67.6394 59.3123 68.4134C59.2944 69.1695 59.4382 69.9255 59.7262 70.6454C59.9963 71.2752 60.3561 71.8515 60.8424 72.3372C61.7605 73.2733 63.0205 73.7951 64.3163 73.7951C64.9282 73.8131 65.5404 73.6689 66.0982 73.3988C66.44 73.2188 66.7821 72.9849 67.0343 72.6969V72.967C67.0343 73.1108 67.0881 73.255 67.196 73.363C67.304 73.453 67.4302 73.5247 67.5741 73.5247H69.608C69.7519 73.5247 69.896 73.4709 69.9861 73.363C70.094 73.255 70.1478 73.1108 70.1478 72.967V63.913C70.1478 63.7692 70.094 63.625 70.004 63.517C69.896 63.3911 69.7519 63.3191 69.608 63.3191L69.6084 63.32ZM66.8542 69.3681C66.7463 69.6561 66.5842 69.9082 66.3682 70.1421C66.1523 70.358 65.9181 70.538 65.6484 70.6639C65.0724 70.934 64.4064 70.934 63.8304 70.6639C63.5603 70.538 63.3085 70.358 63.0923 70.1421C62.8763 69.9262 62.7142 69.6561 62.6063 69.3681C62.3903 68.7562 62.3903 68.0899 62.6063 67.478C62.7142 67.19 62.8763 66.9561 63.0923 66.7219C63.3082 66.506 63.5424 66.326 63.8304 66.2001C64.4064 65.93 65.0724 65.93 65.6305 66.2001C65.9005 66.326 66.1527 66.4881 66.3503 66.704C66.5483 66.9199 66.7104 67.172 66.8363 67.46C67.0881 68.0899 67.0881 68.7562 66.8542 69.3681ZM89.8765 68.144C89.5885 67.8919 89.2467 67.676 88.8866 67.5321C88.5086 67.37 88.0947 67.2621 87.6987 67.172L86.1507 66.8661C85.7548 66.794 85.4668 66.6861 85.3226 66.5602C85.1967 66.4701 85.1067 66.3263 85.1067 66.1642C85.1067 66.0024 85.1967 65.8582 85.3947 65.7323C85.6648 65.5885 85.9528 65.5164 86.2587 65.5344C86.6547 65.5344 87.0506 65.6244 87.4107 65.7686C87.7708 65.9303 88.1126 66.0924 88.4368 66.3087C88.8869 66.5967 89.2829 66.5425 89.553 66.2187L90.2911 65.3726C90.4349 65.2288 90.507 65.0487 90.5249 64.8507C90.507 64.6348 90.399 64.4548 90.2369 64.3106C89.931 64.0405 89.4271 63.7525 88.761 63.4645C88.095 63.1765 87.2489 63.0327 86.259 63.0327C85.6471 63.0148 85.0529 63.1044 84.4772 63.2845C83.9912 63.4466 83.5232 63.6805 83.1093 63.9864C82.7312 64.2744 82.4432 64.6345 82.2273 65.0663C82.0293 65.4802 81.9214 65.9303 81.9214 66.3804C81.9214 67.2265 82.1735 67.9105 82.6774 68.4144C83.1813 68.9183 83.8474 69.2605 84.6755 69.4226L86.2956 69.7827C86.6374 69.8365 86.9975 69.9444 87.3217 70.1065C87.5017 70.1786 87.6097 70.3583 87.6097 70.5566C87.6097 70.7367 87.5197 70.8985 87.3217 71.0426C87.1237 71.1868 86.7995 71.2768 86.3676 71.2768C85.9358 71.2768 85.4857 71.1868 85.0897 70.9888C84.7117 70.8088 84.3699 70.5749 84.0457 70.3048C83.9018 70.1969 83.7577 70.1069 83.5776 70.0348C83.3976 69.981 83.1637 70.0348 82.9295 70.2328L82.0476 70.8988C81.7958 71.0788 81.6696 71.3848 81.7417 71.6728C81.7955 71.9787 82.0297 72.2667 82.4798 72.6089C83.5959 73.3649 84.928 73.7609 86.2776 73.7247C86.9074 73.7247 87.5376 73.6529 88.1315 73.4729C88.6537 73.3108 89.1397 73.0769 89.5716 72.753C89.9675 72.465 90.2914 72.087 90.5076 71.6369C90.7236 71.2051 90.8315 70.737 90.8315 70.2507C90.8495 69.8189 90.7594 69.3867 90.5797 68.9907C90.3997 68.7027 90.1655 68.3965 89.8775 68.1447L89.8765 68.144ZM98.7687 70.6101C98.6787 70.448 98.5166 70.3401 98.3186 70.3042C98.1386 70.3042 97.9406 70.3583 97.7968 70.4663C97.545 70.6284 97.2566 70.7181 96.9686 70.7364C96.8786 70.7364 96.7706 70.7184 96.6806 70.7002C96.5727 70.6822 96.4826 70.6284 96.4106 70.5563C96.3205 70.4663 96.2484 70.3583 96.1946 70.2504C96.1226 70.0703 96.0867 69.8903 96.1046 69.7102V66.0204H98.7325C98.8946 66.0204 99.0385 65.9483 99.1464 65.8403C99.2544 65.7323 99.3265 65.6061 99.3265 65.444V63.8781C99.3265 63.716 99.2726 63.5722 99.1464 63.4821C99.0385 63.3742 98.8946 63.32 98.7505 63.32H96.1043V60.8001C96.1043 60.6563 96.0505 60.4942 95.9425 60.4041C95.8345 60.3141 95.7083 60.26 95.5645 60.242H93.5126C93.3687 60.242 93.2246 60.2962 93.1166 60.4041C93.0087 60.5121 92.9366 60.6563 92.9366 60.8001V63.32H91.7666C91.6228 63.32 91.4786 63.3742 91.3707 63.5001C91.2807 63.608 91.2268 63.7519 91.2268 63.896V65.462C91.2268 65.6061 91.2807 65.75 91.3707 65.8583C91.4607 65.9841 91.6045 66.0383 91.7666 66.0383H92.9366V70.4304C92.9186 70.9523 93.0266 71.4745 93.2425 71.9425C93.4405 72.3385 93.6926 72.6806 94.0345 72.9686C94.3583 73.2387 94.7364 73.4367 95.1503 73.5446C95.5645 73.6705 95.9963 73.7426 96.4285 73.7426C96.9866 73.7426 97.5626 73.6526 98.1027 73.4725C98.6066 73.3104 99.0567 73.0224 99.4168 72.6444C99.6507 72.4102 99.6686 72.0325 99.4889 71.7625L98.7691 70.6105L98.7687 70.6101ZM109.893 63.32H107.859C107.715 63.32 107.589 63.3742 107.481 63.4821C107.373 63.5901 107.319 63.7339 107.319 63.896V64.1478C107.067 63.8419 106.761 63.6077 106.401 63.4459C105.843 63.1759 105.231 63.0496 104.619 63.0496C103.305 63.0496 102.063 63.5718 101.127 64.4897C100.641 64.9756 100.263 65.5517 100.011 66.1815C99.7227 66.8834 99.5789 67.6394 99.5969 68.3955C99.5789 69.1515 99.7227 69.9076 100.011 70.6274C100.263 71.2572 100.659 71.8336 101.127 72.3196C102.045 73.2556 103.287 73.7775 104.601 73.7775C105.213 73.7955 105.825 73.6513 106.383 73.3995C106.743 73.2194 107.067 72.9856 107.319 72.6976V72.9676C107.319 73.1115 107.373 73.2557 107.481 73.3457C107.589 73.4536 107.715 73.5074 107.859 73.5074H109.893C110.199 73.5074 110.433 73.2736 110.433 72.9673V63.9133C110.433 63.7692 110.379 63.6253 110.289 63.517C110.199 63.3911 110.055 63.3191 109.893 63.3191V63.32ZM107.157 69.386C107.049 69.674 106.887 69.9262 106.671 70.16C106.455 70.3759 106.221 70.556 105.951 70.6819C105.663 70.8078 105.357 70.8799 105.033 70.8799C104.709 70.8799 104.421 70.8078 104.133 70.6819C103.863 70.556 103.611 70.3759 103.395 70.16C103.179 69.9438 103.017 69.674 102.927 69.386C102.711 68.7742 102.711 68.1078 102.927 67.4959C103.035 67.2079 103.197 66.9558 103.395 66.7399C103.611 66.5239 103.863 66.3439 104.133 66.218C104.421 66.0918 104.727 66.02 105.033 66.02C105.339 66.02 105.645 66.0738 105.951 66.218C106.221 66.3439 106.455 66.506 106.671 66.7219C106.887 66.9379 107.049 67.19 107.157 67.478C107.391 68.0719 107.391 68.7742 107.157 69.386ZM121.053 70.4842L119.883 69.5843C119.667 69.4043 119.451 69.3502 119.271 69.4222C119.11 69.4943 118.965 69.6023 118.84 69.7282C118.588 70.0341 118.281 70.3042 117.958 70.538C117.598 70.736 117.219 70.844 116.824 70.8081C116.355 70.8081 115.924 70.6822 115.545 70.4121C115.167 70.1421 114.879 69.7823 114.735 69.3322C114.627 69.0263 114.574 68.7203 114.574 68.4144C114.574 68.0902 114.627 67.7846 114.735 67.4604C114.843 67.1724 114.988 66.9202 115.203 66.7043C115.419 66.4884 115.654 66.3084 115.923 66.2004C116.211 66.0745 116.517 66.0024 116.841 66.0024C117.237 65.9845 117.633 66.0924 117.975 66.2904C118.317 66.5063 118.605 66.7764 118.857 67.1003C118.965 67.2262 119.109 67.3345 119.271 67.4062C119.451 67.4783 119.667 67.4242 119.883 67.2441L121.053 66.3622C121.197 66.2722 121.305 66.128 121.359 65.9662C121.431 65.7862 121.413 65.5882 121.305 65.4261C120.855 64.7242 120.243 64.1478 119.505 63.7339C118.731 63.3021 117.813 63.0679 116.787 63.0679C116.067 63.0679 115.347 63.2118 114.663 63.4818C114.015 63.7519 113.439 64.1299 112.953 64.6156C112.467 65.1015 112.071 65.6776 111.801 66.3256C111.243 67.6756 111.243 69.1877 111.801 70.5377C112.071 71.1675 112.449 71.7618 112.953 72.2299C113.979 73.2377 115.347 73.7778 116.787 73.7778C117.813 73.7778 118.731 73.5436 119.505 73.1118C120.243 72.6979 120.873 72.1219 121.323 71.4017C121.413 71.2396 121.431 71.0416 121.377 70.8795C121.305 70.7357 121.197 70.5915 121.053 70.4836L121.053 70.4842ZM131.889 72.5903L128.667 67.8743L131.421 64.2382C131.547 64.0761 131.601 63.8422 131.529 63.6442C131.475 63.5004 131.349 63.3562 131.007 63.3562H128.829C128.703 63.3562 128.577 63.3921 128.469 63.4463C128.325 63.518 128.217 63.6263 128.145 63.7522L125.949 66.8302H125.427V59.5581C125.427 59.4139 125.373 59.2701 125.265 59.1618C125.157 59.0538 125.031 59 124.887 59H122.853C122.709 59 122.565 59.0541 122.457 59.1621C122.349 59.2701 122.295 59.396 122.295 59.5581V72.9683C122.295 73.1301 122.349 73.2563 122.457 73.3643C122.565 73.4722 122.709 73.526 122.853 73.526H124.887C125.031 73.526 125.175 73.4722 125.265 73.3643C125.373 73.2563 125.427 73.1121 125.427 72.9683V69.4222H126.003L128.397 73.0942C128.541 73.3643 128.811 73.526 129.099 73.526H131.385C131.727 73.526 131.871 73.3643 131.944 73.2201C132.034 72.9862 132.015 72.752 131.889 72.5903ZM81.1647 63.3383H78.8786C78.6985 63.3383 78.5364 63.3921 78.4105 63.5184C78.3026 63.6263 78.2305 63.7525 78.1946 63.8964L76.5028 70.1607H76.0886L74.2885 63.8964C74.2526 63.7705 74.1985 63.6446 74.1084 63.5184C74.0005 63.3925 73.8563 63.3204 73.6945 63.3204H71.3726C71.0666 63.3204 70.8866 63.4104 70.7966 63.6263C70.7428 63.8064 70.7428 64.0043 70.7966 64.1844L73.6766 73.0045C73.7304 73.1307 73.7846 73.2746 73.8925 73.3646C74.0005 73.4725 74.1626 73.5267 74.3244 73.5267H75.5485L75.4405 73.8147L75.1704 74.6246C75.0804 74.8767 74.9362 75.0926 74.7203 75.2544C74.5223 75.3982 74.2885 75.4886 74.0364 75.4703C73.8204 75.4703 73.6225 75.4165 73.4245 75.3444C73.2265 75.2544 73.0464 75.1464 72.8843 75.0205C72.7405 74.9126 72.5605 74.8584 72.3625 74.8584H72.3445C72.1286 74.8764 71.9306 74.9843 71.8224 75.1823L71.1025 76.2443C70.8145 76.7123 70.9763 77.0003 71.1563 77.1621C71.5523 77.5222 72.0024 77.7919 72.5063 77.954C73.0644 78.152 73.6404 78.242 74.2164 78.242C75.2605 78.242 76.1245 77.954 76.7905 77.396C77.4745 76.7841 77.9966 75.9918 78.2484 75.0919L81.5965 64.1837C81.6686 63.9857 81.6865 63.7878 81.6145 63.6077C81.5965 63.4815 81.4706 63.3197 81.1643 63.3377L81.1647 63.3383Z" fill="#131E32"/>
<defs>
<filter id="filter0_d_6434_26180" x="0" y="0" width="156" height="138" filterUnits="userSpaceOnUse" color-interpolation-filters="sRGB">
<feFlood flood-opacity="0" result="BackgroundImageFix"/>
<feColorMatrix in="SourceAlpha" type="matrix" values="0 0 0 0 0 0 0 0 0 0 0 0 0 0 0 0 0 0 127 0" result="hardAlpha"/>
<feMorphology radius="1" operator="dilate" in="SourceAlpha" result="effect1_dropShadow_6434_26180"/>
<feOffset/>
<feGaussianBlur stdDeviation="4"/>
<feComposite in2="hardAlpha" operator="out"/>
<feColorMatrix type="matrix" values="0 0 0 0 0.0705882 0 0 0 0 0.207843 0 0 0 0 0.352941 0 0 0 0.04 0"/>
<feBlend mode="normal" in2="BackgroundImageFix" result="effect1_dropShadow_6434_26180"/>
<feBlend mode="normal" in="SourceGraphic" in2="effect1_dropShadow_6434_26180" result="shape"/>
</filter>
</defs>
</svg>
