<svg width="122" height="42" viewBox="0 0 122 42" fill="none" xmlns="http://www.w3.org/2000/svg">
<path fill-rule="evenodd" clip-rule="evenodd" d="M22.3718 12.8164H7.89989C7.4139 12.8164 7 13.2303 7 13.7346V15.3726C7 15.8765 7.4139 16.2907 7.89989 16.2907H22.3718C22.8757 16.2907 23.2717 15.8768 23.2899 15.3726V13.7525C23.2899 13.2303 22.876 12.8164 22.3718 12.8164ZM22.3718 21.9066H7.89989C7.6657 21.9066 7.43184 21.9966 7.27006 22.1767C7.09002 22.3567 7 22.5726 7 22.8247V24.4627C7 24.9667 7.4139 25.3809 7.89989 25.3809H22.3718C22.8757 25.3809 23.2717 24.9849 23.2899 24.4627V22.8247C23.272 22.3029 22.876 21.9066 22.3718 21.9066ZM16.054 26.4426H7.89989C7.6657 26.4426 7.43184 26.5326 7.27006 26.7126C7.10796 26.8927 7 27.1086 7 27.3607V28.9987C7 29.5026 7.4139 29.9169 7.89989 29.9169H16.036C16.54 29.9169 16.9359 29.503 16.9359 29.017V27.379C16.9539 26.8388 16.5579 26.4432 16.054 26.4432V26.4426ZM23.2899 17.3524H7.89989C7.6657 17.3524 7.43184 17.4424 7.27006 17.6224C7.10796 17.8025 7 18.0184 7 18.2705V19.9085C7 20.4124 7.4139 20.8267 7.89989 20.8267H23.272C23.7759 20.8267 24.1719 20.4128 24.1719 19.9085V18.2705C24.1898 17.7845 23.7759 17.3706 23.2899 17.3524Z" fill="#2DBDEF"/>
<path fill-rule="evenodd" clip-rule="evenodd" d="M40.1163 16.49C39.6662 16.0219 39.1443 15.6619 38.5504 15.4101C37.9564 15.1579 37.3263 15.032 36.6785 15.032C36.0487 15.0141 35.4365 15.1579 34.8605 15.428C34.4824 15.608 34.1406 15.8598 33.8523 16.1661V15.8781C33.8523 15.7343 33.7985 15.5901 33.7085 15.4821C33.6184 15.3742 33.4746 15.3021 33.3125 15.3021H31.3144C31.1706 15.3021 31.0264 15.3562 30.9364 15.4821C30.8284 15.5901 30.7743 15.7339 30.7926 15.8781V29.3422C30.7926 29.486 30.8464 29.6302 30.9364 29.7381C31.0444 29.8461 31.1706 29.9002 31.3144 29.9002H33.3666C33.5105 29.9002 33.6367 29.8464 33.7447 29.7384C33.8526 29.6484 33.9247 29.5043 33.9068 29.3422V24.7341C34.1948 25.058 34.5728 25.2922 34.9867 25.436C35.5268 25.634 36.0849 25.742 36.6609 25.742C37.309 25.742 37.9567 25.6157 38.551 25.3639C39.145 25.1121 39.6848 24.7521 40.1349 24.284C40.6029 23.798 40.963 23.222 41.2148 22.5919C41.5028 21.89 41.6287 21.1339 41.6111 20.3779C41.629 19.6218 41.4849 18.8658 41.2148 18.1459C40.9447 17.552 40.585 16.976 40.1166 16.49H40.1163ZM38.2803 21.3681C38.1723 21.6561 38.0102 21.9082 37.7943 22.1421C37.3804 22.5922 36.7861 22.844 36.1743 22.844C35.8683 22.844 35.5624 22.7899 35.2744 22.646C35.0043 22.5201 34.7525 22.358 34.5363 22.1421C34.3203 21.9262 34.1582 21.6561 34.0503 21.3681C33.8161 20.7562 33.8161 20.0899 34.0503 19.478C34.1582 19.19 34.3383 18.9379 34.5363 18.7219C34.7522 18.506 35.0043 18.326 35.2744 18.2001C35.5624 18.0742 35.8683 18.0021 36.1743 18.0021C36.4981 18.0021 36.7861 18.0559 37.0924 18.2001C37.3625 18.326 37.6143 18.4881 37.8123 18.704C38.0282 18.9199 38.1723 19.172 38.2982 19.46C38.5142 20.0899 38.4962 20.7562 38.2803 21.3681ZM52.6084 15.32H50.5744C50.4306 15.32 50.2864 15.3742 50.1964 15.4821C50.0884 15.5901 50.0346 15.7339 50.0346 15.896V16.1478C49.7825 15.8419 49.4586 15.6077 49.1164 15.4459C48.5584 15.1759 47.9465 15.0496 47.3343 15.0496C46.0202 15.0496 44.7781 15.5718 43.8424 16.4897C43.3564 16.9756 42.9784 17.5517 42.7262 18.1815C42.4382 18.8834 42.2944 19.6394 42.3123 20.4134C42.2944 21.1695 42.4382 21.9255 42.7262 22.6454C42.9963 23.2752 43.3561 23.8515 43.8424 24.3372C44.7605 25.2733 46.0205 25.7951 47.3163 25.7951C47.9282 25.8131 48.5404 25.6689 49.0982 25.3988C49.44 25.2188 49.7821 24.9849 50.0343 24.6969V24.967C50.0343 25.1108 50.0881 25.255 50.196 25.363C50.304 25.453 50.4302 25.5247 50.5741 25.5247H52.608C52.7519 25.5247 52.896 25.4709 52.9861 25.363C53.094 25.255 53.1478 25.1108 53.1478 24.967V15.913C53.1478 15.7692 53.094 15.625 53.004 15.517C52.896 15.3911 52.7519 15.3191 52.608 15.3191L52.6084 15.32ZM49.8542 21.3681C49.7463 21.6561 49.5842 21.9082 49.3682 22.1421C49.1523 22.358 48.9181 22.538 48.6484 22.6639C48.0724 22.934 47.4064 22.934 46.8304 22.6639C46.5603 22.538 46.3085 22.358 46.0923 22.1421C45.8763 21.9262 45.7142 21.6561 45.6063 21.3681C45.3903 20.7562 45.3903 20.0899 45.6063 19.478C45.7142 19.19 45.8763 18.9561 46.0923 18.7219C46.3082 18.506 46.5424 18.326 46.8304 18.2001C47.4064 17.93 48.0724 17.93 48.6305 18.2001C48.9005 18.326 49.1527 18.4881 49.3503 18.704C49.5483 18.9199 49.7104 19.172 49.8363 19.46C50.0881 20.0899 50.0881 20.7562 49.8542 21.3681ZM72.8765 20.144C72.5885 19.8919 72.2467 19.676 71.8866 19.5321C71.5086 19.37 71.0947 19.2621 70.6987 19.172L69.1507 18.8661C68.7548 18.794 68.4668 18.6861 68.3226 18.5602C68.1967 18.4701 68.1067 18.3263 68.1067 18.1642C68.1067 18.0024 68.1967 17.8582 68.3947 17.7323C68.6648 17.5885 68.9528 17.5164 69.2587 17.5344C69.6547 17.5344 70.0506 17.6244 70.4107 17.7686C70.7708 17.9303 71.1126 18.0924 71.4368 18.3087C71.8869 18.5967 72.2829 18.5425 72.553 18.2187L73.2911 17.3726C73.4349 17.2288 73.507 17.0487 73.5249 16.8507C73.507 16.6348 73.399 16.4548 73.2369 16.3106C72.931 16.0405 72.4271 15.7525 71.761 15.4645C71.095 15.1765 70.2489 15.0327 69.259 15.0327C68.6471 15.0148 68.0529 15.1044 67.4772 15.2845C66.9912 15.4466 66.5232 15.6805 66.1093 15.9864C65.7312 16.2744 65.4432 16.6345 65.2273 17.0663C65.0293 17.4802 64.9214 17.9303 64.9214 18.3804C64.9214 19.2265 65.1735 19.9105 65.6774 20.4144C66.1813 20.9183 66.8474 21.2605 67.6755 21.4226L69.2956 21.7827C69.6374 21.8365 69.9975 21.9444 70.3217 22.1065C70.5017 22.1786 70.6097 22.3583 70.6097 22.5566C70.6097 22.7367 70.5197 22.8985 70.3217 23.0426C70.1237 23.1868 69.7995 23.2768 69.3676 23.2768C68.9358 23.2768 68.4857 23.1868 68.0897 22.9888C67.7117 22.8088 67.3699 22.5749 67.0457 22.3048C66.9018 22.1969 66.7577 22.1069 66.5776 22.0348C66.3976 21.981 66.1637 22.0348 65.9295 22.2328L65.0476 22.8988C64.7958 23.0788 64.6696 23.3848 64.7417 23.6728C64.7955 23.9787 65.0297 24.2667 65.4798 24.6089C66.5959 25.3649 67.928 25.7609 69.2776 25.7247C69.9074 25.7247 70.5376 25.6529 71.1315 25.4729C71.6537 25.3108 72.1397 25.0769 72.5716 24.753C72.9675 24.465 73.2914 24.087 73.5076 23.6369C73.7236 23.2051 73.8315 22.737 73.8315 22.2507C73.8495 21.8189 73.7594 21.3867 73.5797 20.9907C73.3997 20.7027 73.1655 20.3965 72.8775 20.1447L72.8765 20.144ZM81.7687 22.6101C81.6787 22.448 81.5166 22.3401 81.3186 22.3042C81.1386 22.3042 80.9406 22.3583 80.7968 22.4663C80.545 22.6284 80.2566 22.7181 79.9686 22.7364C79.8786 22.7364 79.7706 22.7184 79.6806 22.7002C79.5727 22.6822 79.4826 22.6284 79.4106 22.5563C79.3205 22.4663 79.2484 22.3583 79.1946 22.2504C79.1226 22.0703 79.0867 21.8903 79.1046 21.7102V18.0204H81.7325C81.8946 18.0204 82.0385 17.9483 82.1464 17.8403C82.2544 17.7323 82.3265 17.6061 82.3265 17.444V15.8781C82.3265 15.716 82.2726 15.5722 82.1464 15.4821C82.0385 15.3742 81.8946 15.32 81.7505 15.32H79.1043V12.8001C79.1043 12.6563 79.0505 12.4942 78.9425 12.4041C78.8345 12.3141 78.7083 12.26 78.5645 12.242H76.5126C76.3687 12.242 76.2246 12.2962 76.1166 12.4041C76.0087 12.5121 75.9366 12.6563 75.9366 12.8001V15.32H74.7666C74.6228 15.32 74.4786 15.3742 74.3707 15.5001C74.2807 15.608 74.2268 15.7519 74.2268 15.896V17.462C74.2268 17.6061 74.2807 17.75 74.3707 17.8583C74.4607 17.9841 74.6045 18.0383 74.7666 18.0383H75.9366V22.4304C75.9186 22.9523 76.0266 23.4745 76.2425 23.9425C76.4405 24.3385 76.6926 24.6806 77.0345 24.9686C77.3583 25.2387 77.7364 25.4367 78.1503 25.5446C78.5645 25.6705 78.9963 25.7426 79.4285 25.7426C79.9866 25.7426 80.5626 25.6526 81.1027 25.4725C81.6066 25.3104 82.0567 25.0224 82.4168 24.6444C82.6507 24.4102 82.6686 24.0325 82.4889 23.7625L81.7691 22.6105L81.7687 22.6101ZM92.8929 15.32H90.8589C90.7151 15.32 90.5888 15.3742 90.4809 15.4821C90.3729 15.5901 90.3188 15.7339 90.3188 15.896V16.1478C90.067 15.8419 89.7607 15.6077 89.401 15.4459C88.8429 15.1759 88.231 15.0496 87.6188 15.0496C86.3047 15.0496 85.0626 15.5718 84.1269 16.4897C83.6409 16.9756 83.2629 17.5517 83.0107 18.1815C82.7227 18.8834 82.5789 19.6394 82.5969 20.3955C82.5789 21.1515 82.7227 21.9076 83.0107 22.6274C83.2626 23.2572 83.6588 23.8336 84.1269 24.3196C85.045 25.2556 86.2867 25.7775 87.6009 25.7775C88.2127 25.7955 88.825 25.6513 89.3827 25.3995C89.7428 25.2194 90.0667 24.9856 90.3188 24.6976V24.9676C90.3188 25.1115 90.3729 25.2557 90.4809 25.3457C90.5888 25.4536 90.7151 25.5074 90.8589 25.5074H92.8929C93.1988 25.5074 93.433 25.2736 93.433 24.9673V15.9133C93.433 15.7692 93.3789 15.6253 93.2892 15.517C93.1991 15.3911 93.055 15.3191 92.8929 15.3191V15.32ZM90.157 21.386C90.049 21.674 89.8869 21.9262 89.671 22.16C89.4551 22.3759 89.2209 22.556 88.9512 22.6819C88.6632 22.8078 88.3572 22.8799 88.033 22.8799C87.7091 22.8799 87.4211 22.8078 87.1331 22.6819C86.8631 22.556 86.6113 22.3759 86.395 22.16C86.1791 21.9438 86.017 21.674 85.927 21.386C85.7111 20.7742 85.7111 20.1078 85.927 19.4959C86.0349 19.2079 86.197 18.9558 86.395 18.7399C86.6109 18.5239 86.8631 18.3439 87.1331 18.218C87.4211 18.0918 87.7271 18.02 88.033 18.02C88.3393 18.02 88.6449 18.0738 88.9512 18.218C89.2212 18.3439 89.4551 18.506 89.671 18.7219C89.8869 18.9379 90.049 19.19 90.157 19.478C90.3909 20.0719 90.3909 20.7742 90.157 21.386ZM104.053 22.4842L102.883 21.5843C102.667 21.4043 102.451 21.3502 102.271 21.4222C102.11 21.4943 101.965 21.6023 101.84 21.7282C101.588 22.0341 101.281 22.3042 100.958 22.538C100.598 22.736 100.219 22.844 99.8235 22.8081C99.3555 22.8081 98.9236 22.6822 98.5453 22.4121C98.1673 22.1421 97.8793 21.7823 97.7354 21.3322C97.6275 21.0263 97.5736 20.7203 97.5736 20.4144C97.5736 20.0902 97.6275 19.7846 97.7354 19.4604C97.8434 19.1724 97.9875 18.9202 98.2035 18.7043C98.4194 18.4884 98.6536 18.3084 98.9233 18.2004C99.2113 18.0745 99.5173 18.0024 99.8411 18.0024C100.237 17.9845 100.633 18.0924 100.975 18.2904C101.317 18.5063 101.605 18.7764 101.857 19.1003C101.965 19.2262 102.109 19.3345 102.271 19.4062C102.451 19.4783 102.667 19.4242 102.883 19.2441L104.053 18.3622C104.197 18.2722 104.305 18.128 104.359 17.9662C104.431 17.7862 104.413 17.5882 104.305 17.4261C103.855 16.7242 103.243 16.1478 102.505 15.7339C101.731 15.3021 100.813 15.0679 99.787 15.0679C99.0671 15.0679 98.347 15.2118 97.663 15.4818C97.0149 15.7519 96.4389 16.1299 95.9529 16.6156C95.467 17.1015 95.071 17.6776 94.8009 18.3256C94.2429 19.6756 94.2429 21.1877 94.8009 22.5377C95.071 23.1675 95.449 23.7618 95.9529 24.2299C96.979 25.2377 98.347 25.7778 99.787 25.7778C100.813 25.7778 101.731 25.5436 102.505 25.1118C103.243 24.6979 103.873 24.1219 104.323 23.4017C104.413 23.2396 104.431 23.0416 104.377 22.8795C104.305 22.7357 104.197 22.5915 104.053 22.4836L104.053 22.4842ZM114.889 24.5903L111.667 19.8743L114.421 16.2382C114.547 16.0761 114.601 15.8422 114.529 15.6442C114.475 15.5004 114.349 15.3562 114.007 15.3562H111.829C111.703 15.3562 111.577 15.3921 111.469 15.4463C111.325 15.518 111.217 15.6263 111.145 15.7522L108.949 18.8302H108.427V11.5581C108.427 11.4139 108.373 11.2701 108.265 11.1618C108.157 11.0538 108.031 11 107.887 11H105.853C105.709 11 105.565 11.0541 105.457 11.1621C105.349 11.2701 105.295 11.396 105.295 11.5581V24.9683C105.295 25.1301 105.349 25.2563 105.457 25.3643C105.565 25.4722 105.709 25.526 105.853 25.526H107.887C108.031 25.526 108.175 25.4722 108.265 25.3643C108.373 25.2563 108.427 25.1121 108.427 24.9683V21.4222H109.003L111.397 25.0942C111.541 25.3643 111.811 25.526 112.099 25.526H114.385C114.727 25.526 114.871 25.3643 114.944 25.2201C115.034 24.9862 115.015 24.752 114.889 24.5903ZM64.1647 15.3383H61.8786C61.6985 15.3383 61.5364 15.3921 61.4105 15.5184C61.3026 15.6263 61.2305 15.7525 61.1946 15.8964L59.5028 22.1607H59.0886L57.2885 15.8964C57.2526 15.7705 57.1985 15.6446 57.1084 15.5184C57.0005 15.3925 56.8563 15.3204 56.6945 15.3204H54.3726C54.0666 15.3204 53.8866 15.4104 53.7966 15.6263C53.7428 15.8064 53.7428 16.0043 53.7966 16.1844L56.6766 25.0045C56.7304 25.1307 56.7846 25.2746 56.8925 25.3646C57.0005 25.4725 57.1626 25.5267 57.3244 25.5267H58.5485L58.4405 25.8147L58.1704 26.6246C58.0804 26.8767 57.9362 27.0926 57.7203 27.2544C57.5223 27.3982 57.2885 27.4886 57.0364 27.4703C56.8204 27.4703 56.6225 27.4165 56.4245 27.3444C56.2265 27.2544 56.0464 27.1464 55.8843 27.0205C55.7405 26.9126 55.5605 26.8584 55.3625 26.8584H55.3445C55.1286 26.8764 54.9306 26.9843 54.8224 27.1823L54.1025 28.2443C53.8145 28.7123 53.9763 29.0003 54.1563 29.1621C54.5523 29.5222 55.0024 29.7919 55.5063 29.954C56.0644 30.152 56.6404 30.242 57.2164 30.242C58.2605 30.242 59.1245 29.954 59.7905 29.396C60.4745 28.7841 60.9966 27.9918 61.2484 27.0919L64.5965 16.1837C64.6686 15.9857 64.6865 15.7878 64.6145 15.6077C64.5965 15.4815 64.4706 15.3197 64.1643 15.3377L64.1647 15.3383Z" fill="#131E32"/>
</svg>
