<svg width="80" height="80" viewBox="0 0 80 80" fill="none" xmlns="http://www.w3.org/2000/svg">
<path d="M60.2478 5.17969L74.1578 19.6797V74.8197H22.1953V74.9997H74.3353V19.8622L60.2478 5.17969Z" fill="#909090"/>
<path d="M60.0809 5H22.0234V74.82H74.1634V19.6825L60.0809 5Z" fill="#F4F4F4"/>
<path d="M21.6391 8.75H5.66406V25.8175H55.9141V8.75H21.6391Z" fill="#7A7B7C"/>
<path d="M56.1847 25.5292H5.99219V8.44922H56.1847V25.5292Z" fill="#DD2025"/>
<path d="M22.6347 11.3347H19.3672V23.3347H21.9372V19.2872L22.5047 19.3197C23.0561 19.3102 23.6024 19.2115 24.1222 19.0272C24.5779 18.8705 24.9972 18.623 25.3547 18.2997C25.7184 17.9918 26.0052 17.6031 26.1922 17.1647C26.4429 16.436 26.5325 15.6615 26.4547 14.8947C26.4391 14.347 26.343 13.8045 26.1697 13.2847C26.0119 12.9095 25.7777 12.5712 25.482 12.2915C25.1863 12.0117 24.8356 11.7966 24.4522 11.6597C24.1207 11.5397 23.7782 11.4526 23.4297 11.3997C23.1658 11.359 22.8992 11.3373 22.6322 11.3347M22.1597 17.0697H21.9372V13.3697H22.4197C22.6326 13.3544 22.8463 13.3871 23.0449 13.4654C23.2436 13.5437 23.422 13.6657 23.5672 13.8222C23.868 14.2248 24.0287 14.7147 24.0247 15.2172C24.0247 15.8322 24.0247 16.3897 23.4697 16.7822C23.0699 17.0021 22.6147 17.1037 22.1597 17.0697ZM31.3372 11.3022C31.0597 11.3022 30.7897 11.3222 30.5997 11.3297L30.0047 11.3447H28.0547V23.3447H30.3497C31.2267 23.3688 32.1 23.2201 32.9197 22.9072C33.5795 22.6455 34.1637 22.2237 34.6197 21.6797C35.0631 21.1309 35.3813 20.4918 35.5522 19.8072C35.7486 19.0319 35.8444 18.2345 35.8372 17.4347C35.8857 16.4901 35.8126 15.5432 35.6197 14.6172C35.4366 13.9356 35.0938 13.3075 34.6197 12.7847C34.2477 12.3626 33.7923 12.0222 33.2822 11.7847C32.8441 11.582 32.3833 11.4326 31.9097 11.3397C31.7213 11.3086 31.5306 11.2944 31.3397 11.2972M30.8847 21.1397H30.6347V13.4797H30.6672C31.1826 13.4204 31.7041 13.5134 32.1672 13.7472C32.5063 14.018 32.7827 14.3592 32.9772 14.7472C33.1871 15.1556 33.3081 15.6037 33.3322 16.0622C33.3547 16.6122 33.3322 17.0622 33.3322 17.4347C33.3424 17.8638 33.3148 18.293 33.2497 18.7172C33.1726 19.1528 33.0302 19.5742 32.8272 19.9672C32.5974 20.3326 32.287 20.6405 31.9197 20.8672C31.6112 21.0667 31.246 21.1598 30.8797 21.1322M43.5797 11.3447H37.5047V23.3447H40.0747V18.5847H43.3247V16.3547H40.0747V13.5747H43.5747V11.3447" fill="#464648"/>
<path d="M54.4498 50.6378C54.4498 50.6378 62.4198 49.1928 62.4198 51.9153C62.4198 54.6378 57.4823 53.5303 54.4498 50.6378ZM48.5573 50.8453C47.291 51.1251 46.057 51.5347 44.8748 52.0678L45.8748 49.8178C46.8748 47.5678 47.9123 44.5003 47.9123 44.5003C49.1056 46.5086 50.4939 48.3944 52.0573 50.1303C50.8783 50.3061 49.7099 50.5464 48.5573 50.8503V50.8453ZM45.4023 34.5953C45.4023 32.2228 46.1698 31.5753 46.7673 31.5753C47.3648 31.5753 48.0373 31.8628 48.0598 33.9228C47.8651 35.9942 47.4314 38.0361 46.7673 40.0078C45.8576 38.3524 45.3868 36.4916 45.3998 34.6028L45.4023 34.5953ZM33.7798 60.8853C31.3348 59.4228 38.9073 54.9203 40.2798 54.7753C40.2723 54.7778 36.3398 62.4153 33.7798 60.8853ZM64.7473 52.2378C64.7223 51.9878 64.4973 49.2203 59.5723 49.3378C57.5195 49.3047 55.4676 49.4494 53.4398 49.7703C51.4754 47.7913 49.7838 45.5591 48.4098 43.1328C49.2755 40.6313 49.7994 38.0244 49.9673 35.3828C49.8948 32.3828 49.1773 30.6628 46.8773 30.6878C44.5773 30.7128 44.2423 32.7253 44.5448 35.7203C44.8411 37.7329 45.4 39.698 46.2073 41.5653C46.2073 41.5653 45.1448 44.8728 43.7398 48.1628C42.3348 51.4528 41.3748 53.1778 41.3748 53.1778C38.9316 53.9731 36.6316 55.1548 34.5623 56.6778C32.5023 58.5953 31.6648 60.0678 32.7498 61.5403C33.6848 62.8103 36.9573 63.0978 39.8823 59.2653C41.4364 57.2858 42.8563 55.2045 44.1323 53.0353C44.1323 53.0353 48.5923 51.8128 49.9798 51.4778C51.3673 51.1428 53.0448 50.8778 53.0448 50.8778C53.0448 50.8778 57.1173 54.9753 61.0448 54.8303C64.9723 54.6853 64.7823 52.4828 64.7573 52.2428" fill="#DD2025"/>
<path d="M59.8828 5.19141V19.8739H73.9653L59.8828 5.19141Z" fill="#909090"/>
<path d="M60.0781 5V19.6825H74.1606L60.0781 5Z" fill="#F4F4F4"/>
<path d="M22.4316 11.1433H19.1641V23.1433H21.7441V19.0983L22.3141 19.1308C22.8655 19.1213 23.4117 19.0226 23.9316 18.8383C24.3873 18.6815 24.8065 18.434 25.1641 18.1108C25.5251 17.802 25.8092 17.4135 25.9941 16.9758C26.2448 16.2471 26.3344 15.4726 26.2566 14.7058C26.2409 14.1581 26.1449 13.6156 25.9716 13.0958C25.8137 12.7206 25.5795 12.3823 25.2838 12.1026C24.9881 11.8228 24.6374 11.6076 24.2541 11.4708C23.9211 11.3497 23.5769 11.2617 23.2266 11.2083C22.9626 11.1676 22.6961 11.1459 22.4291 11.1433M21.9566 16.8783H21.7341V13.1783H22.2191C22.432 13.163 22.6457 13.1957 22.8443 13.274C23.0429 13.3523 23.2214 13.4743 23.3666 13.6308C23.6674 14.0334 23.828 14.5233 23.8241 15.0258C23.8241 15.6408 23.8241 16.1983 23.2691 16.5908C22.8692 16.8107 22.4141 16.9097 21.9591 16.8758M31.1341 11.1108C30.8566 11.1108 30.5866 11.1308 30.3966 11.1383L29.8091 11.1533H27.8591V23.1533H30.1541C31.0311 23.1774 31.9044 23.0287 32.7241 22.7158C33.3838 22.4541 33.9681 22.0323 34.4241 21.4883C34.8675 20.9395 35.1857 20.3004 35.3566 19.6158C35.553 18.8405 35.6488 18.0431 35.6416 17.2433C35.6901 16.2987 35.617 15.3518 35.4241 14.4258C35.241 13.7442 34.8982 13.1161 34.4241 12.5933C34.052 12.1712 33.5967 11.8307 33.0866 11.5933C32.6485 11.3906 32.1877 11.2412 31.7141 11.1483C31.5257 11.1172 31.3349 11.103 31.1441 11.1058M30.6891 20.9483H30.4391V13.2883H30.4716C30.987 13.229 31.5084 13.322 31.9716 13.5558C32.3107 13.8266 32.5871 14.1678 32.7816 14.5558C32.9915 14.9642 33.1124 15.4123 33.1366 15.8708C33.1591 16.4208 33.1366 16.8708 33.1366 17.2433C33.1467 17.6724 33.1191 18.1016 33.0541 18.5258C32.977 18.9614 32.8346 19.3828 32.6316 19.7758C32.4018 20.1412 32.0913 20.4491 31.7241 20.6758C31.4156 20.8753 31.0504 20.9684 30.6841 20.9408M43.3766 11.1533H37.3016V23.1533H39.8716V18.3933H43.1216V16.1633H39.8716V13.3833H43.3716V11.1533" fill="white"/>
</svg>
